<svg xmlns="http://www.w3.org/2000/svg" viewBox="0 0 320 320.01"><defs><style>.cls-1{fill:#f09;}</style></defs><g id="Layer_2" data-name="Layer 2"><g id="Layer_1-2" data-name="Layer 1"><path class="cls-1" d="M295,0H25A25.07,25.07,0,0,0,0,25V295a25.07,25.07,0,0,0,25,25H70.37c-1.21-5.08-2.73-12.67-2.94-13.52-2.25-9.36-5.63-18.6-3.85-28.33,2.43-13.23,12.38-21.44,23-28.54q19.11-12.84,38.15-25.78a60.22,60.22,0,0,1-13.85-16.19,7.75,7.75,0,1,1,13.41-7.77,44.75,44.75,0,0,0,77.56,0,7.75,7.75,0,0,1,13.42,7.77A60.56,60.56,0,0,1,163,237.81a59.85,59.85,0,0,1-25.29-5.73l-23,15.6L98.21,258.86c-2,1.34-4,2.66-5.94,4-4.49,3.11-9.77,7.08-12,12.29-4.45,10.46-1.43,19,1,29.37q1.83,7.74,3.65,15.47H295a25.07,25.07,0,0,0,25-25V25A25.07,25.07,0,0,0,295,0ZM107.9,144.76C91.12,144.76,76,132.32,76,113.35a31.69,31.69,0,1,1,32,31.41Zm108.4,0c-16.78,0-32-12.44-32-31.41a31.69,31.69,0,1,1,32,31.41Z"/></g></g></svg>