<svg xmlns="http://www.w3.org/2000/svg" viewBox="0 0 11.2 8"><g data-name="Layer 2"><path fill="#f79d1f" d="m4.69 8-.23-2.73c0-.36-.36-.88-1.3-.75A23.4 23.4 0 0 1 3.68 8h-.53a15.4 15.4 0 0 0-.78-3.68c-.26-.55-.22-.94.57-.73A8 8 0 0 0 4.15 4c.33 0 .67-.44 1.47-.43S6.75 4 7.08 4a7.6 7.6 0 0 0 1.17-.37c.78-.19.84.23.58.75A15 15 0 0 0 8.08 8Zm6.47-8-2 .14a1 1 0 0 0-.82.54l-.58 1.16a1.11 1.11 0 0 0-1.07-1h-.06A1.1 1.1 0 0 0 5.6 0a1.1 1.1 0 0 0-1 .84h-.2a1.1 1.1 0 0 0-1 .89L2.86.7A1 1 0 0 0 2 .16L0 0v.56l1.92.1A.52.52 0 0 1 2.4 1l.45 1.05a1 1 0 0 0-.43.77 1 1 0 0 1 .53 0 8 8 0 0 0 1.2.36c.33 0 .67-.42 1.47-.41s1.13.45 1.46.43a8 8 0 0 0 1.17-.3.9.9 0 0 1 .53 0 1.12 1.12 0 0 0-.51-.84s.45-.89.52-1a.58.58 0 0 1 .53-.41L11.2.53Z" data-name="Layer 1"/></g></svg>