<svg xmlns="http://www.w3.org/2000/svg" viewBox="0 0 11.19 9"><g data-name="Layer 2"><path fill="#f79d1f" d="M8.25 3.35a7.63 7.63 0 0 1-1.17.37c-.33 0-.66-.45-1.46-.45s-1.14.46-1.47.43a7.84 7.84 0 0 1-1.2-.38c-.79-.21-.83.18-.57.73A34 34 0 0 1 3.14 9h.38c-.13-1.44-.3-3.93-.52-4.75.94-.13 1.16.39 1.19.75v1.9c0 .35.06 1.72.08 2.11h.53c-.1-1.44-.18-3.76-.19-3.94a.74.74 0 0 1 .11-.43.71.71 0 0 1 .2-.21.69.69 0 0 1 .45-.18h.23c.86 0 1 .43 1 .82 0 .08-.08 2.43-.17 3.93h.39C6.89 7.51 7 5.17 7 5a.7.7 0 0 1 .15-.36.79.79 0 0 1 .15-.15 1 1 0 0 1 .22-.11h.75c-.22 0-.56 4.46-.57 4.57V9h.34a33.71 33.71 0 0 1 .75-4.9c.29-.52.21-.95-.54-.75ZM11.15 0l-2 .14a1 1 0 0 0-.82.54l-.52 1.17h-.05a1.11 1.11 0 0 0-1.07-1h-.06A1.1 1.1 0 0 0 5.6 0a1.1 1.1 0 0 0-1 .84h-.2a1.1 1.1 0 0 0-1 .89L2.85.7A1 1 0 0 0 2 .16L0 0v.5l1.92.1a.58.58 0 0 1 .53.4l.45 1a1.18 1.18 0 0 0-.49.82 1 1 0 0 1 .53 0 8.13 8.13 0 0 0 1.2.36c.33 0 .67-.42 1.47-.41s1.13.45 1.46.43a7.92 7.92 0 0 0 1.18-.3.92.92 0 0 1 .53 0 1.18 1.18 0 0 0-.5-.9l.46-1a.58.58 0 0 1 .53-.42l1.92-.1Z" data-name="Layer 1"/></g></svg>