<svg xmlns="http://www.w3.org/2000/svg" viewBox="0 0 218.55 384.66"><defs><clipPath id="a"><path fill="none" d="m100.794 104.51 15.59-96.044 96.043 15.59-15.59 96.043z"/></clipPath><clipPath id="b"><path fill="none" d="m100.781 104.459 14.272-88.213 98.983 16.014-14.272 88.213z"/></clipPath><clipPath id="c"><path fill="#bfced3" d="m5.227 98.202 63.815-15.959L85 146.058l-63.815 15.959z"/></clipPath><clipPath id="d"><path fill="none" d="m86.92 145.52-65.76 16.47L5.1 98.24l65.76-16.47z"/></clipPath></defs><g data-name="Layer 2"><g data-name="Layer 1"><path fill="#fff" d="M92.7 129.16 112.66.57l105.32 17.24-20.02 127.83z"/><path fill="#b3b3b3" d="m113.08 1.15 104.33 17.07-19.87 126.85-104.27-16.32zM112.24 0l-.15 1-19.81 127.59-.15 1 1 .15 104.27 16.32 1 .15.15-1 19.84-126.83.15-1-1-.16L113.24.16z"/><path fill="#26dce1" d="m100.795 104.486 15.59-96.043 96.043 15.59-15.59 96.043z"/><g clip-path="url(#a)"><path fill="#ff79b1" d="M132.4 131.66a1.83 1.83 0 0 0-.64 1.14l-.25 1.57s.25 1.63 4.06 2.56c0 0 4.94 1.42 8.51-.53a2.63 2.63 0 0 0 1.26-1.87l.27-2.31s.09-1.29-1.17-1.06Z"/><path fill="#fff" d="M146.27 124.72c-1.55.54-4.09-.2-5.49-.43-3.52-.58-4.05-1.72-4.05-1.72-.47 3-.86 5.63-1.14 6.79a18 18 0 0 0-2.11 1.07c-2.47 1.58-.92 3.77 3 4.55 5.58.88 8.31-.71 8.6-1.91.15-.47-.02-.07 1.19-8.35"/><path fill="#ff79b1" d="M160.56 136.11a1.83 1.83 0 0 1 .26 1.28l-.25 1.57s-.74 1.48-4.66 1.18c0 0-5.14-.18-7.94-3.13a2.63 2.63 0 0 1-.62-2.17l.45-2.28a.94.94 0 0 1 1.44-.65Z"/><path fill="#fff" d="M148.07 133.55c-.09 1.23 2 3.58 7.6 4.47 4 .48 6.12-1.13 4.26-3.4a18 18 0 0 0-1.67-1.67c.09-1.19.53-3.81 1-6.81 0 0-.86.92-4.39.39-1.41-.21-4.05-.29-5.36-1.28-1.41 8.26-1.44 7.75-1.44 8.3"/></g><g clip-path="url(#b)"><path fill="#ffe626" d="M51.87 136.46 114.74 172l58.67-104.22-.14-.08c3.19-6.3-8-19.11-25.13-28.79s-33.88-12.58-37.63-6.6Z"/><path fill="#3dcdf0" d="m56 139.76 54.18 30.66 61.19-108.77S160.92 47 146.84 39s-29.7-8-29.7-8Z"/><path fill="#fff" d="M125.57 74.57a7.6 7.6 0 1 1-2.89-10.36 7.6 7.6 0 0 1 2.89 10.36"/><path fill="#ff3042" d="M120.85 72a2.22 2.22 0 1 1-.85-3 2.23 2.23 0 0 1 .85 3"/><path fill="#fff" d="M142.23 84a7.6 7.6 0 1 1-2.89-10.36A7.6 7.6 0 0 1 142.23 84"/><path fill="#ff3042" d="M137.51 81.37a2.22 2.22 0 1 1-.85-3 2.23 2.23 0 0 1 .85 3"/><path fill="#260a17" d="M175.87 75c5.71-25.14-19.08-38.94-22.72-41.34-3-1.86-31.12-18-50.54-.12 0 0-18.22 17.52-26.52 34.9-5.14 10.77-6.3 21.39 1.47 27.14 0 0 7.12 5.19 12.49.49 0 0-7.87-5.23 22.59-40.61l39.27 22.22C137.27 122.07 128.73 118 128.73 118c-1.27 7 6.85 10.45 6.85 10.45 8.93 3.7 17.44-2.76 24-12.71C170.24 99.69 175.87 75 175.87 75"/><path fill="#ff3042" d="M120.86 103a3.37 3.37 0 0 1-4.59 1.27l-8.4-4.75a3.37 3.37 0 0 1-1.27-4.59 3.37 3.37 0 0 1 4.59-1.27l8.4 4.75a3.37 3.37 0 0 1 1.27 4.59"/><path fill="#b10000" d="m108.88 97.032.498-.88 8.895 5.033-.498.88z"/></g><path fill="#fff" d="m.61 94.17 70.33-17.48 21.76 85.06-70.09 17.94z"/><path fill="#b3b3b3" d="m70.58 77.3 21.52 84.09L23 179.08 1.22 94.54zm.72-1.21-1 .24L1 93.57l-1 .24.25 1L22 179.33l.25 1 1-.25 69.12-17.69 1-.25-.25-1L71.55 77l-.25-1Z"/><path fill="#bfced3" d="m5.227 98.202 63.815-15.959L85 146.058l-63.815 15.959z"/><g fill="#ca00b3" clip-path="url(#c)"><path d="M48.05 170.45a1.24 1.24 0 0 0-.09.88l.27 1s.59.95 3.21.51c0 0 3.45-.44 5.15-2.6a1.78 1.78 0 0 0 .28-1.5l-.45-1.51a.64.64 0 0 0-1-.35Z"/><path d="M54.81 162.44c-.82.75-2.59 1-3.53 1.2-2.34.58-3 0-3 0 .51 2 1 3.73 1.1 4.52a12 12 0 0 0-1 1.23c-1.11 1.64.43 2.59 3.08 2 3.7-.94 5-2.66 4.84-3.48-.03-.31-.02.01-1.49-5.47m11.93 3.26a1.24 1.24 0 0 1 .5.73l.27 1s-.07 1.12-2.58 2c0 0-3.24 1.26-5.76.18a1.78 1.78 0 0 1-1-1.18l-.33-1.54s-.14-.86.72-.79Z"/><path d="M58.29 167.44c.27.79 2.21 1.69 5.91.75 2.6-.77 3.5-2.34 1.74-3.25a12 12 0 0 0-1.48-.59c-.26-.76-.69-2.51-1.19-4.5 0 0-.29.8-2.62 1.41-.93.25-2.59.9-3.67.63 1.32 5.52 1.18 5.23 1.31 5.55"/></g><g clip-path="url(#d)"><path fill="#fff" d="M60.24 108.92a20.63 20.63 0 0 1 13.47 13.45c4.29 12.26-.53 22.63-11.15 28.34 2.54 1.54 5.42 4.54 6.89 10.41a1.65 1.65 0 1 1-3.2.8l-.14-.51-.21.05a1 1 0 1 1-.51-2h.06c-1.75-4.49-4-5.74-5.81-6.47 1.62 5.58 5.13 17 5.14 17 .23.91-.85 1.29-1.76 1.51s-2.36.56-2.6-.33l-1.32-4.51c-.45-1.58-1.18-2.75-2.79-2.35s-1.61 1.66-1.37 3.21l.88 4.62c.2.9-.66 1.38-1.55 1.6s-2.72 1.08-2.94-.94c0 0-2.7-13.26-3.61-17-1.28 1.5-2.81 3.64-2.21 8.62h.06a1 1 0 0 1 .51 2l-.21.05.13.53a1.65 1.65 0 1 1-3.2.8c-1.52-6.05-.28-10.12 1.31-12.67-11.18-.43-20.84-6.85-23-19.58-1.33-7.92 1.11-13.91 5.26-18.27a25.3 25.3 0 0 1 5.08-4.1 36.9 36.9 0 0 1 10.55-4.4 37.6 37.6 0 0 1 12-1.08 27.8 27.8 0 0 1 6.24 1.22"/><path fill="#fff" d="m17.22 106.8 9.39 18.33 7.42-8.65z"/><circle cx="15.25" cy="104.57" r="5.17" fill="#fff" transform="rotate(-14.07 15.27 104.596)"/><path fill="#edf0ed" d="M12.52 102.67a4.8 4.8 0 0 0-2.21 1.24 4.84 4.84 0 0 0 8.18 4.14 4.84 4.84 0 0 0-6-5.38Z"/><path fill="#fff" d="m63.93 95.09.37 20.59-10.59-2.93z"/><circle cx="64.62" cy="92.19" r="5.17" fill="#fff" transform="rotate(-14.07 64.636 92.219)"/><path fill="#ebffff" d="M40.18 90c-1.38.67-.57 3.21.28 5.9.93 2.93 2 6.26.2 7.25a1.15 1.15 0 0 1-1.1.11c-1.18-.56-1.69-3.42-2-5.31a15 15 0 0 0-.31-1.52c-.49-1.57-2.58-4.61-4-4.47-.67.06-1.08.73-1.22 2a13.1 13.1 0 0 0 .65 4c.69 2.69 1.47 5.73-.16 7a1.64 1.64 0 0 1-1.46.45c-1-.32-1.71-2.25-2.4-4.29-.78-2.3-1.6-4.69-3.14-5.29a2.59 2.59 0 0 0-2.22.28c-.66.88-.1 2.57.48 4.36.5 1.54 1 3.13.69 4.06-.43 1.2-.85 1.84-1.24 1.9s-.88-.52-1.32-1.08a4.7 4.7 0 0 0-1.21-1.21l-.15.28a4.5 4.5 0 0 1 1.11 1.13c.53.67 1 1.3 1.62 1.2s1-.76 1.49-2.11a4.3 4.3 0 0 0-.11-2.35c-.16-.62-.37-1.27-.58-1.92s-.41-1.26-.56-1.85a2.92 2.92 0 0 1 0-2.2 2.24 2.24 0 0 1 1.81-.32c1.4.55 2.19 2.86 3 5.09s1.4 4.12 2.61 4.49a1.93 1.93 0 0 0 1.75-.5c1.8-1.38 1-4.54.28-7.32a13 13 0 0 1-.65-3.86c.08-.74.31-1.63.93-1.69 1.18-.11 3.2 2.61 3.71 4.25.1.31.19.85.3 1.48.37 2.07.87 4.91 2.2 5.54a1.46 1.46 0 0 0 1.39-.12c2-1.12.92-4.58 0-7.62-.81-2.56-1.57-5-.44-5.52a1 1 0 0 1 .92 0c1 .47 1.68 2.75 2.1 4.26a9 9 0 0 0 .5 1.52c.22.39 2 2.63 2.74 2.7a1.38 1.38 0 0 0 1.21-.33c.46-.49.3-1.38.17-2.16l-.1-.68c-.15-1.9.28-3.49 1-3.7.35-.1 1.09 0 2.21 2.17a11 11 0 0 1 .49 1.22c.43 1.19.87 2.42 1.65 2.54.43.06.87-.22 1.36-.88a4.9 4.9 0 0 0 .41-2.6c0-1.07 0-2.18.48-2.48a1 1 0 0 1 1 .09 3.4 3.4 0 0 1 .76 1c.54.84 1.15 1.79 1.9 1.77.41 0 .78-.29 1.14-.88l-.35-.21c-.29.48-.58.73-.87.73-.57 0-1.16-.9-1.63-1.63a3.1 3.1 0 0 0-.89-1.08 1.3 1.3 0 0 0-1.27-.07c-.61.39-.62 1.53-.62 2.74a4.9 4.9 0 0 1-.34 2.41c-.4.54-.76.8-1.06.75-.59-.09-1-1.33-1.4-2.33a11 11 0 0 0-.51-1.26c-1.16-2.21-2-2.48-2.58-2.33-.89.26-1.4 1.92-1.23 4l.1.71c.12.71.26 1.51-.09 1.89a1.11 1.11 0 0 1-1 .23c-.49 0-2.21-2-2.49-2.54a9 9 0 0 1-.47-1.46c-.46-1.66-1.1-3.93-2.28-4.46a1.35 1.35 0 0 0-1.19.13"/><path fill="#ff8881" d="M48.8 148.68v-.63s3.91.12 6-1.74l.42.47c-2.22 2.03-6.22 1.91-6.42 1.9"/><circle cx="43.02" cy="111.57" r=".42" fill="#c7cac7" transform="rotate(-14.07 43.04 111.56)"/><circle cx="43.91" cy="115.12" r=".42" fill="#c7cac7" transform="rotate(-14.07 43.916 115.124)"/><circle cx="44.8" cy="118.68" r=".42" fill="#c7cac7" transform="rotate(-14.07 44.792 118.688)"/><circle cx="45.69" cy="122.24" r=".42" fill="#c7cac7" transform="rotate(-14.07 45.71 122.256)"/><circle cx="46.59" cy="125.79" r=".42" fill="#c7cac7" transform="rotate(-14.07 46.586 125.82)"/><circle cx="47.48" cy="129.35" r=".42" fill="#c7cac7" transform="rotate(-14.07 47.467 129.342)"/><path fill="#edf0ed" d="M23 125.42s-6.13 22.15 16.23 28.41a28.35 28.35 0 0 0 14.27-.66s-18.59 2.6-24.83-16.8a16.9 16.9 0 0 1-.57-7.76 58 58 0 0 1-5.1-3.19"/><path fill="#ff8881" d="M22.82 141.5a22.1 22.1 0 0 0 5.8 8.06l1.12-.45a19.36 19.36 0 0 1-5.9-8.13Zm6.62-3.09a24.3 24.3 0 0 0 5.68 8.68 172 172 0 0 1 39-9.11 22 22 0 0 0 1.07-8.87c-17.73-1.36-36.19 5.2-45.75 9.3"/><path fill="#ff6f6f" d="M23.84 141a19.36 19.36 0 0 0 5.9 8.13q2.72-1.08 5.38-2a24.3 24.3 0 0 1-5.68-8.68c-2.58 1.06-4.51 1.99-5.6 2.55"/><ellipse cx="39.4" cy="139.96" fill="#e13519" rx="3.92" ry="4.21" transform="rotate(-14.07 39.408 139.989)"/><ellipse cx="59.46" cy="134.93" fill="#e13519" rx="3.92" ry="4.21" transform="rotate(-14.07 59.487 134.939)"/><circle cx="38.69" cy="137.82" r=".67" fill="#fff" transform="rotate(-14.07 38.685 137.843)"/><circle cx="59.38" cy="132.64" r=".67" fill="#fff" transform="rotate(-14.07 59.398 132.666)"/><path fill="#edf0ed" d="M62.11 90.07a4.8 4.8 0 0 0-2.21 1.24 4.84 4.84 0 0 0 8.18 4.14 4.84 4.84 0 0 0-6-5.38Z"/></g><path fill="#ff0097" d="M135.93 302c10.51 1.31 26-1.06 39.63-13.4 2.1-1.91 6.12-5.39 4.2-9.86-1.13-2.62-3.53-4.87-5.54-2.85-.63.63-1.28 1.23-1.93 1.85-.35-1-1.2-2.09-1.84-2.22-1.52-.26-2 5.42-2.71 6.13-4.6 9.15-25 11.06-31.73 10Z"/><path fill="#ff0097" d="M143.23 293.56a55.29 55.29 0 0 0 26.71-47.14c0-30.71-25.38-50-56.68-50s-56.68 19.28-56.68 50a55.3 55.3 0 0 0 26.46 47c-8.37 6.5-17.64 19.15-18.55 37.49-.14 2.84-.52 8.13 4 9.95 2.65 1.06 5.93.95 5.93-1.89 0-.89 0-1.78.06-2.67a3.8 3.8 0 0 0 2.87.27c1.26-.89-2.4-5.27-2.42-6.26-3.22-9.73 9.85-25.49 15.4-29.48 0 0 .13 62.53.19 62.87-5.29.24-18.17 1.57-17.23 9 0 0 .87 3.49 4.06 4.35 0 0-3.77 2.62-1.16 4.65 0 0 3.78 3.77 11.91-1.17l10.75-4.93s4.36-1.74 3.78-8.43v-15.86a11.13 11.13 0 0 1 22-.67v16.5c-.58 6.68 3.77 8.43 3.77 8.43l10.75 4.93c8.13 4.94 11.9 1.17 11.9 1.17 2.62-2-1.16-4.65-1.16-4.65 3.19-.86 4.07-4.35 4.07-4.35.92-7.39-11.94-8.73-17.24-9 .06-.35.2-62.63.2-62.63 1.08-5.11 6.31-7.48 6.31-7.48"/><path fill="#ca00b3" d="M136.28 303.07a47.88 47.88 0 0 0 38.55-13l-8-8s-16.08 11.69-29.78 9Zm-7.21-107.4s3.65-7.64 5-8.11a25.8 25.8 0 0 1-3.38 10.86Zm-5.88 3.86s-.56-8.67.85-13.16c0 0 2.74 7.15 2.75 12.36Zm-4.76.83s-.56-8.67.85-13.17c0 0 2.74 7.16 2.75 12.36ZM105 198.77s-.82-8.62.45-13.22c0 0 3 6.93 3.12 12.13Zm-17.24 1.78s-.82-8.62.45-13.22c0 0 3 6.93 3.12 12.13Z"/><path fill="#ca00b3" d="M91.37 201s-.82-8.62.45-13.21c0 0 3 6.93 3.12 12.13Zm13.18-2.54s-3.08-7.16-3.19-12.2c0 0 4.54 4.14 6.1 8.69Z"/><path fill="#ca00b3" d="M102.76 201.24s-3.08-7.16-3.19-12.2c0 0 4.54 4.14 6.1 8.69ZM96.8 203s-3.08-7.16-3.18-12.2c0 0 4.54 4.14 6.1 8.69Zm29.2-5.71s3.23-8.09 5.93-11.25c0 0-.11 8.05-1.93 11.67Zm-17.67-.04s-1.66-8.55-1.09-12.67c0 0 4.26 6.83 4.69 10.86Z"/><path fill="#ca00b3" d="M96.74 201.84s-2-8.07-1.47-13c0 0 3.87 5.63 4.78 10.62Zm17.97-3.68s1-8.57 3.14-12.23c0 0 1.36 8.12.45 13.11Z"/><path fill="#ca00b3" d="M97.38 198.58s-.79-8.62.49-13.21c0 0 2.93 7 3.08 12.15Zm-32.22 57.65s-8.28 2.54-13 2.21c0 0 6.2-4.29 11.26-5.49Zm-2.73-12.69S56 248 51.12 249.11c0 0 3.14-5.28 7.29-7.72Z"/><path fill="#ca00b3" d="M63.14 245s-6.4 4.46-11.31 5.57c0 0 3.14-5.28 7.29-7.72Zm2.95 5.5s-6.4 4.46-11.31 5.57c0 0 3.14-5.27 7.29-7.72Z"/><path fill="#ca00b3" d="M64.93 250.79s-7.5 3.62-12.46 4.06c0 0 4.74-4.93 9.45-6.82Z"/><path fill="#ca00b3" d="M61.61 250.83s-8.29 2.51-13 2.17c0 0 6.22-4.27 11.29-5.46Zm6.91 17s-7.88 3.58-12.64 3.87c0 0 5.59-5 10.46-6.9Zm5.14 7.23s-6.56 5.65-11 7.27c0 0 4-6.42 8.1-9.55Z"/><path fill="#ca00b3" d="M69.29 269.3s-6.56 5.65-11 7.27c0 0 4-6.42 8.1-9.55Zm9.34 12.91s-6.56 5.65-11 7.27c0 0 3.95-6.42 8.1-9.55Zm-14.44-26.62s-5.77 5.24-10.5 7c0 0 2.44-5.64 6.24-8.59Z"/><path fill="#ca00b3" d="M65.08 257s-5.77 5.24-10.5 7c0 0 2.44-5.64 6.24-8.59Zm3.63 5s-5.77 5.24-10.5 7c0 0 2.44-5.64 6.24-8.6Z"/><path fill="#ca00b3" d="M67.6 262.46s-7 4.55-11.84 5.62c0 0 4.06-5.49 8.49-8Z"/><path fill="#ca00b3" d="M64.31 262.92s-7.9 3.55-12.65 3.83c0 0 5.62-5 10.49-6.87Zm8.14 12.92s-7.9 3.56-12.66 3.83c0 0 5.62-5 10.49-6.87Zm11.75 9.58s-7.15 4.89-11.78 6c0 0 4.65-5.94 9.12-8.61Zm-21.8-44.76s-7.83-3.7-11.13-7.14c0 0 7.48 1 12 3.52Zm1.46-9.38s-8.66.23-13.15-1.36c0 0 7.13-2.47 12.33-2.28Z"/><path fill="#ca00b3" d="M64.66 261.69s-8.66.23-13.15-1.36c0 0 7.13-2.47 12.33-2.28Zm7.07 10.55s-7.46 4.4-12.16 5.19c0 0 5-5.62 9.68-8ZM77.1 280s-7.46 4.39-12.16 5.19c0 0 5-5.62 9.68-8Zm-8.55-10.94s-7.46 4.4-12.16 5.19c0 0 5-5.62 9.68-8Zm15.04 15.2s-4.83 7.19-8.72 9.94c0 0 2.11-7.24 5.28-11.38ZM82 279.69s-4.83 7.19-8.72 9.94c0 0 2.11-7.24 5.28-11.37Z"/><path fill="#ca00b3" d="M86 285.46s-4.83 7.19-8.72 9.94c0 0 2.11-7.24 5.28-11.38Zm-6.59-4.57s-4.83 7.19-8.72 9.94c0 0 2.11-7.24 5.28-11.38Z"/><path fill="#ca00b3" d="M77.12 278.77s-5.88 6.35-10.15 8.47c0 0 3.21-6.83 7-10.42Zm-2.98-2.59s-5.88 6.36-10.15 8.47c0 0 3.21-6.83 7-10.42Zm-10.48-40.07s-8.45-1.89-12.42-4.52c0 0 7.52-.65 12.52.8Zm-.79 14.31s-8.45-1.89-12.42-4.52c0 0 7.52-.66 12.52.8Zm24.54-44.97s-4.66-7.3-5.62-12c0 0 5.79 4.84 8.31 9.39Zm38.92-7.11s-.8-8.62.49-13.21c0 0 2.93 7 3.08 12.16Zm-7.1-2.74s1-8.57 3.14-12.23c0 0 1.36 8.12.46 13.11Zm-11.32 0s1-8.57 3.14-12.23c0 0 1.37 8.12.45 13.11Z"/><path fill="#ca00b3" d="M110.23 198.07s1-8.57 3.14-12.22c0 0 1.36 8.12.45 13.11Z"/><path fill="#ca00b3" d="M112.78 195.33s1-8.57 3.14-12.23c0 0 1.36 8.12.46 13.11Zm-33.19 7.82s1.39-6 4.2-7.42c0 0 1.65 7.11.42 10.38Z"/><path fill="#ca00b3" d="M80.71 207.12s-6-6.29-7.8-10.64c0 0 6.7 3.73 10 7.71Zm-2.02 5.51s-6-6.29-7.8-10.64c0 0 6.69 3.73 10 7.71Zm-11.35 7.44s-6.16-6.07-8.14-10.42c0 0 6.71 3.42 10.18 7.3Zm-4.18 9.58s-8.42-2-12.35-4.72c0 0 7.51-.54 12.49 1Z"/><path fill="#ca00b3" d="M66.79 220.36s-7-3.51-10.27-7.31c0 0 6.13.26 10.26 2.75Z"/><path fill="#ca00b3" d="M67.25 223.37s-7-3.52-10.27-7.31c0 0 6.14.26 10.26 2.75Zm-3.43 5.2s-7-3.51-10.27-7.31c0 0 6.13.26 10.26 2.75Zm14.7-26.3s-.73-7.07 1.08-9.7c0 0 3.54 7.23 3.56 11.28Z"/><path fill="#ca00b3" d="M63 227.7s-6.75-4.88-9.49-9c0 0 6.58 1.83 10.49 5.07Zm.31 14.64s-8.34 2.32-13.09 1.88c0 0 6.3-4.13 11.39-5.2Z"/><path fill="#ca00b3" d="M63.37 241.07s-7.79.32-12.53-1.39c0 0 5.49-2.76 10.3-2.59Z"/><path fill="#ca00b3" d="M62.24 240.7s-8.27-1-12.69-3.28c0 0 6.64-1.6 11.63-.67Zm96.16-19.22s3.13-7.14 6.73-10.66c0 0 .08 6.14-2.18 10.39Zm-8.81-10.02s5.46-5.56 10.08-7.57c0 0-2.11 5.77-5.73 8.94ZM128.19 200s4.09-6.64 8.14-9.62c0 0-.77 6.09-3.6 10Z"/><path fill="#ca00b3" d="M157 220.59s3.13-7.14 6.73-10.66c0 0 .08 6.14-2.18 10.4Zm-11.23-12.32s5.42-5.6 10-7.65c0 0-2.06 5.78-5.66 9Zm6.91 6.73s4.5-7 8.5-10c0 0-1.46 6.67-4.49 10.75Z"/><path fill="#ca00b3" d="M155.3 214.84s5.76-6.47 10-8.67c0 0-3.08 6.89-6.77 10.55Z"/><path fill="#ca00b3" d="M154.43 215.84s8.19-2.8 13-2.63c0 0-6.07 4.49-11.09 5.86Zm3.85 7.16s5.9-6.34 10.18-8.44c0 0-3.22 6.81-7 10.39Z"/><path fill="#ca00b3" d="M158.9 224.08s6.48-4.34 11.41-5.37c0 0-3.24 5.22-7.43 7.59Z"/><path fill="#ca00b3" d="M160.05 223.8s7.56-3.48 12.53-3.83c0 0-4.82 4.84-9.57 6.65Zm-19.13-18.16s1.15-7.71 3.7-12.05c0 0 1.69 5.9.62 10.6Z"/><path fill="#ca00b3" d="M139.36 205.15s1.15-7.71 3.7-12c0 0 1.68 5.91.62 10.6Zm-5.43-2.66s2.5-7.94 5.59-11.85c0 0 .34 6.82-1.51 11.55Z"/><path fill="#ca00b3" d="M136.19 200.05s3.86-7.75 7.36-11c0 0-1.16 7.45-3.76 12Z"/><path fill="#ca00b3" d="M135.61 201.24s7.17-4.85 11.81-5.94c0 0-4.68 5.92-9.16 8.56Z"/><path fill="#ca00b3" d="M131.45 202.4s3.06-8.1 6.22-11.67c0 0-.4 7.54-2.54 12.28Zm10.84 1.06s4-7.66 7.61-10.82c0 0-1.32 7.42-4 11.86Z"/><path fill="#ca00b3" d="M142.08 204.84s5.11-5.89 9.6-8.17c0 0-1.75 5.88-5.18 9.27Z"/><path fill="#ca00b3" d="M143.33 205.86s6.38-5.35 11.09-7c0 0-3.39 5.93-7.49 8.93ZM157.25 269s7.6 1.75 11.72 4.65c0 0-6 1.21-10.62-.22Z"/><path fill="#ca00b3" d="M157.87 267.45s7.6 1.76 11.72 4.65c0 0-6 1.21-10.62-.23Zm3.08-6.57s7.71 3.13 11.37 6.52c0 0-6.83-.21-11.39-2.42Z"/><path fill="#ca00b3" d="M161 263s7.42 4.46 10.36 8.21c0 0-7.34-1.75-11.63-4.7Z"/><path fill="#ca00b3" d="M162.06 264s4.27 7.53 5 12.24c0 0-5.53-5.14-7.81-9.81Zm-6.29 5.12s7.32 4.62 10.18 8.44c0 0-7.29-1.9-11.5-5Z"/><path fill="#ca00b3" d="M154.79 269.94s5.46 5.56 7.38 10.22c0 0-5.73-2.22-8.83-5.9Z"/><path fill="#ca00b3" d="M155.27 271s4.82 6.79 6.08 11.61c0 0-5.65-3.85-8.3-8.17Zm-8.13 6.67s6.42 4.42 9.19 8.62c0 0-6-1.08-9.79-4.1Z"/><path fill="#ca00b3" d="M148.27 276.48s6.42 4.42 9.19 8.62c0 0-6-1.08-9.79-4.1Zm4.73-3.71s6 5.74 8.18 10.23c0 0-6.28-2.7-9.71-6.44Z"/><path fill="#ca00b3" d="M154.24 275.88s5.27 6.87 6.63 11.44c0 0-6.19-4.32-9.09-8.64Zm-5.56 3.37s5.27 6.87 6.63 11.44c0 0-6.19-4.32-9.09-8.64ZM162.35 258s7.53 4.27 10.57 7.95c0 0-7.38-1.56-11.74-4.41Zm1.57-6s8.17 2.89 11.8 6c0 0-7.54-.25-12.33-2.29Z"/><path fill="#ca00b3" d="M163.25 256.94s8.17 2.89 11.8 6c0 0-7.54-.25-12.33-2.28Zm-14.92-47.7s6.2-6 10.58-7.93c0 0-3.56 6.65-7.51 10Zm5.09 65.6s1.2 8.58.14 13.22c0 0-3.26-6.81-3.66-12Zm-7.72 2.43s5.11 7 6.37 11.59c0 0-6.08-4.44-8.88-8.83Z"/><path fill="#ca00b3" d="M144.49 277.66s3 7.18 3.12 12.22c0 0-4.52-4.16-6.05-8.73Z"/><path fill="#ca00b3" d="M144.54 278.85s2 8.08 1.39 13c0 0-3.84-5.65-4.72-10.65ZM160.4 253s8.28 2.54 13 2.21c0 0-6.2-4.29-11.26-5.49Zm2.73-10.95s6.4 4.46 11.31 5.57c0 0-3.14-5.28-7.29-7.72Z"/><path fill="#ca00b3" d="M162.42 243.53s6.4 4.46 11.31 5.57c0 0-3.14-5.28-7.29-7.72Zm-1.79 5.77s7.5 3.62 12.46 4.05c0 0-4.74-4.92-9.45-6.82Z"/><path fill="#ca00b3" d="M164 249.34s8.29 2.51 13 2.17c0 0-6.23-4.27-11.29-5.46Zm-.84-10.17s7.83-3.7 11.13-7.14c0 0-7.48 1-12 3.52Zm-1.46-9.38s8.66.23 13.15-1.36c0 0-7.13-2.47-12.33-2.28Zm1.37 15.35s8.66.23 13.15-1.36c0 0-7.13-2.47-12.33-2.28Zm-2.17 15.06s8.66.23 13.15-1.35c0 0-7.13-2.47-12.33-2.28Zm1-25.57s8.45-1.89 12.42-4.53c0 0-7.52-.65-12.52.8Z"/><path fill="#ca00b3" d="M162.69 248.93s8.45-1.89 12.42-4.52c0 0-7.52-.65-12.52.8Zm-.29-20.76s8.41-2 12.35-4.72c0 0-7.52-.54-12.49 1Zm2.31 12.41s8.34 2.32 13.09 1.88c0 0-6.31-4.13-11.39-5.2Z"/><path fill="#ca00b3" d="M162.19 239.58s7.79.31 12.53-1.39c0 0-5.49-2.76-10.3-2.59Z"/><path fill="#ca00b3" d="M163.32 239.21s8.27-1 12.69-3.28c0 0-6.64-1.61-11.63-.67Zm-88.9-25.87S69.68 206.14 69 202c0 0 6.26 5.35 8.77 9.76Zm-13.01 11.44s-6.15-6.1-8.11-10.44c0 0 6.71 3.45 10.17 7.34Zm22.4-21.02s-6.15-6.1-8.11-10.44c0 0 6.71 3.45 10.17 7.34Zm-8.65 2.89s-4.74-7.21-5.44-11.39c0 0 6.26 5.35 8.77 9.76Zm-7.59 9.09s-4.74-7.2-5.44-11.39c0 0 6.26 5.35 8.77 9.76Zm21.27-13.11s-4.74-7.21-5.44-11.39c0 0 6.26 5.35 8.77 9.76Z"/><path fill="#ca00b3" d="M70.94 216.14s-4.74-7.21-5.44-11.39c0 0 6.26 5.35 8.77 9.77Z"/><path fill="#ca00b3" d="M69.61 219s-6.17-6-7.76-10c0 0 7.26 3.88 10.66 7.65Zm1.52-6.59s-4.74-7.21-5.45-11.41c0 0 6.26 5.35 8.77 9.76Zm73.98 81.04c12.34-8.66-73.89-6.46-63-.52A47.88 47.88 0 0 0 64 329.36h11.35s3.1-19.64 14.73-27.39l-.26 60.2s1.29 3.1 7.49 3.1c0 0 4.13 0 5.68-2.84l.26-8.53s-.24-10.33 10.08-10.83c10.32.5 10.08 10.83 10.08 10.83l.26 8.53c1.55 2.84 6.46 3.1 6.46 3.1 6.72 0 7.49-3.36 7.49-3.36l-.26-60.2c4.41-5.1 7.75-8.52 7.75-8.52"/><path fill="#ca00b3" d="M110.9 290.8h4.9v.77h-4.9z"/><path fill="#ca00b3" d="M170.47 247c0 30.28-25.64 54.82-57.27 54.82S55.93 277.28 55.93 247s21.64-53.1 57.27-53.1c34.64 0 57.27 22.83 57.27 53.1m-78.8 113.8s-29.61 3.9-17.57 16.27c0 0-1 12.36 14 5.53a51 51 0 0 0 5.53-2.28c2.42-1.21 4.27-2.63 6.51-3.9 0 0 6.18-2.93 2.93-15Zm43.59 0s29.61 3.9 17.57 16.27c0 0 1 12.36-14 5.53a51 51 0 0 1-5.53-2.28c-2.42-1.21-4.27-2.63-6.51-3.9 0 0-6.18-2.93-2.93-15Z"/><path fill="#ca00b3" d="M117.39 294.82s1.95 8.43 1.29 13.16c0 0-3.84-6.48-4.69-11.62Zm-12.03-.37s4 6.7 4.76 11.67c0 0-5-3.51-7.19-7.82Z"/><path fill="#ca00b3" d="M107.16 293.3s4 6.69 4.76 11.67c0 0-5-3.51-7.19-7.82Zm6.16.81s3.08 7.73 3.17 12.71c0 0-4.58-5.07-6.14-9.9Z"/><path fill="#ca00b3" d="M112.84 295.24s1.92 8.44 1.25 13.16c0 0-3.82-6.51-4.65-11.65Zm6.57-.01s1.77 7.59 1 12.57c0 0-3.74-4.87-4.48-9.63Z"/><path fill="#ca00b3" d="M124.17 295.15s-.38 8.65-2.28 13c0 0-2-7.28-1.41-12.46Zm-11.36 1s-2.48 8.29-5.39 12.07c0 0-.13-7.55 1.68-12.43Zm-8.04-1.02s1.73 8.48 1 13.19c0 0-3.67-6.58-4.39-11.73Z"/><path fill="#ca00b3" d="M103.51 295s-.24 7.79-2.26 12.4c0 0-2.37-5.67-1.86-10.46Z"/><path fill="#ca00b3" d="M102.11 292.09s-2.33 8.34-5.16 12.17c0 0-.27-7.53 1.44-12.44Zm-12.16-4.55s.3 7.79-1.41 12.53c0 0-2.75-5.49-2.57-10.3Z"/><path fill="#ca00b3" d="M86.66 286.44s.3 7.79-1.41 12.53c0 0-2.75-5.49-2.57-10.3Zm4.92 1.3s.3 7.79-1.41 12.53c0 0-2.75-5.49-2.57-10.31Zm6.1 4.34s-1 8.27-3.3 12.68c0 0-1.59-6.64-.65-11.63Z"/><path fill="#ca00b3" d="M95.64 292.16s-2.35 8.33-5.2 12.15c0 0-.24-7.54 1.49-12.45Zm5.36.4s1.3 7.69.22 12.6c0 0-3.43-5.09-3.88-9.89Z"/><path fill="#ca00b3" d="M106.43 295.45s-4.47 7.42-8.23 10.35c0 0 1.76-7.33 4.73-11.62Zm-13.19-2.37s-6.15 6.1-10.51 8c0 0 3.5-6.69 7.42-10.11Zm-6.3-6.38s-2.54 8.28-5.47 12c0 0-.08-7.53 1.76-12.4Z"/><path fill="#ca00b3" d="M88.37 285.42s-3.93 6.73-7.92 9.8c0 0 .63-6.11 3.37-10.07Zm54.3-2.06s5.69 6.52 7.34 11c0 0-6.44-3.91-9.61-8ZM132.19 291s6.68 4 9.7 8c0 0-6.1-.71-10-3.5Z"/><path fill="#ca00b3" d="M136.62 288.33s5.16 5.84 6.83 10.59c0 0-5.6-2.52-8.51-6.36Zm3.38-2.27s6.37 5.37 8.79 9.72c0 0-6.43-2.31-10.08-5.84Z"/><path fill="#ca00b3" d="M139.18 287.72s5.67 6.54 7.31 11c0 0-6.44-3.94-9.59-8.08Zm3.3-3.21s7.14 3.13 10.65 6.74c0 0-6.14.07-10.39-2.19Z"/><path fill="#ca00b3" d="M147.85 281.6s3.74 7.81 4.13 12.56c0 0-5.17-5.5-7.12-10.33Zm-9.55 6.23s1.72 8.48.94 13.19c0 0-3.67-6.6-4.38-11.75Zm-7.57 2.89s5.53 6.67 7.06 11.18c0 0-6.34-4.07-9.4-8.28Z"/><path fill="#ca00b3" d="M129.56 291.19s3.47 7 3.85 12c0 0-4.76-3.88-6.57-8.34Z"/><path fill="#ca00b3" d="M127.34 292.56s3.89 7.74 4.37 12.48c0 0-5.27-5.4-7.32-10.19Zm-3.86 2.08s3.89 7.74 4.37 12.48c0 0-5.27-5.4-7.31-10.19Z"/><path fill="#ca00b3" d="M119.52 296.35s6.09 6.16 10.43 8.13c0 0-3.43-6.72-7.32-10.19Z"/><path fill="#950047" d="M64.12 216.86s-5.9-.07-10.14-.64c-7.54-1-17.89-5.63-17.19-27.42.21-6 .21-6 .36-10 0-3.52.12-5.22-1.81-8.69a10.2 10.2 0 0 0-5.84-4.73 24.3 24.3 0 0 0-5.57-.68s-6.79.2-8.87.16c-6.15-.36-8.33-2.53-9.23-5.79 0 0-.86 7 9.28 8.28 2 .27 5.67.41 10.27.59a8.43 8.43 0 0 1 5.43 3.08c1.63 2.1 2 5.25 1.45 12.31 0 0-.64 6.36-.72 12.67-.09 6.59.44 13.29 3.62 19.73 2.64 5.34 6.52 8.87 14.12 10a48.7 48.7 0 0 0 14.48.72Z"/><path fill="#950047" d="M32.45 200s-9 2-9.77-8.51c0 0 .54-9-8.33-7.06 0 0 5.79.54 6 6 0 0-1.63 16.29 12.13 14.84Zm3.62-25.91s9.05 2 9.77-8.51c0 0-.54-9 8.33-7.06 0 0-5.79.55-6 6 0 0 1.63 16.29-12.13 14.84Z"/><path fill="#9fc500" d="M48.48 158.4s3.59-3.38-.42-8.23c0 0-3.59 3.83.42 8.23m-37.83 31.13s4.36 2.3 7.65-3.08c-.01.01-4.76-2.15-7.65 3.08m3.83-11.42s-.79 4.86 5.35 6.27c0 0 .53-5.2-5.35-6.27M7.91 155s-3.3 3.65 1.09 8.17c0 0 3.27-4.08-1.09-8.17m-.17 10.55s-1.43-4.72-7.56-3.28c.01 0 1.82 4.9 7.56 3.28m50.95-2.98s-2-4.52-7.89-2.39c0 0 2.36 4.66 7.89 2.39"/><path fill="#950047" d="M163.48 216.86s5.9-.07 10.14-.64c7.54-1 19.26-3.09 18.56-24.88-.13-4.15.59-10-3.37-12.8a11.3 11.3 0 0 0-4.28-1.47 54.8 54.8 0 0 1-12.85-4.07c-8.32-4-15.07-11.5-14.06-21.29a22.6 22.6 0 0 1 2.61-8.55 10.2 10.2 0 0 1 5.84-4.73 24.3 24.3 0 0 1 5.57-.68s6.79.2 8.87.16c6.16-.36 8.33-2.53 9.23-5.79 0 0 .86 7-9.28 8.28-2 .27-5.67.41-10.27.59a8.43 8.43 0 0 0-5.43 3.08c-.79 1-5.6 14.73 2 21.5 4 3.6 9.86 4.84 14.87 6.4s11.53 3.26 13.3 8.74c.81 2.49.55 5.2.78 7.78s.34 5 .37 7.58c.09 6.59-.44 13.29-3.62 19.73-2.64 5.34-6.52 8.87-14.12 10a48.7 48.7 0 0 1-14.48.72Z"/><path fill="#950047" d="M195.15 190s9 2 9.77-8.51c0 0-.54-9 8.33-7.06 0 0-5.79.54-6 6 0 0 1.63 16.29-12.13 14.84Zm-32.89-48.93s-9.81 2-10.53-8.51c0 0 .54-9-8.33-7.06 0 0 5.79.55 6 6 0 0-1.63 16.29 12.13 14.84Z"/><path fill="#9fc500" d="M149.09 125.38s-3.59-3.38.42-8.23c0 0 3.59 3.79-.42 8.23M217 179.52s-4.36 2.3-7.64-3.08c-.05.01 4.7-2.15 7.64 3.08m-3.88-11.42s.79 4.86-5.35 6.27c0 0-.53-5.2 5.35-6.27M187.66 128s3.3 3.65-1.09 8.17c.01-.02-3.26-4.1 1.09-8.17m.17 10.53s1.43-4.72 7.56-3.28c0 0-1.81 4.9-7.56 3.28m-48.94-8.99s2-4.52 7.89-2.39c0 .01-2.36 4.67-7.89 2.39"/><path fill="#950047" d="M168.7 169.63s1.12 5.07-4.77 5.48c0 0-5.07-.3-4 4.67 0 0 .3-3.25 3.35-3.35 0 0 9.13.91 8.32-6.8Z"/><path fill="#9fc500" d="M162.81 181.85s1.29-2.44-1.72-4.28a3.31 3.31 0 0 0 1.72 4.28m-6.4-2.15s2.72.44 3.51-3a3.31 3.31 0 0 0-3.51 3"/><path fill="#ff0097" d="M111.93 200.48s-44.22-2.06-41 37.91c0 0 1.47 30.56 44.37 29.68 0 0 21.68.73 33.49-13.73 4.92-6 7.84-16.31 6.24-27.63-.03-.01-1.03-25.64-43.1-26.23"/><circle cx="112.66" cy="229.32" r="2.21" fill="#4e0000"/><circle cx="87.85" cy="218.48" r="7.24" fill="#fff"/><path fill="#fff" d="M144.55 217.1a7.38 7.38 0 1 1-7.38-7.38 7.38 7.38 0 0 1 7.38 7.38"/><path fill="#4e0000" d="M114.72 242A26 26 0 0 1 96 236.1l-1 1.29a28.32 28.32 0 0 0 37.74-1.84l-1.19-1.18a26.26 26.26 0 0 1-16.83 7.63"/><circle cx="87.08" cy="217.86" r="2.21" fill="#4e0000"/><circle cx="138.13" cy="216.16" r="2.21" fill="#4e0000"/></g></g></svg>