<svg xmlns="http://www.w3.org/2000/svg" viewBox="0 0 732 961"><g fill="none" transform="translate(-.003 -.005)"><path fill="#C2E3AE" d="M123.803 229.565c16.75 1.23 32.6 7.32 45.13 20.1 34.36 35 35.75 97.29 35.75 142.88 0 23 8.43 85.06-26.79 87.53 19 4.86 32.91 22.67 47 35.1a282.7 282.7 0 0 0 39.4-43.76c20.18-27.82 25-60.21 23.2-93.78-1.3-24.71-4.42-61.13-28.5-75.34-35-20.64-76.66-71.73-61.81-144.31 26.82-130.98 181.09-207.27 288.36-110.04 61.17 55.44 30.16 145.86-27.2 192.54-65 52.9-138.55 66.14-138.55 66.14a352 352 0 0 1 5.55 76.27c-3.29 85.7-74.56 158.94-129.18 218.78-11.66 12.77-31 30.37-30.71 49.62.49 27.64 33.78 38.32 56.79 35.23 17.71-2.38 59.46-15.84 67.7-33.71-11.86 25.72-34.42 43.56-62.41 48.32-25.57 4.35-62.75-1.06-75.2-27.48-18.41-39.12 32.67-98.65 51.29-130.86 2.33-4-20.21-26.2-23.2-29.16-6.24-6.16-27.91-23.6-37.55-20.18 0 0-126.18 21.14-135.77-52.44-9.59-73.58-3.34-149.79 29.2-179.32 21.7-19.69 56.19-34.43 87.5-32.13Z"/><path fill="#BEE6F8" d="M434.703 489.865s-115.1-3.09-97-118.24c5.88-37.34 31-62.83 67.4-71.48 34-8.09 83-6.85 114.39 8.7 38.84 19.26 63.78 60.12 57.33 103.84-5.61 38-37.46 80.38-79.26 80.38 0 0 36.86 53.88 75.67 12.79 28.44-30.09 29.29-77.85 25.77-116.5-1.43-15.66-5.88-89.71-25.47-93.18-48-8.51-86.38-30-98.19-81-9.34-40.52-8.24-109.17 33.52-130.34 66.36-33.68 204.26-6.27 221.14 77.65 9.77 48.25-40.37 141.52-100.27 130.22 0 0 27.82 101.83 1.07 167.88-9.8 24.08-23.74 49.42-44.47 66.07.34-.27 5.41 26.55 5.47 28.1 1.33 36.41-13.65 78.82-47.05 97.29-36.23 20-78.63 15.5-115.68 1.72 33.16-2 64.6-16.64 95.15-28.46 23.64-9.14 38.34-24.9 42.13-50.65.44-3-1.78-35.11-4.49-34.64-2.93.51-6.62 2.08-9.88 3.32-28.59 10.88-48.78.21-72.62-17.77-9.31-7-18.24-14.64-27.35-21.91-3.15-2.5-13.17-13.65-17.31-13.79Z"/><path fill="#DAFFC2" d="M120.803 225.555c16.75 1.23 32.6 7.32 45.13 20.1 34.36 35 35.75 97.29 35.75 142.88 0 23 8.43 85.06-26.79 87.53 19 4.86 32.91 22.67 47 35.1a282.7 282.7 0 0 0 39.4-43.76c20.18-27.82 25-60.21 23.2-93.78-1.3-24.71-4.42-61.13-28.5-75.34-35-20.64-76.66-71.73-61.81-144.31 26.82-130.97 181.09-207.26 288.36-110.03 61.17 55.44 30.16 145.86-27.2 192.54-65 52.9-138.55 66.14-138.55 66.14a352 352 0 0 1 5.55 76.27c-3.29 85.7-74.56 158.94-129.18 218.78-11.66 12.77-31 30.37-30.71 49.62.49 27.64 33.78 38.32 56.79 35.23 17.71-2.38 59.46-15.84 67.7-33.71-11.86 25.72-34.42 43.56-62.41 48.32-25.57 4.35-62.75-1.06-75.2-27.48-18.41-39.12 32.67-98.65 51.29-130.86 2.33-4-20.21-26.2-23.2-29.16-6.24-6.16-27.91-23.6-37.55-20.18 0 0-126.18 21.14-135.77-52.44-9.59-73.58-3.35-149.8 29.2-179.33 21.7-19.68 56.19-34.43 87.5-32.13Z"/><ellipse cx="356.323" cy="925.975" fill="#D9D9D9" rx="115.69" ry="34.9"/><path fill="#17B6E1" d="M300.923 917.625a19.13 19.13 0 0 0-.49 7.88s.61 3.89 6.19 6.65c3.08 1.52 8.58 3 16 3 0 0 12.64.16 20.44-3 4.92-1.71 9.6-5 11.08-8.86 0 0 1.48-8.62.25-12.8 0 0-1.44-5.32-11.08-4.43-.04-.06-35.99 6.39-42.39 11.56Zm112.21-.35a22.19 22.19 0 0 1 1 8.23s-.05 3.89-5.63 6.65c-3.08 1.52-8.58 3-16 3 0 0-12.64.16-20.44-3-4.92-1.71-9.6-5-11.08-8.86 0 0-1.48-8.62-.25-12.8 0 0 2.21-5.43 11.08-4.43.03-.06 34.91 6.04 41.32 11.21Z"/><path fill="#17B6E1" d="M399.203 751.005c.37 23.93 2.62 150.75 3 154.58a46.15 46.15 0 0 1 5.89 4.51c9 8 2.47 15.48-15.06 16.43-27.26.82-31.28-41.13-31.27-41.13l-.41-21.19s.34-7.71-5-7.71c-3.16 0-4.31 1.85-4.31 7.83 0 3.43.32 8.11.19 13v31.41c.07.29.15.57.19.87.24 1.35.268 2.73.08 4.09-.43 5-5 14-32.27 13.18-16.36-.63-7.63-15.5-7.32-21.58 0-3.59.28-119.62.25-129.23v-14.06m87.23-9.35a52.13 52.13 0 0 0-49.78-8.89"/><path fill="#00A3DE" d="m465.003 774.295-12.25-16.71 1.37-1.88c-.39-9.71 2.88-11.82 2.88-11.82 3.38-2.77 6.39.54 6.67.85l.31-.33c5.43-9 11.38-4.77 11.38-4.77 10 12.44-10.36 34.66-10.36 34.66Z"/><path fill="#17B6E1" d="M398.683 772.275c12.71 2.2 29.87 2.43 55.44-16.77l13.44 17.32c-26.13 19.61-47.75 22.36-75.28 19"/><path fill="#00A3DE" d="m246.713 774.295 12.29-16.71-1.37-1.88c.39-9.71-2.88-11.82-2.88-11.82-3.38-2.77-6.39.54-6.67.85l-.31-.33c-5.43-9-11.38-4.77-11.38-4.77-10.03 12.44 10.32 34.66 10.32 34.66Z"/><path fill="#17B6E1" d="M313.003 772.275c-12.71 2.2-29.87 2.43-55.44-16.77l-13.44 17.32c26.13 19.61 47.75 22.36 75.28 19m33.07 84.8c-6 3.78-15.83 3.71-21.61 3.71-14 0-18.5-4.47-18.5-4.47l.45 28.65a55.56 55.56 0 0 0-8.33 6.28c-8.68 8.51-1.34 16 15.26 16.67 27.67.83 32.57-8.15 33-13.25.16-9.21-.27-37.59-.27-37.59Zm9.53 37.58c.44 5.1 4.6 14.08 32.27 13.25 16.6-.63 23.4-7.64 15.27-16.67a40.06 40.06 0 0 0-7.38-6s-.12-13-.4-29.63c0 0-6.09 4.85-18.78 5-5.77.08-14.85 0-21.45-3.53-.02 0 .42 27.84.47 37.58Z"/><path fill="#FFF" d="M487.673 635.095c0 67.92-60.48 123-135.07 123s-135.05-55.09-135.05-123 60.46-123 135.05-123 135.07 55.09 135.07 123Z"/><path fill="#17B6E1" d="M356.493 489.485s-163.49-5.88-156.35 147.09h.06c8.12 125.27 121.92 132.81 154.2 132.81 39.54 0 146.14-9.32 152.77-132.81 6.63-123.49 12.05-142.77-150.68-147.09Z"/><path fill="#17B6E1" d="M354.413 755.885c-29.93 0-128.72-6.26-152.33-102.07 17 108.74 121.59 115.57 152.32 115.57 37.34 0 134.47-8.31 150.76-113.22-22.59 92.14-114.44 99.72-150.75 99.72Z"/><path fill="#FF0" d="M354.843 559.515c-114.71-2-109.25 71.1-109.25 71.1-.28 8.25-1.77 107.51 109.22 107.51 111 0 109.5-99.26 109.22-107.51.06 0 5.52-73.12-109.19-71.1Z"/><circle cx="353.993" cy="606.165" r="3.86" fill="red"/><path fill="#000" d="M324.003 591.155c-.203 6.459-5.572 11.548-12.033 11.407-6.46-.142-11.6-5.462-11.52-11.923.08-6.462 5.35-11.653 11.813-11.634 6.584.142 11.824 5.564 11.74 12.15Zm80.63 0c-.198 6.462-5.562 11.56-12.026 11.427-6.464-.132-11.616-5.445-11.548-11.91.067-6.465 5.328-11.67 11.794-11.667 6.6.12 11.863 5.549 11.78 12.15Z"/><circle cx="274.873" cy="617.915" r="1.86" fill="red"/><circle cx="285.763" cy="617.915" r="1.86" fill="red"/><circle cx="280.463" cy="623.215" r="1.86" fill="red"/><circle cx="421.793" cy="617.915" r="1.86" fill="red"/><circle cx="432.673" cy="617.915" r="1.86" fill="red"/><circle cx="427.373" cy="623.215" r="1.86" fill="red"/><path fill="#FFF" d="m354.783 776.315-15.9 25.32h11.19l-17.66 32.38 40.62-39.45h-11.78l12.37-18.25h-18.84z"/><circle cx="425.603" cy="531.805" r="6.99" fill="#2BD7F5"/><path fill="#EB2D74" d="M363.633 635.145a258.34 258.34 0 0 0 50.63-6.66c-2.8 23-19.37 42-41.58 49.12-4.31-4.83-11.38-8-19.37-8s-15.13 3.18-19.43 8c-22.33-7.07-39-26.1-41.82-49.19a258.82 258.82 0 0 0 51.49 6.69s10.35.57 20.08.04Z"/><path fill="#C00058" d="M353.313 669.635c-8 0-15.13 3.18-19.43 8a64.21 64.21 0 0 0 38.8-.07c-4.32-4.79-11.38-7.93-19.37-7.93Z"/><path fill="#DAFFC2" d="M286.943 648.865c-8.24 17.88-50 31.33-67.7 33.71a61.21 61.21 0 0 1-9.77.48c2 5.38.72 10.68 3.16 15.41 2.91-.23 9.2-.83 11.9-1.28 27.99-4.76 50.56-22.6 62.41-48.32Z"/><path fill="#B3DDC2" d="M93.063 399.675c-2.21.45-3.51 3-3.14 5.24.37 2.24 4.52 6.33 16.68 9.6a64.83 64.83 0 0 0 23.84 1.33c11.07-1.22 21.43-5.89 31.39-10.86 11.9-5.94 23.63-12.48 33.62-21.25a10.07 10.07 0 0 0 2.62-3.06c1.15-2.4.29-5.41-1.49-7.39a15.85 15.85 0 0 0-6.82-4 46.14 46.14 0 0 0-11.46-2.39l-85.24 32.78Z"/><path fill="#FFA103" d="M179.283 355.345c-1.21-.12-2.19.85-3.31 1.24-3 1-9.35 1.68-11.08-.46a19.12 19.12 0 0 1-1.58-2.93 28.27 28.27 0 0 0-4-.9 45.83 45.83 0 0 0-9.38-.22 36.1 36.1 0 0 0-13 4.43 293.63 293.63 0 0 1-29.8 14.15c-9.62 4-18.2 5.51-21.29 14.57-2.49 7.33 2.63 15.65 11.67 18.69 3.65 1.23 12 3.23 15.85 4a44 44 0 0 0 17.62.39c14.09-2.12 19.95-7.25 29-12 10.55-5.61 16.92-9.36 26.88-15.73 5.73-3.66 6.81-7.42 6.92-9 .48-6.57.03-14.74-14.5-16.23Z"/><path fill="#791F1F" d="M122.883 409.705a44.94 44.94 0 0 1-9.57-1.1c-3.71-.78-12.2-2.81-15.93-4.07a19.29 19.29 0 0 1-11.26-9.37 13.21 13.21 0 0 1-.82-10.16c2.64-7.76 9.17-10.21 16.73-13 1.6-.6 3.25-1.22 4.93-1.91a293.35 293.35 0 0 0 29.74-14.12 36.13 36.13 0 0 1 13.2-4.5 27.746 27.746 0 0 1 3.16-.17c2.15 0 4.29.2 6.36.39a28.42 28.42 0 0 1 4.09.92l.29.09.12.28c.413.969.912 1.9 1.49 2.78.61.75 2.2 1.36 4.37 1.36a12.51 12.51 0 0 0 6-1.11c.33-.15.69-.31 1-.51a4.32 4.32 0 0 1 2.54-.76c14.19 1.46 15.65 9 15.12 16.88-.1 1.55-1 5.58-7.22 9.55-10.2 6.52-16.49 10.21-26.93 15.76-2 1-3.77 2.1-5.53 3.13-6.42 3.75-12.48 7.3-23.63 9a54.48 54.48 0 0 1-8.25.64Zm30.17-57.13a26.4 26.4 0 0 0-3 .16 34.89 34.89 0 0 0-12.73 4.35 294.38 294.38 0 0 1-29.86 14.18c-1.7.7-3.36 1.32-5 1.93-7.55 2.83-13.51 5.07-16 12.25a11.91 11.91 0 0 0 .75 9.15 18 18 0 0 0 10.51 8.71c3.68 1.24 12.1 3.25 15.78 4a43.67 43.67 0 0 0 9.3 1.08 53.21 53.21 0 0 0 8.08-.7c10.9-1.64 16.85-5.12 23.16-8.81 1.77-1 3.61-2.11 5.58-3.16 10.4-5.53 16.67-9.2 26.84-15.7 5.86-3.75 6.55-7.48 6.62-8.54.45-6.76-.21-14.09-13.95-15.49a3.17 3.17 0 0 0-1.77.6 7.85 7.85 0 0 1-1.26.6 21.72 21.72 0 0 1-6.43 1c-1.84 0-4.26-.29-5.37-1.65a16.65 16.65 0 0 1-1.54-2.8 25 25 0 0 0-3.55-.79c-1.96-.18-4.06-.38-6.16-.38v.01Z"/><path fill="#FFE166" d="M179.283 355.345s-29.28 17.54-59.23 31.42a18.06 18.06 0 0 0-4.11 2.51 23 23 0 0 0-3.38 4.24s-4.18 7.52-11.67 4.82c0 0-6.83-2.89-3.52-11.56a9 9 0 0 1 2.61-3.5 20.51 20.51 0 0 1 5.1-2.67s45.46-20.71 58.39-27.36c0 0 .55 4.85 7.23 4.42a25.86 25.86 0 0 0 8.58-2.32Z"/><path fill="#791F1F" d="M104.083 399.565a10 10 0 0 1-3.41-.62c-2.59-1.1-6.7-5.08-3.91-12.41a9.62 9.62 0 0 1 2.8-3.76 21.21 21.21 0 0 1 5.27-2.77c.44-.2 45.58-20.77 58.34-27.34a.65.65 0 0 1 .95.51c0 .15.54 3.87 5.77 3.87h.77a25.48 25.48 0 0 0 8.36-2.25.65.65 0 1 1 .61 1.15c-.29.18-29.66 17.71-59.29 31.45a17.6 17.6 0 0 0-4 2.42 14.55 14.55 0 0 0-2.43 2.94c-.26.38-.53.76-.81 1.15-.29.49-3.41 5.66-9.02 5.66Zm58.92-45.37c-13.71 7-57.22 26.79-57.67 27a20.53 20.53 0 0 0-4.94 2.57 8.5 8.5 0 0 0-2.39 3.24c-3 8 2.91 10.64 3.16 10.75a8.71 8.71 0 0 0 2.93.53c5 0 7.89-5 7.91-5.07v-.07c.28-.39.55-.77.81-1.15a15.45 15.45 0 0 1 2.67-3.21 18.59 18.59 0 0 1 4.28-2.61c22.09-10.24 44.06-22.61 53.85-28.27a20.26 20.26 0 0 1-2.93.43h-.84c-4.31.01-6.22-2.33-6.84-4.14Z"/><path fill="#F06303" d="M63.003 320.755c-2.51-2.38-13.11-30.79-16.12-42-.38-1.42-.62-3.24.58-4.09a8.8 8.8 0 0 0 1.4-1 1.35 1.35 0 0 0-1.35-2.08 13.86 13.86 0 0 0-2.4.58l-.46-2.8c-.42-2.24-1.91-1.5-2-.86-.25 1.09.42 2.92.62 4-.16-.73-1.47-4.79-2.9-4-1.17.53.15 3.57.6 5.22-.83-1.71-2-4.67-3.26-3.7-1.61.98 1.29 5.74 2.53 7.98 2.06 3.88 10.69 31.58 21.93 49l.83-6.25Z"/><path fill="#791F1F" d="M61.613 327.355c-8.31-12.85-15.31-31.59-19.06-41.67-1.38-3.69-2.37-6.35-2.89-7.34l-.54-1c-1.64-3-3.69-6.69-1.87-7.95a1.4 1.4 0 0 1 1.21-.27 1.8 1.8 0 0 1 .7.36 1.6 1.6 0 0 1 .86-1.68c.392-.2.857-.2 1.25 0 .25.124.473.293.66.5a1.56 1.56 0 0 1 1.51-1.15c.43 0 1.45.2 1.8 2l.35 2.09a8.08 8.08 0 0 1 1.78-.39 2.08 2.08 0 0 1 2.11 1.2 1.78 1.78 0 0 1-.25 2 6.91 6.91 0 0 1-1.23.95l-.25.16c-.69.49-.8 1.63-.33 3.39 3.55 13.28 13.9 39.81 15.93 41.74l-.9.95c-2.72-2.58-13.43-31.63-16.3-42.35-.23-.87-.94-3.53.83-4.79l.31-.2a5.82 5.82 0 0 0 1-.76.55.55 0 0 0 0-.53.77.77 0 0 0-.83-.44 7 7 0 0 0-1.5.34l-.78.22-.69.17-.58-3.5c-.14-.72-.38-.95-.49-1a.33.33 0 0 0-.26.14 7.18 7.18 0 0 0 .37 2.65c.1.4.2.78.26 1.11l-1.28.26c-.21-.94-1.12-3.26-1.83-3.59h-.13c-.22.1-.27.74.57 3.33.13.42.26.81.35 1.14l-1.22.46-.3-.64c-.45-1-1.3-2.75-1.85-2.88l-.13.05c-.87.6 1.48 4.86 2.25 6.26l.55 1c.56 1.06 1.57 3.76 3 7.49 3.74 10 10.7 28.68 18.94 41.41l-1.1.76Z"/><path fill="#F06303" d="M67.603 393.865a106.59 106.59 0 0 0 2.31 14.28c.29 1.16 2.06 8.22 7.54 8.76 11.06 1.11 22.32-7.49 32.11-10.86 1.07 2.52 1.14 4.18 2.61 5.35 1.16.93 2.74 1.39 3.71-.27 1.5-2.33 0-4.78-1.24-8.15-.69-1.92-1.32-3.24-3.63-3.19-3 .05-21.91 9.86-29.66 11.24a3.45 3.45 0 0 1-2.45-.24c-2.41-1.5-4-15-3.53-19.68l-7.77 2.76Z"/><path fill="#791F1F" d="M79.463 417.675c-.667 0-1.357-.034-2.07-.1-5.37-.54-7.46-6.65-8.11-9.26a107.53 107.53 0 0 1-2.28-14.37l1.3-.15a106.47 106.47 0 0 0 2.3 14.2c.58 2.34 2.43 7.82 7 8.27 7.34.73 14.78-2.92 22-6.45a88.48 88.48 0 0 1 9.87-4.38l.58-.2.24.56c.34.81.59 1.53.8 2.17a5.61 5.61 0 0 0 1.61 2.93 2.44 2.44 0 0 0 1.8.67c.408-.101.75-.38.93-.76 1-1.63.36-3.37-.59-5.77-.23-.58-.47-1.19-.7-1.83-.69-1.94-1.19-2.8-3-2.76-1.17 0-5.77 2-10.64 4.14-6.8 3-14.51 6.31-18.92 7.09a4.07 4.07 0 0 1-2.91-.32c-2.83-1.77-4.31-15.86-3.84-20.3l1.3.14c-.56 5.22 1.34 17.87 3.23 19.05a2.94 2.94 0 0 0 2 .15c4.26-.76 12.23-4.22 18.63-7 6.2-2.69 9.77-4.22 11.13-4.25 2.94 0 3.67 2 4.26 3.63.22.63.46 1.22.69 1.79 1 2.55 1.88 4.76.49 6.93a2.64 2.64 0 0 1-1.81 1.36 3.64 3.64 0 0 1-2.86-.94 6.72 6.72 0 0 1-2-3.53c-.15-.46-.32-1-.53-1.51a94.69 94.69 0 0 0-9.13 4.11c-6.86 3.3-13.76 6.69-20.77 6.69Z"/><path fill="#F06303" d="M75.093 401.115a17.84 17.84 0 0 0 8.14-1.49c4.17-2 6.95-6.22 8.29-10.66 1.34-4.44 1.48-9.13 1.48-13.76l1.1-63.36c.15-8.6.82-19-6.17-24.29-8-5-19.88-1.87-24.48 6.35-2.7 4.82-3 10.59-3.17 16.11-.88 24.19-1.76 48.39-1.19 72.58.11 4.63.39 9.61 3.26 13.25 2.87 3.64 8 5.16 12.74 5.27Z"/><path fill="#791F1F" d="M75.693 401.775h-.61c-3.37-.07-9.56-.89-13.21-5.52-2.93-3.72-3.28-8.57-3.4-13.64-.57-24.23.33-48.83 1.19-72.62.19-5.32.41-11.34 3.25-16.41 3.08-5.51 9.49-9.061 16.32-9.061a17.229 17.229 0 0 1 9.08 2.48c6.84 5.13 6.64 14.76 6.46 23.26v1.56l-1.1 63.36c-.08 4.62-.16 9.39-1.54 13.95-1.55 5.13-4.7 9.16-8.63 11.06a17.74 17.74 0 0 1-7.81 1.58Zm3.55-116c-6.37 0-12.33 3.29-15.18 8.39-2.69 4.84-2.9 10.7-3.06 15.84-.87 23.77-1.76 48.36-1.19 72.55.11 4.83.44 9.45 3.12 12.86 3.32 4.21 9.07 5 12.21 5h.58a16.48 16.48 0 0 0 7.23-1.41c3.61-1.74 6.5-5.48 7.95-10.26 1.32-4.38 1.41-9.06 1.48-13.59v-.09l1.1-63.27v-1.56c.17-8.17.36-17.44-5.92-22.17a15.92 15.92 0 0 0-8.33-2.24l.01-.05Z"/><path fill="#F06303" d="M81.553 396.285c-6.24-2.29-20.07-7.08-32.22-2.68-5.5 2-9.86 6.64-17.69 17.67-1 1.44-3 3.73-5.26 3.75a7.72 7.72 0 0 1-3.27-.85 36.72 36.72 0 0 1-4.65-2.25c-2.64-1.62-2.28-3.6-1.37-4.53a4 4 0 0 1 3.84-.62 11.94 11.94 0 0 0 3.86.72c4.26-.09 10.33-14.81 21.36-19.45.3-.13 14.92-5.26 37.7 2.65l-2.3 5.59Z"/><path fill="#791F1F" d="M26.333 415.675a8.2 8.2 0 0 1-3.41-.88h-.07l-1.26-.55a25 25 0 0 1-3.47-1.73 4.31 4.31 0 0 1-2.33-3.08 3 3 0 0 1 .84-2.47 4.58 4.58 0 0 1 4.48-.79h.17c1.119.41 2.298.63 3.49.65 1.53 0 3.72-2.81 6.26-6 3.75-4.75 8.43-10.67 14.86-13.38.14-.06 14.86-5.45 38.17 2.64l-.43 1.23c-22.7-7.88-37.1-2.72-37.24-2.67-6.12 2.58-10.68 8.35-14.34 13-3 3.76-5.11 6.47-7.26 6.52a11.87 11.87 0 0 1-3.88-.7h-.17a3.36 3.36 0 0 0-3.19.45 1.71 1.71 0 0 0-.48 1.4 3.19 3.19 0 0 0 1.72 2.12 24 24 0 0 0 3.3 1.65l1.28.56h.07a7 7 0 0 0 2.92.76c2.05 0 4-2.44 4.73-3.48 8.34-11.74 12.55-15.93 18-17.9 11.46-4.15 24.14-.46 32.67 2.68l-.45 1.23c-8.34-3.07-20.71-6.69-31.77-2.68-5.1 1.85-9.32 6.08-17.38 17.43-1.06 1.49-3.22 4-5.78 4l-.05-.01Z"/><path fill="#FFCB00" d="M75.733 326.005c.193.369.276.785.24 1.2-.13 4.15-6.93 8.41-4.72 12.19.69 1.18 4.06 3 5 4.1 2.21 2.41 1.38 3.45-.16 5.9-1.69 2.68-4.36 4-3.47 6.87.58 1.85 4.92 6.31 5.31 8.2.5 2.45-2 4.61-4.21 6.47-2.21 1.86-3.51 4.17-3 6.66.6 3.28-1.15 5.39-3.63 4.94a4.89 4.89 0 0 1-4.1-4.41c-.15-2.84 1.85-6.07 4.12-8.35 2.43-2.44 3.93-3.21 4-5.34 0-2.31-5.27-6.12-5.42-8.43-.11-1.73 1.28-3.29 2.41-4.81 1.13-1.52 3.44-3.6 2.4-5.13a39.11 39.11 0 0 0-4.12-3.42c-3.88-3.28-2.25-6.68-.49-10.58 1.09-2.42 2.72-6.1 5.7-7.32a3.46 3.46 0 0 1 4.14 1.26Z"/><path fill="#791F1F" d="M67.723 383.215a4.29 4.29 0 0 1-.77-.07 5.56 5.56 0 0 1-4.64-5c-.14-2.68 1.47-6 4.31-8.84.57-.57 1.08-1 1.54-1.47 1.57-1.46 2.21-2.11 2.22-3.42 0-.93-1.36-2.5-2.57-3.88-1.42-1.62-2.76-3.15-2.84-4.5-.12-1.77 1-3.25 2.12-4.69l.42-.55c.23-.31.5-.64.79-1 1-1.14 2.15-2.57 1.59-3.4a23.67 23.67 0 0 0-2.89-2.39c-.47-.36-.87-.66-1.1-.86-4.19-3.54-2.52-7.23-.76-11.14l.13-.28c1.13-2.5 2.83-6.27 6-7.58a4.166 4.166 0 0 1 1.58-.31 4.002 4.002 0 0 1 3.44 1.85 2.81 2.81 0 0 1 .33 1.55c-.06 2-1.43 3.9-2.76 5.75-1.59 2.21-3.09 4.31-2 6.08.79.866 1.7 1.617 2.7 2.23a15.87 15.87 0 0 1 2.2 1.71c2.45 2.67 1.52 4.14.11 6.37l-.2.32a17.64 17.64 0 0 1-1.76 2.31c-1.37 1.56-2.12 2.51-1.64 4.07a18.12 18.12 0 0 0 2.42 3.62c1.38 1.8 2.67 3.5 2.91 4.64.58 2.84-2.2 5.2-4.43 7.1-1.55 1.32-3.31 3.44-2.83 6a5.41 5.41 0 0 1-.88 4.51 3.491 3.491 0 0 1-2.74 1.27Zm5.13-58.11a2.841 2.841 0 0 0-1.09.21c-2.71 1.11-4.28 4.6-5.32 6.91l-.13.28c-1.69 3.75-3 6.71.41 9.61.2.17.59.47 1 .81a19 19 0 0 1 3.28 2.75c1.11 1.64-.43 3.49-1.67 5-.27.33-.53.64-.74.92l-.42.56c-1 1.25-1.94 2.54-1.85 3.81.06.91 1.37 2.4 2.52 3.72 1.5 1.71 2.91 3.32 2.9 4.76 0 1.93-1.06 2.9-2.64 4.36-.45.41-1 .88-1.5 1.43-2 2-4.07 5.12-3.93 7.85a4.24 4.24 0 0 0 3.57 3.8 2.28 2.28 0 0 0 2.26-.74 4.21 4.21 0 0 0 .6-3.44c-.47-2.55.66-5.06 3.27-7.28 2.07-1.76 4.42-3.76 4-5.84-.17-.85-1.5-2.58-2.67-4.11a17.66 17.66 0 0 1-2.63-4c-.73-2.34.55-3.79 1.9-5.32a16.32 16.32 0 0 0 1.59-2.15l.2-.32c1.39-2.19 1.8-2.85 0-4.79a15.89 15.89 0 0 0-2-1.57 11.75 11.75 0 0 1-3.08-2.64c-1.47-2.51.35-5 2.11-7.51 1.21-1.69 2.47-3.44 2.52-5a1.53 1.53 0 0 0-.15-.85 2.72 2.72 0 0 0-2.31-1.21v-.01Z"/><path fill="#FFF" d="M83.403 301.865a3.18 3.18 0 0 0 3.63-1.7c.26-.57.73-2.69-.63-4a3.5 3.5 0 0 0-3.4-.74 3.42 3.42 0 0 0-2.15 3.49 3.58 3.58 0 0 0 2.55 2.95Z"/><path fill="#791F1F" d="M84.163 302.625a3.38 3.38 0 0 1-.94-.13 4.24 4.24 0 0 1-3-3.46 4.07 4.07 0 0 1 2.61-4.19 4.47 4.47 0 0 1 1.28-.18 4 4 0 0 1 2.76 1.08 4.41 4.41 0 0 1 .78 4.7 3.88 3.88 0 0 1-3.49 2.18Zm-.07-6.62a3.17 3.17 0 0 0-.89.13 2.78 2.78 0 0 0-1.69 2.79 2.94 2.94 0 0 0 2.08 2.35c.188.053.384.08.58.08a2.53 2.53 0 0 0 2.27-1.41c.14-.32.64-2.17-.48-3.21a2.65 2.65 0 0 0-1.87-.73Z"/><circle cx="83.983" cy="298.485" r="1" fill="#791F1F"/><path fill="#FFF" d="M65.213 301.665a3.18 3.18 0 0 0 3.63-1.7c.26-.57.73-2.69-.63-4a3.5 3.5 0 0 0-3.4-.74 3.42 3.42 0 0 0-2.15 3.49 3.58 3.58 0 0 0 2.55 2.95Z"/><path fill="#791F1F" d="M66.003 302.425a3.41 3.41 0 0 1-.94-.13 4.24 4.24 0 0 1-3-3.46 4.07 4.07 0 0 1 2.61-4.19 4.47 4.47 0 0 1 1.28-.18 4 4 0 0 1 2.76 1.08 4.41 4.41 0 0 1 .78 4.7 3.87 3.87 0 0 1-3.49 2.18Zm-.07-6.66a3.18 3.18 0 0 0-.89.13 2.78 2.78 0 0 0-1.69 2.79 2.94 2.94 0 0 0 2.05 2.32 2.1 2.1 0 0 0 .58.08 2.53 2.53 0 0 0 2.27-1.41c.14-.32.64-2.17-.48-3.21a2.65 2.65 0 0 0-1.87-.7h.03Z"/><circle cx="65.263" cy="298.295" r="1" fill="#791F1F"/><path fill="#F06303" d="M92.623 320.755c2.51-2.38 13.11-30.79 16.12-42 .38-1.42.62-3.24-.58-4.09a8.8 8.8 0 0 1-1.4-1 1.35 1.35 0 0 1 1.35-2.08 13.86 13.86 0 0 1 2.4.58l.46-2.8c.42-2.24 1.91-1.5 2-.86.25 1.09-.42 2.92-.62 4 .16-.73 1.47-4.79 2.9-4 1.17.53-.15 3.57-.6 5.22.83-1.71 2-4.67 3.26-3.7 1.52 1.05-1.41 5.81-2.62 8.09-2.06 3.88-10.69 31.58-21.93 49l-.74-6.36Z"/><path fill="#791F1F" d="m94.003 327.355-1.1-.71c8.24-12.73 15.2-31.39 18.94-41.41 1.39-3.73 2.4-6.43 3-7.49l.55-1c.77-1.4 3.12-5.66 2.27-6.24-.11-.08-.14-.08-.15-.07-.55.13-1.4 1.92-1.85 2.88l-.3.63-1.22-.46c.09-.34.22-.73.35-1.14.84-2.59.79-3.23.61-3.31-.18-.08-.1 0-.17 0-.71.33-1.62 2.65-1.83 3.59l-1.28-.26c.06-.33.16-.71.26-1.11a7.15 7.15 0 0 0 .37-2.65.31.31 0 0 0-.26-.14c-.11 0-.36.24-.5 1l-.58 3.48-.69-.17-.78-.22a7 7 0 0 0-1.5-.34.78.78 0 0 0-.83.44.55.55 0 0 0 0 .53c.305.288.64.543 1 .76l.31.2c1.77 1.26 1.06 3.92.83 4.79-2.87 10.73-13.58 39.77-16.3 42.35l-.9-.95c2-1.93 12.39-28.46 15.93-41.74.47-1.76.36-2.9-.33-3.39l-.25-.16a6.91 6.91 0 0 1-1.23-.93 1.78 1.78 0 0 1-.25-2 2.08 2.08 0 0 1 2.11-1.2 8.08 8.08 0 0 1 1.79.39l.34-2.08c.35-1.85 1.38-2.05 1.8-2.05a1.57 1.57 0 0 1 1.52 1.18 2.22 2.22 0 0 1 .66-.5 1.4 1.4 0 0 1 1.29 0c.605.312.94.978.83 1.65a1.8 1.8 0 0 1 .7-.36 1.41 1.41 0 0 1 1.23.28c1.79 1.24-.26 4.95-1.9 7.93l-.54 1c-.52 1-1.52 3.65-2.89 7.34-3.8 10.06-10.79 28.81-19.06 41.66Z"/><path fill="#B3DDC2" d="M97.583 446.385c-9 3.21-18.26 6.54-33.58 4.64a14 14 0 0 1-7.67-3.9 2.73 2.73 0 0 1-.92-1.62c-.81-3.84 1.6-6.82 5.42-9 3.82-2.18 9-3.52 14.1-4.88l22.72-6c1.48.32 2 1.43 1.91 2.08-.09.65 0 1.62 1.48 2.14a4.48 4.48 0 0 0 2 .17c2.28-.25 4-.94 6.19-1.23a15.92 15.92 0 0 1 8.13 1.17c2.93 1.3 4.39 3.31 4.13 4.67-.26 1.36-1.85 2.23-3.44 3a173.64 173.64 0 0 1-20.47 8.76Z"/><path fill="#791F1F" d="M73.783 313.835a12 12 0 0 1-5.59-1.43 10.07 10.07 0 0 1-4.68-7.76l1.74-.07a8.26 8.26 0 0 0 3.75 6.29 9.92 9.92 0 0 0 8.27.59 9 9 0 0 0 5.73-6.59l1.73.18a10.69 10.69 0 0 1-6.9 8 11.73 11.73 0 0 1-4.05.79Z"/><ellipse cx="451.825" cy="103.609" fill="#DEBD53" rx="3.9" ry="1.83" transform="rotate(-29.78 451.825 103.609)"/><path fill="#DEBD53" d="m447.711 98.544 1.831-1.048 2.826 4.938-1.83 1.048zm8.939-5.193 1.831-1.048 2.827 4.939-1.832 1.048zm10.03-4.183 1.83-1.048 2.826 4.94-1.831 1.047z"/><ellipse cx="460.872" cy="98.697" fill="#DEBD53" rx="3.9" ry="1.84" transform="rotate(-29.77 460.872 98.697)"/><ellipse cx="470.522" cy="94.112" fill="#DEBD53" rx="3.9" ry="1.84" transform="rotate(-29.78 470.522 94.112)"/><ellipse cx="436.557" cy="77.626" fill="#DEBD53" rx="3.9" ry="1.84" transform="rotate(-29.78 436.557 77.626)"/><path fill="#DEBD53" d="m436.028 78.843 1.831-1.049 2.827 4.938-1.83 1.049zm8.28-5.159 1.831-1.048 2.826 4.939-1.83 1.048zm9.338-6.514 1.832-1.047 2.822 4.94-1.832 1.048z"/><path fill="#C75B8D" d="M335.793 144.005c-15.42-28.18-34.27-19.86-34.27-19.86-9.29 2.85-14.29 13.82-14.29 13.82-2.5 6.72-5.8 9-5.8 9-6.86 4.63-16.73-.29-16.73-.29-18.71-6.21-31.41 1.76-31.41 1.76-38.84 23.28-15.59 68.83-15.59 68.83a44.06 44.06 0 0 0 1.95 4.14l1.62 3.33s1.22 2.12 3.15 4.89c0 0 26.47 41.94 66.21 20.26 0 0 13.31-6.91 17.44-26.19 0 0 .75-11 8.23-14.57a20.13 20.13 0 0 1 12.44-.43s8.31 1.59 17.37-5.36c0 0 16.91-11.09.24-39.61l-3.95-6.9-1.75-4.29-4.86-8.53Z"/><path fill="#E8D268" d="M232.923 147.755c-20.35 12.2-23.57 30.54-22.68 43.77a75 75 0 0 0 6.84 26 43.56 43.56 0 0 0 2 4.16l1.61 3.3c.07.13 1.27 2.22 3.2 5a70.72 70.72 0 0 0 18.38 18.44c10.73 7.2 27.89 13.4 48.73 2 .54-.28 13.64-7.28 17.78-26.65v-.1c0-.11.82-10.65 7.83-14a19.66 19.66 0 0 1 12-.38c.4.08 8.77 1.58 18-5.48a18.9 18.9 0 0 0 6.61-9.43c1.5-4.43 2.19-11.27-1.24-20.71a63.7 63.7 0 0 0-4.95-10.36l-4.03-6.88-1.75-4.29-4.88-8.54c-8.09-14.78-17.18-19.49-23.37-20.84a20.39 20.39 0 0 0-11.74.67c-9.45 2.93-14.47 13.72-14.68 14.18-2.4 6.43-5.53 8.65-5.56 8.67-6.44 4.35-15.94-.29-16-.34-18.9-6.26-31.57 1.48-32.1 1.81Zm-11.06 76.54-1.6-3.29a43 43 0 0 1-1.93-4.1 59.26 59.26 0 0 1-2.45-5.88 72.91 72.91 0 0 1-4.27-19.63c-1.24-18.68 6.18-33 22-42.47.14-.09 12.67-7.72 30.81-1.71.77.38 10.39 4.93 17.37.22.14-.1 3.51-2.44 6.06-9.29 0-.06 5-10.68 13.85-13.4a19.4 19.4 0 0 1 11-.58c8.57 1.84 16.3 8.84 22.49 20.12l4.85 8.47 1.75 4.29 4 6.94a62.64 62.64 0 0 1 4.85 10.15c2.69 7.4 3.13 14.09 1.26 19.7a17.92 17.92 0 0 1-6.13 8.84c-8.73 6.69-16.79 5.27-16.87 5.26a20.57 20.57 0 0 0-12.85.47c-7.61 3.64-8.57 14.24-8.63 15.09-4 18.68-16.94 25.62-17.07 25.69-16.24 8.86-32.14 8.21-47.27-1.94a69.29 69.29 0 0 1-18-18.08c-1.91-2.73-3.12-4.84-3.13-4.87h-.09Z"/><path fill="#282B26" d="m308.003 159.495 121.89-69s-5.16-6.56 3.45-9.37c0 0 6.41 2 10.77-.88a94.93 94.93 0 0 0 16-15.15l3.45.49a5.61 5.61 0 0 0 4.1 4.7s5.43 1.48 3.83 4.85c0 0 4.1-.23 2.77 5.46 0 0-.26 5.09 2.47 7.4l-1.63 2.69s-8.61-2.12-21.85 6.16c0 0-4.74 3.42-5.69 8.54 0 0-5.19 7.55-10-2l-120.68 72.19-8.88-16.08Zm-68.91 10.76s-2.37 2.79 2 2.16c0 0 9.65-1.89 16.79-8.93 0 0 3.1 1.87 10.48-.59 0 0 10.49-3.38 13.53 1.64a2.83 2.83 0 0 1-1.17 3.71s-2.35.92-3-.75c0 0-.72-1.7 1.76-2.53 0 0-3.79-3.07-12.31 1.38 0 0-7 3.81-8.5 7.31a13.16 13.16 0 0 0-8.93.21s-9.86 2.85-13.37-1.06a4.28 4.28 0 0 1-.28-6.1s1.8-2.47 3.83.34c.08-.04 1.14 1.49-.83 3.21Zm35.06 61.27s-3.61.63-.85-2.81c0 0 6.52-7.37 16.21-9.95 0 0 0-3.61 5.82-8.74 0 0 8.23-7.33 5.44-12.5a2.83 2.83 0 0 0-3.8-.87s-2 1.56-.85 2.94c0 0 1.1 1.48 3.08-.24 0 0 .73 4.82-7.43 9.91 0 0-6.81 4.06-10.61 3.62a13.17 13.17 0 0 1-4.7 7.59s-7.46 7.06-5.86 12.06a4.28 4.28 0 0 0 5.12 3.33s3-.3 1.65-3.48c-.02.02-.74-1.69-3.22-.86Zm-59.15-16.67 32-21.11 9.27 16.19-35.62 17.21s-1.71 1.33-5-5.61c-.04 0-2.21-4.4-.65-6.68Zm37.195-32.237 3.185-1.823 17.022 29.733-3.185 1.823z"/><path fill="#D74C83" d="m285.483 194.595 56.09-33.15s7.33 11-8.86 22.69l-37.28 26.61s-11.75 10.25-8.88-4.43c0 0 1.55-8.99-1.07-11.72Z"/><path fill="#E6E1C5" d="m285.113 194.545.2.21c2.51 2.62 1 11.44 1 11.52-.85 4.33-.5 7 1 7.86 2.7 1.56 8-3 8.23-3.21l37.26-26.6c16.19-11.73 9-22.9 8.92-23l-.12-.18-56.49 33.4Zm56.38-32.79a9.85 9.85 0 0 1 .69 1.53c1.27 3.5 2.49 11.9-9.61 20.67l-37.28 26.61c-.07.06-5.29 4.57-7.71 3.17a2.23 2.23 0 0 1-.95-1.23c-.46-1.26-.41-3.32.14-6.14.06-.32 1.13-6.69-.19-10.31a4.77 4.77 0 0 0-.78-1.39l55.69-32.91Z"/><path fill="#E3E6DE" d="m307.784 159.976.799-.457 8.508 14.867-.799.457zm2.398-1.346.798-.456 8.506 14.87-.799.456zm2.641-1.555.799-.457 8.508 14.868-.799.456zm2.93-1.629.798-.456 8.506 14.869-.8.457zm3.451-2.005.799-.457 8.507 14.868-.798.457zm3.711-2.147.798-.457 8.205 14.338-.798.457zm3.731-2.074.799-.458 8.202 14.34-.798.457zm4.244-2.456.799-.457 7.9 13.81-.8.457zm3.975-2.279.799-.457 7.897 13.8-.799.457zm4.251-2.407.799-.457 8.05 14.07-.798.456zm4.769-2.778.799-.457 7.748 13.54-.799.457zm5.324-2.98.798-.456 7.895 13.802-.798.456zm5.571-3.204.798-.457 7.895 13.802-.799.457zm5.563-3.217.798-.457 7.748 13.54-.798.456zm5.594-3.172.798-.457 7.748 13.54-.798.457zm6.896-3.983.798-.457 7.595 13.27-.799.458zm6.907-3.925.799-.457 7.594 13.27-.799.457zm7.156-4.13.799-.457 7.594 13.27-.799.458zm7.441-4.219.799-.456 7.288 12.742-.798.457zm7.7-4.403.798-.457 7.292 12.741-.799.457zm8.214-4.749.799-.456 7.142 12.48-.799.457zm9.031-5.135.798-.457 6.988 12.212-.798.457zm9.106-5.194 1.197-.686 7.445 13.01-1.197.686z"/><path fill="#E3E6DE" d="m257.863 190.005-10.06 6.46.25.39 10.05-6.46 173.12-98.3-.23-.4-173.13 98.31Zm1.63 2.28-10.62 6.08.23.4 10.62-6.08 171.92-98.01-.23-.4-171.92 98.01Zm1.37 2.39-10.62 6.08.22.4 10.62-6.08 171.92-98.01-.22-.4-171.92 98.01Zm-9.199 8.557 181.992-104.44.229.4L251.893 203.63zm11.929-3.777-10.62 6.08.23.4 10.62-6.08 171.46-98.81-.22-.4-171.47 98.81Zm1.37 2.39-10.62 6.07.22.4 10.62-6.07 171.43-99.5-.23-.39-171.42 99.49Z"/><circle cx="441.695" cy="86.365" r="1.83" fill="#DEBD53" transform="rotate(-29.78 441.695 86.365)"/><circle cx="447.555" cy="95.713" r="1.84" fill="#DEBD53" transform="rotate(-29.78 447.555 95.713)"/><circle cx="450.415" cy="81.083" r="1.83" fill="#DEBD53" transform="rotate(-29.78 450.415 81.083)"/><circle cx="456.305" cy="90.469" r="1.84" fill="#DEBD53" transform="rotate(-29.76 456.305 90.47)"/><circle cx="459.55" cy="75.36" r="1.84" fill="#DEBD53" transform="rotate(-29.76 459.55 75.36)"/><circle cx="465.411" cy="84.693" r="1.83" fill="#DEBD53" transform="rotate(-29.77 465.41 84.693)"/><ellipse cx="444.702" cy="72.311" fill="#DEBD53" rx="3.9" ry="1.83" transform="rotate(-29.77 444.702 72.31)"/><ellipse cx="454.121" cy="66.229" fill="#DEBD53" rx="3.9" ry="1.83" transform="rotate(-29.78 454.12 66.229)"/><path fill="#DBFAFF" d="M431.703 483.865s-115.1-3.09-97-118.24c5.88-37.34 31-62.83 67.4-71.48 34-8.09 83-6.85 114.39 8.7 38.84 19.26 63.78 60.12 57.33 103.84-5.61 38-37.46 80.38-79.26 80.38 0 0 36.86 53.88 75.67 12.79 28.44-30.09 29.29-77.85 25.77-116.51-1.43-15.66-5.88-89.71-25.47-93.18-48-8.51-86.38-30-98.19-81-9.34-40.51-8.24-109.16 33.52-130.34 66.35-33.67 204.26-6.27 221.14 77.65 9.73 48.25-40.41 141.52-100.31 130.22 0 0 27.82 101.83 1.07 167.88-9.76 24.08-23.7 49.43-44.43 66.08.34-.27 5.41 26.55 5.47 28.1 1.33 36.41-13.65 78.82-47.05 97.29-36.23 20-78.63 15.5-115.68 1.72 33.16-2 64.6-16.64 95.15-28.46 23.64-9.14 38.34-24.9 42.13-50.65.44-3-1.78-35.11-4.49-34.64-2.93.51-6.62 2.08-9.88 3.32-28.59 10.88-48.78.21-72.62-17.77-9.31-7-18.24-14.64-27.35-21.91-3.16-2.5-13.17-13.65-17.31-13.79Z"/><circle cx="578.063" cy="199.075" r="1.62" fill="#FFF"/><circle cx="616.743" cy="182.675" r="1.62" fill="#FFF"/><path fill="#DC4472" d="M661.194 199.485a17.908 17.908 0 0 1-.111 1.88c-.37 3.29-.35 12.82-5.62 16a20.79 20.79 0 0 1-3.7 1.79c.37 5.62.87 19.33-1.86 20.82-1.93 1.05-2.58 1.23-4.76.53-1.07-.34-2.77-.24-2.41-2.81a4.16 4.16 0 0 1 3.32-3.33 2.66 2.66 0 0 0 1-.34c.39-.17.41-2.7.46-3.52.1-1.83-.14-8-.19-9.81v-.64c-1.84.12-3.74 0-6 0 .35 6 .69 15.23-1.91 16.65-1.93 1.05-2.84 1.75-5 1.06-1.07-.34-2.5-.77-2.15-3.33a4.17 4.17 0 0 1 3.32-3.33 2.68 2.68 0 0 0 1-.34c.39-.17.41-2.7.45-3.52.1-1.83-.14-4.66-.19-6.49v-.68c-6.14.08-23.25 0-29.66-.43.36 5.81.78 18.94-1.88 20.39a6.46 6.46 0 0 1-4.78.72c-1.11-.14-2.29-.69-2.39-3-.1-2.31 2.32-3.14 3.32-3.33a2.67 2.67 0 0 0 1-.34c.39-.17.41-6 .45-6.84.1-1.83-.14-4.66-.18-6.49v-1.47c-2.054-.194-4.087-.43-6.1-.71.36 5.23 1 16.59-1.81 18.14-1.93 1.05-2.83 1.53-5 .83-1.07-.34-2.51-.54-2.16-3.1a4.17 4.17 0 0 1 3.32-3.33 2.67 2.67 0 0 0 1-.34c.39-.17.41-2.7.45-3.52.1-1.83-.14-4.66-.18-6.49 0-1.21-.07-2.15-.1-2.9l-.36-.07c-4.22-.78-8.19-7.09-9.64-11.3-1.05-3.06-.66-8.64-.66-11.89 0-1-6.78-.3-13.32-.79-4.86-.37-12.79-.37-16.49-4.81-2.29-2.75-2.06-8-1.77-11.05 1.36-14.08 12.09-9.17 21.57-10.26.3-5.77-.43-11.23.47-16.77a10.52 10.52 0 0 1 9.31-9 43.52 43.52 0 0 1 25.76.83c.188.094.372.197.55.31 5.26 3.33 6.78 8.25 7 12.81.2 3.78-.35 5.49-.35 9.3 0 6.84-1.18 14-.6 20.73 9.67 0 27.37.59 37 1.6a11.94 11.94 0 0 1 8.6 4.86c.129.166.25.34.36.52a13.64 13.64 0 0 1 1.62 6.6Z"/><ellipse cx="554.633" cy="171.025" fill="#422D2D" rx="7.96" ry="5.36"/><path fill="#49BDFF" d="M614.253 178.755s-7.85 14.91-36.1 15.3l.39 9s25.46 3.95 40.81-17.24l-5.1-7.06Zm-55.01 21.65-2.51 7.66s-1.16 3.55 2.51 3.66c0 0 2.64-.08 2-3.45l-2-7.87Z"/><path fill="#422D2D" d="m575.843 237.135-3.12-12.27h-.06c-.82-4.06-11.14-7.28-23.75-7.28s-22.81 3.18-23.74 7.21l-3.18 11-.39 1.36c-.1.18 0 .38 0 .57 0 6.09 12.33 11 27.3 11s27.12-4.94 27.12-11a1.09 1.09 0 0 0-.18-.59Z"/><path fill="#49BDFF" d="M549.003 233.145c10.49 0 19.39-2.22 22.57-5.3-3.18-3.08-12.08-5.3-22.57-5.3s-19.39 2.22-22.57 5.3c3.15 3.08 12.06 5.3 22.57 5.3Z"/><path fill="#FFF" d="M546.853 226.865h-.12c-2.88 1.94-4.87.09-5 0l-.06-.05h-.07c-3 1.79-4.48.17-4.55.1l-.05-.06h-.07a4.91 4.91 0 0 1-5.05.09l-.12.17a5.11 5.11 0 0 0 5.2 0c.3.28 1.86 1.55 4.68-.08a4.12 4.12 0 0 0 5.09 0 4.38 4.38 0 0 0 5.15-.12l-.12-.17a4.1 4.1 0 0 1-4.91.12Zm9.91 2.91h-.12c-2.88 1.94-4.87.09-5 0l-.06-.05h-.07c-3 1.78-4.49.17-4.55.1l-.05-.06h-.07a4.91 4.91 0 0 1-5.05.09l-.12.17a5.1 5.1 0 0 0 5.2 0c.3.28 1.86 1.55 4.68-.08a4.12 4.12 0 0 0 5.09 0 4.38 4.38 0 0 0 5.15-.12l-.12-.17a4.1 4.1 0 0 1-4.91.12Z"/><circle cx="584.753" cy="198.615" r="1.62" fill="#FFF"/><circle cx="594.563" cy="197.225" r="1.62" fill="#FFF"/><circle cx="605.063" cy="193.185" r="1.62" fill="#FFF"/><circle cx="613.263" cy="187.645" r="1.62" fill="#FFF"/><circle cx="580.543" cy="160.295" r="5.27" fill="#FFF"/><circle cx="594.053" cy="160.295" r="5.27" fill="#FFF"/><circle cx="580.473" cy="160.305" r="3.26" fill="#422D2D"/><circle cx="594.113" cy="160.305" r="3.26" fill="#422D2D"/><path fill="#DC4472" d="M587.643 142.435s9.39-60.22-6.87-60c0 0-10.53-2.06-9.62 20.15 0 0 .92 34.81 4.12 51.07l12.37-11.22Z"/><path fill="#FF5688" d="M579.863 86.555s-7.56.23-6.18 18.09c0 0 .69 26.33 3.21 39.39a31.1 31.1 0 0 1 7.79-3s6.17-56.54-4.82-54.48Z"/><path fill="#DC4472" d="M609.173 148.615s10.07-66.41-6.17-66.18c0 0-10.53-2.06-9.62 20.15 0 0 .92 34.81 4.12 51.07l11.67-5.04Z"/><path fill="#FF5688" d="M602.073 86.555s-7.56.23-6.18 18.09c0 0 .69 26.33 3.21 39.39 0 0 3.89 3.43 7.56 2.75-.01 0 7.77-62.78-4.59-60.23Zm-27.37 66.75s9.85 1.37 10.08-6c0 0-.34 5.84-10.76 5.5l.68.5Zm24.51-.8s-9.85 1.37-10.08-6c0 0 .34 5.84 10.76 5.5l-.68.5Zm-43.21 38.36s3.44-4.69 7.67.11c0 0 .8 4.24-3.32 4.81.04 0-4.77.8-4.35-4.92Z"/><path fill="#DC4472" d="M583.233 208.435s2.23 6.7.86 8.93c0 0 2.06-.86 1.55-6.87l-2.41-2.06Z"/><path fill="#DC4472" d="M585.643 210.005s.52 6-.17 9.27c0 0 2.23-5.67 2.06-8.76l-1.89-.51Z"/><path fill="#DC4472" d="M586.673 210.665s.52 6-.17 9.27c0 0 2.23-5.67 2.06-8.76l-1.89-.51Z"/><path fill="#DC4472" d="M587.533 211.525s.52 6-.17 9.27c0 0 2.23-5.67 2.06-8.76l-1.89-.51Z"/><path fill="#DC4472" d="M589.133 214.215s-1 4.58-.34 7.9a28.57 28.57 0 0 1 2.4-7.79l-2.06-.11Z"/><path fill="#DC4472" d="M590.393 214.905s-1 4.58-.34 7.9a28.57 28.57 0 0 1 2.4-7.79l-2.06-.11Z"/><path fill="#DC4472" d="M591.543 214.905s-1 4.58-.34 7.9a28.57 28.57 0 0 1 2.4-7.79l-2.06-.11Zm4.8 2.86s.11 5.61 1.72 7.67c0 0-1-4.81-.11-8.24l-1.61.57Zm4.01.69s.11 5.61 1.72 7.67c0 0-1-4.81-.11-8.24l-1.61.57Z"/><path fill="#DC4472" d="M601.503 219.005s.11 5.61 1.72 7.67c0 0-1-4.81-.11-8.24l-1.61.57Zm-4.01-1.12s.11 5.61 1.72 7.67c0 0-1-4.81-.11-8.24l-1.61.57Z"/><path fill="#DC4472" d="M598.753 217.425s-.11 5.72 1 7.67c0 0-.34-6.07.11-8.36l-1.11.69Z"/><path fill="#DC4472" d="M599.553 218.115s-.11 5.72 1 7.67c0 0-.34-6.07.11-8.36l-1.11.69Zm26.68 1.71s.11 5.6 1.72 7.66c0 0-1-4.8-.11-8.24l-1.61.58Z"/><path fill="#DC4472" d="M627.493 219.375s-.11 5.72 1 7.66c0 0-.34-6.06.11-8.35l-1.11.69Z"/><path fill="#DC4472" d="M628.293 220.055s-.11 5.72 1 7.66c0 0-.34-6.06.11-8.35l-1.11.69Z"/><path fill="#DC4472" d="M629.003 219.515s.11 6.18 1.72 8.45c0 0-1-5.3-.11-9.08l-1.61.63Z"/><path fill="#DC4472" d="M630.243 219.005s-.11 6.3 1 8.45c0 0-.34-6.68.11-9.2l-1.11.75Z"/><path fill="#DC4472" d="M631.003 219.765s-.11 6.3 1 8.45c0 0-.34-6.68.11-9.2l-1.11.75Zm-21.6-.62s.11 5.61 1.72 7.67c0 0-1-4.81-.11-8.24l-1.61.57Z"/><path fill="#DC4472" d="M610.543 219.715s.11 5.61 1.72 7.67c0 0-1-4.81-.11-8.24l-1.61.57Zm-4.01-1.14s.11 5.61 1.72 7.67c0 0-1-4.81-.11-8.24l-1.61.57Z"/><path fill="#DC4472" d="M607.793 218.115s-.11 5.72 1 7.67c0 0-.34-6.07.11-8.36l-1.11.69Z"/><path fill="#DC4472" d="M608.603 218.795s-.11 5.72 1 7.67c0 0-.34-6.07.11-8.36l-1.11.69Zm5.83 1.15s.11 5.61 1.72 7.67c0 0-1-4.81-.11-8.24l-1.61.57Z"/><path fill="#DC4472" d="M615.473 219.255s.23 6.87 1.83 8.93a28.69 28.69 0 0 1-.23-9.5l-1.6.57Z"/><path fill="#DC4472" d="M616.003 218.455s.23 6.87 1.83 8.93a28.69 28.69 0 0 1-.23-9.5l-1.6.57Z"/><path fill="#DC4472" d="M617.073 218.795s.23 6.87 1.83 8.93a28.69 28.69 0 0 1-.23-9.5l-1.6.57Zm-5.5.58s.11 5.61 1.72 7.67c0 0-1-4.81-.11-8.24l-1.61.57Z"/><path fill="#DC4472" d="M612.833 218.915s-.11 5.72 1 7.67c0 0-.34-6.07.11-8.36l-1.11.69Z"/><path fill="#DC4472" d="M613.633 219.605s.34 5.72 1.49 7.67c0 0-.8-6.07-.34-8.36l-1.15.69Zm5.5.45s.11 5.61 1.72 7.67c0 0-1-4.81-.11-8.24l-1.61.57Z"/><path fill="#DC4472" d="M620.273 219.005s.11 7.21 1.72 9.27a28.55 28.55 0 0 1-.11-9.85l-1.61.58Zm-1.94.71s-.11 5.72 1 7.67c0 0-.34-6.07.11-8.36l-1.11.69Zm13.85.04s.11 6.07 1.72 8.3c0 0-1-5.2-.11-8.92l-1.61.62Z"/><path fill="#DC4472" d="M633.213 219.005s.23 7.44 1.83 9.67a33.56 33.56 0 0 1-.23-10.29l-1.6.62Z"/><path fill="#DC4472" d="M633.783 218.135s.23 7.44 1.83 9.67a33.56 33.56 0 0 1-.23-10.29l-1.6.62Z"/><path fill="#DC4472" d="M634.823 218.515s.23 7.44 1.83 9.67a33.56 33.56 0 0 1-.23-10.29l-1.6.62Zm-3.44.86s.34 6.2 1.49 8.3c0 0-.8-6.57-.34-9l-1.15.7Zm5.5.5s.11 6.07 1.72 8.3c0 0-1-5.2-.11-8.92l-1.61.62Z"/><path fill="#DC4472" d="M638.003 218.765s.11 7.81 1.72 10a33.4 33.4 0 0 1-.11-10.66l-1.61.66Zm-1.93.74s-.11 6.2 1 8.3c0 0-.34-6.57.11-9l-1.11.7Zm4.7-.1s.11 6.07 1.72 8.3c0 0-1-5.2-.11-8.92l-1.61.62Z"/><path fill="#DC4472" d="M641.803 218.665s.23 7.44 1.83 9.67a33.56 33.56 0 0 1-.23-10.33l-1.6.66Z"/><path fill="#DC4472" d="M642.373 217.795s.23 7.44 1.83 9.67a33.56 33.56 0 0 1-.23-10.29l-1.6.62Z"/><path fill="#DC4472" d="M643.403 218.165s.23 7.44 1.83 9.67a33.56 33.56 0 0 1-.23-10.29l-1.6.62Zm-3.4.84s.34 6.2 1.49 8.3c0 0-.8-6.57-.34-9l-1.15.7Zm5.46.53s.11 6.07 1.72 8.3c0 0-1-5.2-.11-8.92l-1.61.62Z"/><path fill="#DC4472" d="M646.613 218.415s.11 7.81 1.72 10a33.4 33.4 0 0 1-.11-10.66l-1.61.66Zm-1.95.75s-.11 6.2 1 8.3c0 0-.34-6.57.11-9l-1.11.7Zm6.64-2.43s.23 8.09 1.83 10.51a39.63 39.63 0 0 1-.23-11.19l-1.6.68Z"/><path fill="#DC4472" d="M651.883 215.795s.23 8.09 1.83 10.51a39.63 39.63 0 0 1-.23-11.19l-1.6.68Z"/><path fill="#DC4472" d="M652.913 216.195s.23 8.09 1.83 10.51a39.63 39.63 0 0 1-.23-11.19l-1.6.68Zm2.74-.57s.23 8.09 1.83 10.51a39.63 39.63 0 0 1-.23-11.19l-1.6.68Z"/><path fill="#DC4472" d="M654.623 215.625s.23 8.09 1.83 10.51a39.63 39.63 0 0 1-.23-11.19l-1.6.68Z"/><path fill="#DC4472" d="M654.163 217.275s-.11 6.74 1 9c0 0-.34-7.14.11-9.84l-1.11.84Zm-29.99 1.64s.11 7.21 1.72 9.27a28.55 28.55 0 0 1-.11-9.85l-1.61.58Z"/><path fill="#DC4472" d="M625.083 219.005s.11 7.21 1.72 9.27a28.56 28.56 0 0 1-.11-9.85l-1.61.58Zm-3.78.48s.11 6.41 1.72 8.47a24.92 24.92 0 0 1-.11-9l-1.61.53Z"/><path fill="#DC4472" d="M622.333 219.255s.11 6.3 1.26 8.24c0 0-.34-6.07.11-8.36l-1.37.12Z"/><path fill="#DC4472" d="M623.363 219.485s.34 6.76 1.49 8.7c0 0-.8-6.07-.34-9.39l-1.15.69Zm36.99-11.22s-1.49 14.88 3.43 18.09c0 0-6.76-2.52-5.27-15.57l1.84-2.52Z"/><path fill="#DC4472" d="M658.523 212.845s-.46 9.5 3.32 13.17c0 0-5.61-3-4.12-14l.8.83Z"/><path fill="#DC4472" d="M657.713 214.565s-.23 6.87 2.4 11.45c0 0-4.12-3.78-3.21-11.91l.81.46Z"/><path fill="#DC4472" d="M657.143 215.005s-.69 6.53 1.95 11.11c0 0-4.12-3.78-3.21-11.91l1.26.8Zm-42.65-58.61s-.17 6.87 2.23 11.34c0 0-3.26-2.75-3.43-8.59l1.2-2.75Z"/><path fill="#DC4472" d="M614.003 159.315s-.17 6.87 2.23 11.34c0 0-3.26-2.75-3.43-8.59l1.2-2.75Z"/><path fill="#DC4472" d="M613.803 163.615s-.17 6.87 2.23 11.34c0 0-3.26-2.75-3.43-8.59l1.2-2.75Z"/><path fill="#DC4472" d="M613.293 165.675s-.17 6.87 2.23 11.34c0 0-3.26-2.75-3.43-8.59l1.2-2.75Zm47.23 29.54s2.92 13.05 15.29 10.48c0 0-11 5.5-17.35-6.53l2.06-3.95Zm-62.8-50.72s1.37-2.52 1.6-9.39c0 0 .23 7.33 1.37 11.22l-2.97-1.83Z"/><path fill="#DC4472" d="M599.553 145.865s1.37-2.52 1.6-9.39c0 0 .23 7.33 1.37 11.22l-2.97-1.83Z"/><path fill="#DC4472" d="M601.153 146.785s1.37-2.52 1.6-9.39c0 0 .23 7.33 1.37 11.22l-2.97-1.83Z"/><path fill="#DC4472" d="M603.003 147.005s1.37-2.52 1.6-9.39c0 0 .23 7.33 1.37 11.22l-2.97-1.83Z"/><path fill="#DC4472" d="M604.823 147.465s1.37-2.52 1.6-9.39c0 0 .23 7.33 1.37 11.22l-2.97-1.83Z"/><path fill="#514944" d="M464.433 311.005h-.55l-.8.1h-.13l-.33.06a8.92 8.92 0 0 0-1 .28c-.73.09-4.27.79-8 6.31a2.32 2.32 0 0 0-1.67-.6 1.92 1.92 0 0 0-1.53 1.16v.19a18.19 18.19 0 0 0-.62 4.62 13.5 13.5 0 0 0 .16 2c-1.65 3.25-5.27 9.07-8.08 11.69-.34.29-6.65 5.67-12.22 11.55a73.39 73.39 0 0 0-13.66 18.84c-5 9.91-10.49 27.57-10.75 43 0 .39-.36 6-.36 12.25a100.09 100.09 0 0 0 .51 11.13v.14c0 .18 1.09 4.32 4.28 6a6.23 6.23 0 0 0 4.49.44 3.51 3.51 0 0 0 1.11 2.3 3.08 3.08 0 0 0 2.82.52h-.19c.52 0 5.05-.57 6.5-10.51a5.17 5.17 0 0 0 3.46-2.93 5.63 5.63 0 0 0 .39-2.12 14.9 14.9 0 0 0-2.34-6.94c0-.74.06-1.47.06-2.2v-.52c0-.27.28-4.32.59-8.32v1.6l.18 1.62.08.59.09.56a44.82 44.82 0 0 0 5.63 16l.08.13v-.07l.56.89.39.58v2.28c0 3-.08 6.12-.16 9.11-.07 2.69-.14 5.24-.15 7.7v.63a64.24 64.24 0 0 0 .52 9.23v.08a7.67 7.67 0 0 0 3.14 5c.8.9 4.75 4.42 18.27 6.07 5.61.59 8.54-.22 11.23-1.61h.11a6.81 6.81 0 0 0 2.71-4.28 7 7 0 0 0-1.83-5.44 12.49 12.49 0 0 0-2.18-2l-2-1.61s-1.07-1-1.21-4.13a7.08 7.08 0 0 0 2.57 3.25c.8.9 4.75 4.42 18.27 6.07 5.6.59 8.54-.22 11.23-1.61h.11a6.8 6.8 0 0 0 2.71-4.28 7 7 0 0 0-1.83-5.45 12.57 12.57 0 0 0-2.18-1.95l-2-1.61s-1.2-1.12-1.2-4.77v-2.99c0-1.77.1-3.93.28-6.58 4.48-2.94 11.19-9.67 11.19-23.64 0-.74-.02-1.504-.06-2.29v-.42a53.76 53.76 0 0 0-2.45-14.43c3.67-2 5.93-4.69 6.67-8.09.181-.845.272-1.706.27-2.57 0-6.92-5.38-13.63-5.91-14.28a5.47 5.47 0 0 1-.54-1.18 5.39 5.39 0 0 0-.88-1.67c-1.42-2.1-4.42-3-5.51-3.26a9.33 9.33 0 0 0-2.77-2.62l-.27-.12h-.3a4.52 4.52 0 0 0-3.76 2.16l-.09.17v.19a5.76 5.76 0 0 0 0 .71v.3l-.28.13c-.25-.46-.5-.92-.77-1.36a79.06 79.06 0 0 1-7.66-16 15.18 15.18 0 0 1-1-5.36 28.18 28.18 0 0 1 .62-5.16l.15-.81a26.82 26.82 0 0 0 1.27-8c0-3.8-1-8.15-4.64-11.11a9.86 9.86 0 0 0-1.8-1.09l-.17-.09a14.94 14.94 0 0 0-3.81-1.34h-.07l-1-.15h-2l.01-.07Zm-.36 2.24h2.08l.79.12h.07a12.64 12.64 0 0 1 3.22 1.14l.19.1a7.9 7.9 0 0 1 1.41.84c3 2.41 3.79 6.1 3.79 9.4a25.32 25.32 0 0 1-1.15 7.31v.08l-.18 1a30 30 0 0 0-.64 5.54 17.47 17.47 0 0 0 1.11 6.14 82 82 0 0 0 7.85 16.37c.43.7.83 1.42 1.23 2.18l.5.95 3.68-1.78-.21-.9a2.6 2.6 0 0 1-.08-.67v-.19a2.67 2.67 0 0 1 1.58-.78 9.28 9.28 0 0 1 2.12 2.07l.26.33.41.08c.91.17 3.5.95 4.5 2.41l.06.09.07.07c.218.305.386.642.5 1a7.24 7.24 0 0 0 .82 1.69c.06.07 5.45 6.62 5.45 12.93a9.865 9.865 0 0 1-.22 2.11c-.64 3-2.76 5.31-6.3 7l-.86.41.28.91a53 53 0 0 1 2.6 14.9v.39c.04.793.06 1.563.06 2.31 0 12.67-5.69 19-10.63 22l-.48.3v.56c-.22 3-.33 5.34-.33 7.29v3c0 4.59 1.68 6.21 2 6.51l2 1.63a11 11 0 0 1 1.82 1.6 5.25 5.25 0 0 1 1.39 3.25c.01.153.01.307 0 .46a4.53 4.53 0 0 1-1.72 2.75c-2 1-4.35 1.92-9.89 1.34-13.73-1.68-16.89-5.36-16.92-5.4l-.13-.15-.19-.12a5.44 5.44 0 0 1-2.26-3.65 64 64 0 0 1-.49-8.84v-4.58l-2.72.05-.08 1c-.42 4.77-.62 8.25-.62 10.92v2.99c0 4.61 1.69 6.23 2 6.52l2 1.62c.664.464 1.275 1 1.82 1.6a5.25 5.25 0 0 1 1.39 3.25c.01.153.01.307 0 .46a4.53 4.53 0 0 1-1.72 2.75c-2 1-4.35 1.92-9.89 1.34-13.73-1.68-16.89-5.36-16.92-5.4l-.13-.15-.19-.12a5.44 5.44 0 0 1-2.26-3.66 62.46 62.46 0 0 1-.49-8.85v-.62c0-2.44.08-5 .15-7.65.08-3 .16-6.11.16-9.17v-3l-.2-.3-.55-.81-.55-.87a42.58 42.58 0 0 1-5.33-15.18l-.08-.55v-.05l-.07-.48-.18-1.58-.05-.62v-.18c-.11-2.29-.16-6.08-.16-11.26v-4l-2.19-.24c-.67 3-1.13 5.48-1.43 7.57-.5 3.47-1.23 15-1.26 15.52v.08c0 1 0 1.95-.06 3v.34l.17.29c1.88 3.14 2.6 5.83 2 7.38a3.17 3.17 0 0 1-2.35 1.76h-.17l-.93.62-.06.5c-1.12 8.63-4.51 9.13-4.54 9.14h-.16a1.15 1.15 0 0 1-.89-.05c-.23-.19-.45-.82-.38-2l.09-1.6-1.85.58h-.08a4.42 4.42 0 0 1-3.79 0c-2.18-1.13-3-4.15-3.14-4.49a98.16 98.16 0 0 1-.49-10.74c0-6.35.34-12.08.35-12.17.23-14.39 5.47-32 10.51-42.05a71.23 71.23 0 0 1 13.26-18.18c5.63-5.94 12-11.38 12.09-11.43 3.1-2.87 6.92-9 8.65-12.5l.08-.19.12-.3-.06-.31a10.79 10.79 0 0 1-.17-2 16.41 16.41 0 0 1 .41-3.54c.208.193.399.403.57.63l1 1.28.83-1.39c3.66-6.1 7.08-6.46 7.12-6.47h.19l.16-.05a6.8 6.8 0 0 1 .91-.25h.36l.64-.24Z"/><path fill="#42BBA2" d="M491.183 409.955c-1.61 15.4-2.67 25.12-2.4 30.93-.3 5.31 1.62 6.74 1.62 6.74 2.07 1.75 3.17 2.37 4 3.37 4 4.94-.64 8.11-.64 8.11-2.31 1.2-5 2.08-10.58 1.49-14.64-1.79-17.67-5.81-17.67-5.81a6.59 6.59 0 0 1-2.79-4.4c-1.1-7.44 0-18.57-.21-28.92-.21-12.66-1.94-14.47-1.94-16.76l30.61 5.25Z"/><path fill="#17A786" d="M491.143 457.945c-14.64-1.79-17.67-5.81-17.67-5.81a6.59 6.59 0 0 1-2.79-4.4c-1.1-7.44 0-18.57-.21-28.92a66.54 66.54 0 0 0-1.11-12.59l-8.8-1.51c0 2.29 1.74 4.1 1.94 16.76.17 10.36-.89 21.49.21 28.92a6.59 6.59 0 0 0 2.79 4.4s3 4 17.67 5.81c5.61.59 8.27-.29 10.58-1.49a5.89 5.89 0 0 0 1-1 30.36 30.36 0 0 1-3.61-.17Z"/><path fill="#42BBA2" d="M463.493 419.705c-1.61 15.4-2.67 25.12-2.41 30.93-.3 5.32 1.62 6.74 1.62 6.74 2.07 1.75 3.17 2.37 4 3.37 4 4.93-.64 8.11-.64 8.11-2.31 1.2-5 2.09-10.58 1.49-14.64-1.79-17.67-5.82-17.67-5.82a6.58 6.58 0 0 1-2.79-4.4c-1.1-7.44 0-18.57-.21-28.93-.21-12.66-1.94-14.47-1.94-16.76l30.62 5.27Z"/><path fill="#42BBA2" d="M472.533 314.685c-3.63-2.55-7.83-3.1-10.74-2.07 0 0-6 .29-10.82 12.92-1.55 3.1-5.32 9.3-8.42 12.18 0 0-13.73 13.51-14.58 27.28 0 0-.72 34.93-.24 45 0 0 .72 16.14 11.08 25.53 0 0 23.85 6.27 45.53-1.69 0 0 17-4.1 15.81-27.46 0 0 0-18-12.85-37 0 0-.52-3.38-3.77-8.71a80.51 80.51 0 0 1-7.75-16.17c-1.78-4.84-.89-8.42-.26-12 0 .12 4.25-12.72-2.99-17.81Z"/><path fill="#17A786" d="M426.163 402.265c2.36-16.54 15.05-53.34 13.59-60.85a69.94 69.94 0 0 0-22.75 26.29c-5.09 10.08-10.39 27.78-10.63 42.53 0 0-.89 14.47.15 23.19 0 0 1.92 7.83 8.42 5.32 0 0 10.19-2.44 10-21-.04-.05.72-12.01 1.22-15.48Z"/><path fill="#42BBA2" d="M490.513 363.755s5-1.7 10 5.32c0 0 12.59 16-4.91 22.85l-20.34-20s10.82-7.51 15.25-8.17Z"/><path fill="#17A786" d="M454.153 467.375c-1.27-2.44-4.93-3.42-6.79-5.14-3.34-3.11-2.09-8.75-1.72-13 .4-4.66 2.52-8.92 2.38-13.65-.12-4.07-1.93-6.87-3.46-10.55-2.12-5.07-2.1-10.54-1.5-16 .6-5.46 2.93-10.41 4.07-15.65.68-3.11 2.07-5.91 3.55-11.82 4.14-14.47 1.77-21.27 1.18-39.58-.32-9.94 5-29.24 18.9-28.38a11.72 11.72 0 0 0-9-1s-6 .29-10.82 12.92c-1.55 3.1-5.32 9.3-8.42 12.18 0 0-34.71 29.39-14.58 27.28 0 0-.72 34.93-.24 45 0 0 .53 11.68 7.06 21v.21c.17 10.36-.89 21.49.21 28.93a6.58 6.58 0 0 0 2.79 4.4s2.93 3.88 16.87 5.71a6.06 6.06 0 0 0-.48-2.86Z"/><ellipse cx="464.563" cy="324.695" fill="#FFF" rx="2.88" ry="4.76"/><path fill="#514944" d="M461.373 324.695c0 2.84 1.4 5.07 3.19 5.07s3.19-2.23 3.19-5.07c0-2.84-1.4-5.07-3.19-5.07s-3.19 2.22-3.19 5.07Zm.62 0c0-2.41 1.18-4.45 2.57-4.45s2.57 2 2.57 4.45-1.18 4.45-2.57 4.45-2.56-2.04-2.56-4.45h-.01Z"/><ellipse cx="465.443" cy="325.535" fill="#514E42" rx="1.77" ry="3.32"/><ellipse cx="473.273" cy="324.835" fill="#FFF" rx="2.88" ry="4.76"/><path fill="#514944" d="M470.083 324.835c0 2.84 1.4 5.07 3.19 5.07s3.19-2.23 3.19-5.07c0-2.84-1.4-5.07-3.19-5.07s-3.19 2.24-3.19 5.07Zm.62 0c0-2.41 1.18-4.45 2.57-4.45s2.57 2 2.57 4.45-1.18 4.45-2.57 4.45-2.57-2.03-2.57-4.45Z"/><ellipse cx="474.163" cy="325.685" fill="#514E42" rx="1.77" ry="3.32"/><path fill="#17A786" d="M415.523 436.825s-1.48 5.91 2.36 5c0 0 5.91-.29 5.91-16.24l-8.27 11.24Z"/><path fill="#17A786" d="M423.723 419.005s7.75 10.41.07 12.48l-1.79 1.2s-3-9.23 1.72-13.68Zm68.75-41.26a35.89 35.89 0 0 1 6.2 12.41s8.12-3.25 1.33-10.34c0 0-2.21-2.96-7.53-2.07Zm-10.6-21.44a54.16 54.16 0 0 0-11.11.47l8.86 20.68s6.5 3.25 10-2.36c.04-.01-2.73-16.72-7.75-18.79Zm-26.69-34.53s-2.66-5.1-3.77-2.88c0 0-2.22 7.53 2 10.63l1.77-7.75Z"/><path fill="#514944" d="M426.603 408.005h.89a90.07 90.07 0 0 1 5.73-34.59l-.82-.34a91 91 0 0 0-5.8 34.93Zm63.91-31.89c.05.06 5.07 6.08 8.1 19.53l.86-.2c-3.09-13.68-8.08-19.66-8.29-19.91l-.67.58Z"/><path fill="#514944" d="M478.123 354.745a1.5 1.5 0 0 0 .54 1.1l1.65 20.78v.07c0 1.91 4.26 2.12 6.09 2.12s6.09-.21 6.09-2.12v.06l2.39-21c.256-.27.4-.628.4-1 0-2.58-7.14-2.71-8.57-2.71-1.43 0-8.59.12-8.59 2.7Zm4 21.94v.12-.12Zm4.62-22.87a17 17 0 0 1 6.58 1h-.05l-.09.38-2.4 21.22a11.08 11.08 0 0 1-4.33.63 11.26 11.26 0 0 1-4.32-.62l-1.71-21.55-.2-.13a17.29 17.29 0 0 1 6.47-.94l.05.01Z"/><path fill="#DC443F" d="m494.233 354.745-14.63-.15 1.75 22a.28.28 0 0 0 0 .06c0 .68 2.33 1.23 5.21 1.23s5.21-.55 5.21-1.23l2.46-21.91Z"/><path fill="#42BBA2" d="M490.073 361.765s5.1-.45 6.65 1.55c0 0 3.77 2.88.44 7.09l-1.33 6.6s-3.25 1.55-7.38-1.25c0 0-2.81-2.07.74-3.4 0 0-3.1-1.11-1.55-4a3.86 3.86 0 0 1 2.66-1.11s-3.54-.44-3.1-4a3.49 3.49 0 0 1 2.87-1.48Z"/><path fill="#C2322B" d="m486.393 354.885-6.68-.07 1.75 22a.28.28 0 0 0 0 .06c0 .65 2.1 1.18 4.78 1.23l.15-23.22Z"/><ellipse cx="486.843" cy="354.745" fill="#FFF" rx="7.68" ry="1.82"/><path fill="#514944" d="m488.853 337.875.06 17.15-3.1-.34v-.8c0-3.63.08-8.88.08-11.9v-1.76l-12.89-3.84.89-3 14.96 4.49Zm-1.43 24.05a2.7 2.7 0 0 0-.9 2.09v.21a4.32 4.32 0 0 0 2 3.09 3.38 3.38 0 0 0-1.18.85 2.63 2.63 0 0 0-.64 1.77v.29a3.21 3.21 0 0 0 .86 2.15c.108.082.226.153.35.21a2.25 2.25 0 0 0-.78 1.73c-.006.1-.006.2 0 .3v.05a2.36 2.36 0 0 0 .62 1.53c.79.91 2.22 1.42 4.23 1.52v-.89c-2.17-.1-3.15-.7-3.59-1.19a1.47 1.47 0 0 1-.42-1v-.09a1.58 1.58 0 0 1 1.22-1.73l-.16-.87a1.14 1.14 0 0 1-.94-.25 2.33 2.33 0 0 1-.56-1.53 1.85 1.85 0 0 1 .41-1.44 3.78 3.78 0 0 1 2.28-1v-.89c-2.45 0-2.87-2.61-2.88-2.72a1.85 1.85 0 0 1 .6-1.55c1.6-1.45 5.71-.83 5.76-.83l.14-.88c-.12-.01-4.51-.67-6.42 1.07Zm-37.56-38.6a14.29 14.29 0 0 0 1.15 5.52l.79-.4a13.64 13.64 0 0 1-1.06-5.12h-.88Z"/><path fill="#17A786" d="M468.693 445.385a42.13 42.13 0 0 0 18.31-12.7s-7.09 6.5-23.33 5l5.02 7.7Z"/><path fill="#514944" d="M461.863 437.415h-.4l-.07.4a64.09 64.09 0 0 0 0 16.3l.88-.1a75 75 0 0 1-.49-8.45 54.08 54.08 0 0 1 .43-7.21c2.53.13 17.12.55 28.66-6.74l-.47-.75c-12.4 7.77-28.4 6.56-28.54 6.55Z"/><path fill="#FF6068" d="m473.393 335.495 13.51 4.14c.09.82 0 15.07 0 15.07l1.32.15v-16.24l-14.35-4.39-.48 1.27Z"/><path fill="#FF0" d="M235.433 571.895s-3.38-37.68-80.43-48.89a17.83 17.83 0 0 0 9 14.62s-8.44 6.75 5.06 15.19c0 0-11.25 9.56 8.44 18 0-.04 22.65 11.52 57.93 1.08Zm237.34 0s3.37-37.68 80.43-48.93a17.83 17.83 0 0 1-9 14.62s8.44 6.75-5.06 15.19c0 0 11.25 9.56-8.44 18 0 0-22.7 11.56-57.93 1.12Z"/></g></svg>