<svg xmlns="http://www.w3.org/2000/svg" viewBox="0 0 90 118"><g fill="none" transform="translate(.049)"><path fill="#A80058" d="M3.861 27.49S-5.299 15 8.721 1.57c0 0 .79-.6.66.21-.62 3.76-2.68 16.22 4.06 24.44l-9.58 1.27Zm81.67 0s9.16-12.49-4.86-25.92c0 0-.79-.6-.66.21.62 3.76 2.68 16.22-4.06 24.44l9.58 1.27Z"/><path fill="#000" d="M89.361 17.6a1.09 1.09 0 0 0-1-1 1 1 0 0 0-.88.53 1 1 0 0 0-.69-.29 1 1 0 0 0-.86.5 1 1 0 0 0-1.57 0 1 1 0 0 0-.86-.5 1 1 0 0 0-.71.31 1 1 0 0 0-.89-.54 1 1 0 0 0-.72.32 1 1 0 0 0-.85-.48 1.08 1.08 0 0 0-1 1c-1.09 6.77-7.38 7.7-11.54 7.65a90.03 90.03 0 0 0-5.2-5.43c-3.47-3.16-5.68-5.18-7.73-7.3C47.521 4.83 45.341 0 45.341 0c-.56 1.1-2.06 4.29-8.67 11.35-2.08 2.22-5.32 5.43-8.36 8.3 0 0-2.34 2.38-4.79 5.35-3.77.27-12.12.32-13.4-7.57a1.08 1.08 0 0 0-1-1 1 1 0 0 0-.85.48 1 1 0 0 0-.72-.32 1 1 0 0 0-.89.54 1 1 0 0 0-1.57.21 1 1 0 0 0-1.57 0 1 1 0 0 0-.86-.5 1 1 0 0 0-.69.29 1 1 0 0 0-.88-.53 1.09 1.09 0 0 0-1 1s-2.27 16.4 15.86 19.99a30.11 30.11 0 0 0-1.87 16s1.59 16.66 20.4 21.7a19.53 19.53 0 0 0-4 2.45 19.53 19.53 0 0 0-2.17 2.17c-2.93 3.82-6 4.17-6 4.17a7 7 0 0 0 3.48-.44 8 8 0 0 1-3.4 2.07 7.34 7.34 0 0 0 2.62-.41 33.11 33.11 0 0 0-2 7.27c-.29 1.06-1.21 6 2.19 5.94 3.4-.06 3.86-2.64 3.31-4.83.74-4.06 2.16-9.39 6.56-12.72 0 1.79.24 29.2.12 31a24 24 0 0 0-2.24 1.7c-2.2 2-.33 3.89 3.7 4 6.71.2 7.9-2 8-3.21 0-2.22-.1-9.1-.12-9.1 0-1.5 0-2.95.1-3.82.1-.87.51-1.09 1-1.11h.08c.49 0 .89.34 1 1.11.11.77.06 2.32.1 3.82 0 0-.16 6.88-.12 9.1.11 1.24 1.3 3.41 8 3.21 4-.15 5.9-2.08 3.7-4a18.79 18.79 0 0 0-2.16-1.35c-.11-1.85 0-29.53 0-31.31v-.48c.4.08.63.11.63.11a19.17 19.17 0 0 0 4.43 0 9.14 9.14 0 0 1 5.66 1.68 7.12 7.12 0 0 0-2.36-2.13 7.91 7.91 0 0 1 3.69 1.11 7.26 7.26 0 0 0-2.19-1.73 33.06 33.06 0 0 0 6.81-3.4c1-.5 5-2.75 2.93-5.61a4.85 4.85 0 0 0-.51-.77c.3-.38 1.5-2.34.66-3.08-.84-.74-2-.14-3.46 2.12l-.07.08a1.18 1.18 0 0 0-1.64-.29s-.79.47-.79 2.74c-3.42 2.14-8.18 4.6-13.46 3.76 19-5.31 20.18-21.51 20.18-21.51a32.52 32.52 0 0 0-1.74-16.39c16.44-4.16 14.36-19.61 14.36-19.61Z"/><ellipse cx="40.551" cy="23.03" fill="#FFFFCF" rx="3.58" ry="4.78"/><ellipse cx="40.551" cy="23.03" fill="#000" rx="2.09" ry="2.79"/><ellipse cx="48.981" cy="23.03" fill="#FFFFCF" rx="3.58" ry="4.78"/><ellipse cx="48.981" cy="23.03" fill="#000" rx="2.09" ry="2.79"/><circle cx="44.771" cy="29.25" r="1.03" fill="#FF005D"/><path fill="#F09" d="M50.131 37.46a100.68 100.68 0 0 0 19.73-2.6A23.29 23.29 0 0 1 53.651 54a10.12 10.12 0 0 0-7.55-3.11 10.11 10.11 0 0 0-7.57 3.11 23.3 23.3 0 0 1-16.3-19.17 100.87 100.87 0 0 0 20.07 2.61s4.04.22 7.83.02Z"/><path fill="#A80058" d="M46.101 50.9a10.11 10.11 0 0 0-7.57 3.1 25 25 0 0 0 15.12 0 10.12 10.12 0 0 0-7.55-3.1Z"/><rect width="10.08" height="10.08" x="40.551" y="78.59" fill="#F09" rx="3.75"/><path fill="#FFF" d="M47.771 85.28a.34.34 0 0 0-.47.12 2 2 0 0 1-3.42 0 .34.34 0 0 0-.59.34 2.66 2.66 0 0 0 4.6 0 .34.34 0 0 0-.12-.46Zm-5.97-3.69a1.4 1.4 0 1 0 2.79-.236 1.4 1.4 0 0 0-2.79.236Zm4.78 0a1.4 1.4 0 1 0 2.79-.236 1.4 1.4 0 0 0-2.79.236Z"/></g></svg>