<svg xmlns="http://www.w3.org/2000/svg" viewBox="0 0 786 229"><g fill="none" transform="translate(-.002)"><path fill="#FF0" d="M142.262 137.93s66.31-14 66.31-40 5.62-64 41.86-64c10.67 0 41-7.41 105.24-9 154-3.81 379-4 379-4s51 10 51 48 6 116-51 116-270 5-323 5-147.5 6.5-154 0c-3.36-3.36-11.86-3.3-23.18-13-10.56-9-24.1-35-24.1-35s-12.08 8.46-32.37 7c-27.82-2-35.76-11-35.76-11"/><path fill="#926F35" d="M140.322 186.17c0 6.73-.16 17.42-.06 33.21h-10.74v-8.13c-.06-1.71-.06-2.07-.06-3.64 0-2.91-.79-5-4.68-4.95-4.19 0-4.05 3.51-4.09 6.71v10h-11.38c.1-15.74.23-27.25.28-34"/><path fill="#000" d="M103.762 228.69s-.55-4.54 3.59-5.14v-7.31s-.26-2.77 2-2.88h11.38s1.86.21 1.86 2.89v7.63s1.15 1.26.93 4.82m22.48-.01s.56-4.54-3.59-5.14v-7.31s.26-2.77-2-2.88h-11.41s-1.86.21-1.86 2.89v7.63s-1.15 1.26-.93 4.82"/><path fill="#00D4DE" d="M140.752 205.49c9.42-1.15 16-4.29 21.52-8.84 18.66-15.39 21.61-49 20.71-77.52 0-43.37-15-76.79-59.16-76.21-44.21-.58-59 33.35-59 79.28-.68 36 6.9 77.14 45.91 83.19.04 0 15.51 2.3 30.02.1"/><path fill="#00F2F2" d="M117.642 205.39c-39-6.05-44.26-53.55-44.79-83.19-.49-27.57 3.7-79.25 54.42-79.25h-3.46c-44.21-.58-59 33.35-59 79.28-.68 36 6.9 77.14 45.91 83.19a123 123 0 0 0 19.52 1 118 118 0 0 1-12.6-1.03"/><ellipse cx="126.332" cy="135.97" fill="#FF3560" rx="32.12" ry="23.45"/><path fill="#E31451" d="M126.332 139.15a21 21 0 0 0-20.09 14.3 36.81 36.81 0 0 0 40.19 0 21 21 0 0 0-20.1-14.3"/><path fill="#00F2F2" d="M131.892 205.39c39-6.05 49.79-47.16 49.11-83.19 0-44.73-10.31-78-58.75-79.25h3.46c44.21-.58 59 33.35 59 79.28.68 36-6.9 77.14-45.91 83.19a123 123 0 0 1-19.52 1 118 118 0 0 0 12.61-1.03"/><path fill="#B3C535" d="M71.002 182.25s14 9.62 44 10.33a11.15 11.15 0 0 1 6.56 2.85c2.21 2.16 3.42 6.14 3.42 11.4l-50.7 5.38s-.36-17.14-3.28-29.96"/><path fill="#B3C535" d="M178.002 183.69s-12.24 7.69-44.66 8.89a11.15 11.15 0 0 0-6.55 2.85c-2.21 2.16-3.42 6.14-3.42 11.4l50.7 5.38s1.01-15.7 3.93-28.52"/><path fill="#FFF" d="M117.482 110.43s-34.5.16-38.58 37.87c0 0-1.45 5.45 1.62 12.86 0 0 3.37 6.33 7 1.28 0 0 4 7.58 7.1.92 0 0 4 2.25 1.79-5 0 0-7.12-14.63-1.94-28.91.03 0 3.41-12.71 23.01-19.02m18.07-.56s34.5.16 38.58 37.87c0 0 1.45 5.45-1.62 12.86 0 0-3.37 6.33-7 1.28 0 0-4 7.58-7.1.92 0 0-4 2.25-1.79-5 0 0 7.12-14.63 1.94-28.91-.02 0-3.41-12.71-23.01-19.02"/><path fill="#FF3560" d="M116.312 136.27c-2.52 2.65-4.43 5.27-9 6.78 0 0-15.48 4.21-11-11.27 0 0 6.28-20.63 31.85-20.63 0 0 22.43.45 27.59 20.63 0 0 2 8.07-2 10.77 0 0-8.07 6.06-13.91-3.36-1.15-2.13-4.73-6.16-6.62-7.18a12.41 12.41 0 0 0-11.66-.22 30.6 30.6 0 0 0-5.25 4.48"/><path fill="#FFF" d="M132.482 111.56a26 26 0 0 0-4.28-.51c-11.14 0-18.61 3.91-23.5 8.33a4.42 4.42 0 0 0 3.56 2.2c2.1 0 3.9-1.92 4.69-4.66.79 2.74 2.59 4.66 4.69 4.66 2.28 0 4.21-2.27 4.88-5.4.66 3.13 2.59 5.4 4.88 5.4 2.45 0 4.49-2.61 5-6.1.51 3.49 2.55 6.1 5 6.1 2.16 0 4-2 4.75-4.88.76 2.86 2.6 4.88 4.75 4.88a4 4 0 0 0 2.78-1.24c-5.43-5.75-12.68-7.95-17.2-8.78"/><path fill="#FFD265" d="m78.782 201.24 3.52-4.83 3.46 4.83-3.49-2.41z"/><path fill="#3FAEB1" d="m76.622 194.6 3.15 3.54-.99 3.1 3.51-1.36 3.47 1.36-1.08-3.12 3.17-3.48z"/><path fill="#FFEB6D" d="m82.272 190.49 1.34 4.11h4.31l-3.49 2.54 1.33 4.1-3.49-2.54-3.49 2.54 1.33-4.1-3.49-2.54h4.32z"/><path fill="#FFD265" d="m76.622 194.6 5.59 1.81-2.1.73zm11.24 0-5.59 1.81 2.1.73zm76.44 6.64 3.52-4.83 3.46 4.83-3.49-2.41z"/><path fill="#3FAEB1" d="m162.152 194.6 3.14 3.54-.99 3.1 3.51-1.36 3.47 1.36-1.08-3.12 3.18-3.48z"/><path fill="#FFEB6D" d="m167.792 190.49 1.34 4.11h4.31l-3.49 2.54 1.33 4.1-3.49-2.54-3.49 2.54 1.34-4.1-3.49-2.54h4.31z"/><path fill="#FFD265" d="m162.152 194.6 5.59 1.81-2.1.73zm11.24 0-5.6 1.81 2.11.73z"/><path fill="#00F2FF" d="M181.842 153.94a26.74 26.74 0 0 0 19.29-15.09s5.48-.26 7.44 2.87c0 0-8.23 20-29.86 19.72"/><path fill="#000" d="M207.802 142.39a6.86 6.86 0 0 0 2.58-5.15c.29-4.31-4.31-4.59-4.31-4.59.57-4.83-1-5.1-1-5.1a1.15 1.15 0 0 0-1.57.72 8 8 0 0 0-.37 2.18c-.08 1.2-.21 2.51-.37 3.49a28 28 0 0 1-1.28 4.88s-.53 1.68 2.16 2.88a8 8 0 0 0 4.16.69"/><path fill="#00F2FF" d="M70.552 162s-11.1 1.18-17.24 14.5c0 0-5.48.26-7.44-2.87 0 0 8.23-20 29.86-19.72"/><path fill="#000" d="M53.912 175.42s0 5.37-4.3 5.08c0 0-4.69.1-5-3.91a3.36 3.36 0 0 1 2.15-3.22 14.4 14.4 0 0 1 7.15 2.05"/><path fill="#FF0180" d="M252.552 151.62 249.602 82l15-.63 3 69.62zm56.39-72.13 14-.59 2.56 60.37c.31 7.27-3.73 10.36-9 10.58-3.74.16-6.65-2.11-8.46-5.47l-20-37.87 1.82 43.49-14 .59-2.56-60.37c-.31-7.27 3.72-10.36 9-10.58 4.78-.2 7.58 2 9.28 5.23l19.11 35.83zm59.43-2.49 4.16-.18.6 14.24-4.36.19c-13.72.58-22.59 9.91-22.09 21.55s10.12 20.18 23.84 19.6l4.36-.19.6 14.24-4.16.18c-21.41.91-38.73-12.41-39.61-33.19s15.29-35.56 36.66-36.44m44.01-2.83a35.78 35.78 0 1 1-34.23 37.26c-.835-19.74 14.49-36.422 34.23-37.26m2.4 56.53a20.8 20.8 0 1 0-21.66-19.9c.535 11.452 10.204 20.33 21.66 19.89zm69.08 6.54-13.16-35.56 1.72 40.63-14 .59-2.53-59.64c-.32-7.59 4.94-11.14 9.51-11.33 5.61-.24 9.32 3.67 11.2 8.89l13.19 36.08 10.09-37.07c1.44-5.37 4.8-9.57 10.41-9.81 4.57-.19 10.12 2.9 10.44 10.49l2.53 59.64-14 .59-1.72-40.63-10.11 36.55c-1.18 4.11-3.51 5.67-6.52 5.79s-5.52-1.21-7.05-5.21m47.68 2.56-3-69.62 15-.63 3 69.62zm56.38-72.14 14-.59 2.56 60.37c.31 7.27-3.72 10.36-9 10.58-3.74.16-6.65-2.11-8.46-5.47l-20.02-37.87 1.85 43.54-14 .59-2.56-60.37c-.31-7.27 3.73-10.36 9-10.58 4.78-.2 7.58 2 9.28 5.23l19.11 35.83zm63.99 11.55-5.4.23c-9.87.42-21.67 6.85-21 22.33a19.57 19.57 0 0 0 20.37 18.92l-1.25-28.89 15-.63 1.32 31.07c.25 6-.94 12.12-10.61 12.52l-2.49.11c-19.85.84-36.27-13.35-37.09-32.57-.86-20.26 13.46-36.17 35.9-37.12l4.68-.2zm17.85 33.73-2.35-55.35 15.38-.65 2.35 55.35zm7.92 3.89a8.893 8.893 0 1 1 .75 17.77 8.893 8.893 0 0 1-.75-17.77m18.96-5.02-2.34-55.36 15.38-.65 2.32 55.35zm7.92 3.89a8.893 8.893 0 1 1 .75 17.77 8.893 8.893 0 0 1-.75-17.77m18.96-5.03-2.35-55.35 15.38-.65 2.35 55.33zm7.92 3.89a8.893 8.893 0 1 1 .75 17.77 8.893 8.893 0 0 1-.75-17.77"/><path fill="#FF0" d="M184.692 123.52q-1.8.9-3.65 1.74c-18.22 8.33-38.77 12.67-38.77 12.67s7.93 9 35.76 11l1.16.07c1.42.08 3.66.1 5 .09 1.11-8.44.61-17.09.5-25.57"/><path fill="#FFF" d="m160.262 58-3.2 2.6a28 28 0 0 1 7.58 13.22l4.83-.75a30.9 30.9 0 0 0-9.21-15.07m-.78-.7a38.3 38.3 0 0 0-12.08-7.11l-1.5 2.56a41.3 41.3 0 0 1 10.42 7.12zm-6.7 6.7a26.9 26.9 0 0 1 5.22 10.82l5.58-.86a27.1 27.1 0 0 0-7.36-12.72zm-7.42-10.43-1.65 2.81a29.2 29.2 0 0 1 8.41 6.82l3.37-2.74a40.2 40.2 0 0 0-10.13-6.84z"/><path fill="#00D4DE" d="M227.172 69.06c23.45-11.72 40.37-33.56 1-69.06 0 0 30.75 45.87-53.94 46.38v31.25s30.77 2.52 52.94-8.57"/><path fill="#00B7DD" d="m236.882 63.34-11.22 5.3 11.59-19.16-18.93 9.06 17.42-17.63-18.43 9.55 11.88-15.09-5.6.6c19.41-13.69 4.59-35.89 4.59-35.89 33.6 30.31 26.18 50.66 8.7 63.26"/><path fill="#00D4DE" d="M24.522 69.06C1.072 57.34-15.848 35.5 23.512 0c0 0-30.75 45.87 53.94 46.38v31.25s-30.75 2.52-52.93-8.57"/><path fill="#000" d="m66.392 112.27.06.13.08.13c.2.32 5 7.91.57 13.94l4.9 3.6a15.56 15.56 0 0 0 3-9 22.83 22.83 0 0 0-3.2-11.67 21.4 21.4 0 0 1-2.49-10.4 17.3 17.3 0 0 1 1.58-7.11L65.482 89c-.23.46-5.59 10.71.91 23.27m116.89 12.11.07.13.08.13c.2.32 5 7.91.57 13.94l4.94 3.61a15.56 15.56 0 0 0 3-9 22.8 22.8 0 0 0-3.29-11.68 21.44 21.44 0 0 1-2.49-10.37 17.2 17.2 0 0 1 1.58-7.11l-5.4-2.89c-.19.44-5.56 10.69.94 23.24"/><path fill="#B3C535" d="M193.932 99c-3.19-6.9-2.36-17.26-2.06-22.46.82-14.31-.62-21.19-3.75-31.85-4.62-15.8-22.59-24.69-40.5-28.07-12.57-2.39-30.6-2.39-45.34 0-17.99 2.92-33.92 13.38-40.51 28.09-3.32 7.44-4.35 20.74-3.77 31.85.3 5.19.92 18.21-2 22.44a15 15 0 0 1-5.36 4.77c10.5.6 21.46 0 32-.35 14.1-.45 70.53-.45 84.63 0 10.56.34 21.52.94 32 .35a9.64 9.64 0 0 1-5.34-4.77"/><path fill="#00B7DD" d="m14.812 63.34 11.19 5.3-11.56-19.16 21.17 14.62-19.61-23.19 21.63 9.21-15.13-14.75 5.6.6C8.642 22.28 23.512.08 23.512.08c-33.6 30.31-26.18 50.66-8.7 63.26"/><path fill="#E3EB9A" d="m171.582 27.84-4.15 3.72c7.13 4.88 12 10.73 14.62 17.32a29 29 0 0 0 3.29-5.57c-2.71-6.31-7.58-11.31-13.76-15.47m-5 3.14 4.14-3.71a57.3 57.3 0 0 0-17.35-7.77c-1.59.76-4.36 2-5.84 2.8a78 78 0 0 1 16.11 6.86 33 33 0 0 1 2.93 1.84zm.1 1.27-4.68 4.19c7.35 5.07 12.76 11.23 15.49 18a18.7 18.7 0 0 0 3.9-4.72c-2.45-6.66-7.39-12.52-14.72-17.48zm-3.54-2.25a77.5 77.5 0 0 0-16.91-7c-2.19 1.15-4.25 2.28-6.13 3.35a77.6 77.6 0 0 1 21 9.54l4.67-4.19a64 64 0 0 0-2.63-1.7"/><path fill="#CADE35" d="M81.672 25.89s-20.19 10.77-20.19 37c0 0-.34 19.86 0 24.23 0 0 1 10.77-4 14.14 0 0 7.74-2 7.74-15.82V63.59s.29-25.24 16.45-37.7"/><path fill="#00F2F2" d="M17.252 8S.892 24.81 1.432 39.33c0 0-.67 11.11 13.13 22.21 0 0-10.92-9.57-10.77-22.89 0 .01-.47-12.19 13.46-30.65m217.36 0s16.39 16.81 15.81 31.33c0 0 .67 11.11-13.13 22.21 0 0 10.92-9.57 10.77-22.89.01.01.47-12.19-13.45-30.65"/><circle cx="143.162" cy="81.55" r="10.39" fill="#FFF"/><circle cx="144.162" cy="79.55" r="3.23" fill="#ED4928"/><circle cx="102.592" cy="81.55" r="10.39" fill="#FFF"/><circle cx="103.592" cy="79.55" r="3.23" fill="#ED4928"/></g></svg>