<svg xmlns="http://www.w3.org/2000/svg" viewBox="0 0 138 103"><g fill="none"><path fill="#FF5374" d="M41.69 73.75S10.65 53.48 15 15.31c0 0 1.18-9.54 8.25-15.31 0 0 11.94 39.36 55.8 36.18-.05 0 9.26 62.03-37.36 37.57Z"/><path fill="#FF5374" d="M98.64 73.75S128.15 53.48 124 15.31c0 0-1.12-9.54-7.84-15.31 0 0-12.37 40.16-53 36.18 0 0-7.65 59.24 35.48 37.57Z"/><path fill="#FFB3A2" d="M51.24 40.21v55.9a27.1 27.1 0 0 0 10.79 6h17.79c9.07-2.74 11.07-9.19 11.07-9.19h.06V42.5h-.09c-.19-4.6-9.53-8.31-21-8.31-7.55 0-14.15 1.6-17.86 4a4 4 0 0 0-.7 2l-.06.02Z"/><path fill="#FFD4C0" d="M48.76 93.42V42.5c.07-1.58 1.23-3.05 3.18-4.31v-.07c-2 1.28-3.25 2.79-3.32 4.42v50.78l.14.1Z"/><path fill="#FFD4C0" d="M48.78 42.5v50.92a19.27 19.27 0 0 0 2.48 2.7V40.21a4 4 0 0 1 .7-2c-1.96 1.23-3.11 2.7-3.18 4.29Z"/><path fill="#443A3D" d="M93.78 94.5h.46a12.78 12.78 0 0 1-3.3-1.5v4.75a11.91 11.91 0 0 1 2.84-3.25Zm-45.12 1.9v-3.08a16.61 16.61 0 0 0-3.82 1.23l1.9-.06a11.08 11.08 0 0 1 1.92 1.91Zm31.16 5.73h9.6a10.72 10.72 0 0 1 1.52-4.41V93h-.06s-1.99 6.39-11.06 9.13Zm-17.82 0a27.1 27.1 0 0 1-10.79-6v6H62Zm-13.24-5.6v-3.11l-.07-.1v3.08l.07.13Z"/><path fill="#443A3D" d="M51.24 102.13v-6a19.27 19.27 0 0 1-2.48-2.7v3.12a11.06 11.06 0 0 1 2.34 5.6l.14-.02Z"/><path fill="#FFB3A2" d="M31 95.5c-6.55 0-8.2-.67-8.2-.67-3.15-.38-2.46-18.54-2.46-18.54s.26-10 .13-14c0-2.94-1-4.6-3-4.7-3.88-.6-2.32-.37-6.53-.27 0 0-6.65-.95-6 9.84 0 0-.27 8.55-.27 9C4.42 92 5.64 100.1 6 102.13h25V95.5Z"/><path fill="#443A3D" d="M33.41 102.13h11.52l-.08-7.58c-5.6.18-10.23.5-13.83.53v.42h2.4l-.01 6.63Z"/><path fill="#443A3D" d="M48.66 102.13V96.4a11.08 11.08 0 0 0-1.92-1.91l-1.9.06.08 7.58h3.74Zm.1-5.6-.1-.13v5.72h.1v-5.59Zm2.34 5.6a11.06 11.06 0 0 0-2.34-5.6v5.6h2.34Zm-17.69 0v-6.67h-2.4l-.01 6.67h2.41Z"/><path fill="#FFB3A2" d="M134.52 102.13c.36-2 1.59-10.13 1.33-25.91 0-.47-.27-9-.27-9 .65-10.79-6-9.84-6-9.84-4.2-.1-2.65-.33-6.53.27-2 .1-3 1.76-3 4.7-.13 3.91.13 14 .13 14s.7 18.16-2.46 18.54c0 0-1.65.71-8.2.67l.05 6.63 24.95-.06Z"/><path fill="#443A3D" d="M94.88 102.13h12.23v-6.67h2.4v-.42c-5.097.187-10.2.003-15.27-.55.15 0 .29.08.44.1l.2 7.54Z"/><path fill="#443A3D" d="M90.94 97.72v4.41h3.94l-.21-7.49c-.14 0-.29-.07-.44-.1h-.46a11.91 11.91 0 0 0-2.83 3.18Zm0 0a10.72 10.72 0 0 0-1.52 4.41h1.52v-4.41Zm16.17 4.41h2.45l-.05-6.63h-2.4v6.63Z"/><path fill="#E6EBDE" d="M4 76.66.32 78.87 4.42 81s1.7-1.88-.42-4.34Zm-.28 5.68L0 84.55l4.1 1.58s1.7-1.33-.38-3.79Zm16.59-5.99L24 78.56l-4.1 2.08s-1.67-1.83.41-4.29Zm.32 5.65 3.72 2.21-4.1 1.58s-1.71-1.31.38-3.79Z"/><path fill="#5D585D" d="M20 73.38s2-.63 1.89 3.15c0 0 .13 4.92-.13 8.83 0 0 .88 2.4-2 2.52-.02.01-2.04-11.09.24-14.5Zm-15.4.38s-1.6-.38-1.26 3.41c0 0 .5 7.44.5 9.59 0 0-.13 1.64 1.64 1.26.01-.02 4.3-10.09-.88-14.26Z"/><ellipse cx="49" cy="61.88" fill="#FFD4C0" rx="4.42" ry="5.52"/><ellipse cx="90.41" cy="61.88" fill="#FFB3A2" rx="4.42" ry="5.52"/><circle cx="63.373" cy="61.609" r="4.6" fill="#FF9288" transform="rotate(-85.89 63.373 61.61)"/><circle cx="76.88" cy="61.613" r="4.6" fill="#FF9288" transform="rotate(-85.89 76.88 61.613)"/><circle cx="76.731" cy="61.591" r="4.29" fill="#FFF" transform="rotate(-85.89 76.73 61.591)"/><circle cx="76.691" cy="61.615" r="1.22" fill="#FF5374" transform="rotate(-85.88 76.69 61.615)"/><path fill="#FFD4C0" d="m19.1 90.2-.32-25-1.54-.27v-2.37c-.94-4.78.59-4.86.59-4.86 2-.69 2.75 5.39 2.75 5.39 0 2.37.36 26.2.36 26.2s-.13 5.56 3 5.74c0 0 3.52.35 7.3.3v2.35s-10.17.91-11.39-2.39c.04 0-.64-1.29-.75-5.09Z"/><path fill="#FFD4C0" d="M18.8 70.14s-.27-5.22-4.15-5.38a5.49 5.49 0 0 1 4.93 1s-.4 3.95-.78 4.38Z"/><path fill="#FF9A92" d="M10.87 69.22s1.43.88 4.58.25c0 0-6.81 1.39-8.07 5.17l-2.78.5s.16-5.27.33-7.94h5.27a1.74 1.74 0 0 0 .67 2.02Z"/><path fill="#FF8B79" d="M11.37 58.49s-1.7 1.24-1.13 7.09h-.22c-.59-6 1.15-7.24 1.22-7.29l.13.2Z"/><path fill="#FFB3A2" d="M19 49.62a2 2 0 0 0-1.78-1c-1.56 0-2.13.11-2.57 3.1 0 0-.38 4-.63 9.46l3.22.88L19 49.62Z"/><path fill="#FFD4C0" d="M20.59 63.47s-.26-14-2.15-14.36c0 0-.89-.35-1.18 2.21a122.37 122.37 0 0 0 0 13.18l3.33-1.03Z"/><path fill="#5D585D" d="M44.6 94.53c.58 0 2.39-1.12 4.1-1.21 0 0-2.13 4.47-7 4.57l-10.7.24V95s8.46-.15 13.6-.47Z"/><path fill="#FFB3A2" d="M4.86 66.07S3.28 48.85 6.69 50c0 0 1.7-.19 1.7 4a35.1 35.1 0 0 1 .19 4.35S5.42 64 4.86 66.07Z"/><path fill="#FF8B79" d="M7.77 59s-1.84 1.51-.84 6.79h-.22c-1-5.43.84-6.94.92-7l.14.21Z"/><path fill="#FFD4C0" d="M7.73 50.65s-.66.47-.57 2.55c0 0 .28 4.07.28 5.77a6.88 6.88 0 0 1 1.32-1s-.09-6.57-1.03-7.32Zm6.05 8.13s-1.89 1.33-1.42 6.22a3.44 3.44 0 0 1 1.42-.28 35 35 0 0 1 0-5.94Z"/><path fill="#5D585D" d="M4.42 74.58S9 76 20.91 74.52a71.72 71.72 0 0 1 .09 13s-5 2.27-16.53.38c.01-.01-1.19-13.9-.05-13.32Z"/><path fill="#79BBD9" d="M120.53 73.38s-2-.63-1.89 3.15c0 0-.13 4.92.13 8.83 0 0-.15 2.59 1.94 2.44 0 .01 2.09-11.01-.18-14.42Zm15.39.38s1.64-.38 1.26 3.41c0 0-.5 7.44-.5 9.59 0 0 .13 1.64-1.64 1.26-.04-.02-4.29-10.09.88-14.26Z"/><path fill="#FFD4C0" d="m121.43 90.2.32-25 1.54-.27v-2.37c.94-4.78-.59-4.86-.59-4.86-2-.69-2.75 5.39-2.75 5.39 0 2.37-.36 26.2-.36 26.2s.13 5.56-3 5.74c0 0-3.52.35-7.3.3v2.35s10.17.91 11.39-2.39c-.05 0 .63-1.29.75-5.09Z"/><path fill="#FFD4C0" d="M121.73 70.14s.27-5.22 4.15-5.38a5.49 5.49 0 0 0-4.93 1s.39 3.95.78 4.38Z"/><path fill="#FF9A92" d="M129.66 69.22s-1.43.88-4.58.25c0 0 6.94 1.89 8.2 5.68h2.65s-.16-5.27-.33-7.94h-5.27a1.74 1.74 0 0 1-.67 2.01Z"/><path fill="#FF8B79" d="M129.16 58.49s1.7 1.24 1.13 7.09h.22c.59-6-1.15-7.24-1.22-7.29l-.13.2Z"/><path fill="#FFB3A2" d="M121.57 49.62a2 2 0 0 1 1.78-1c1.56 0 2.13.11 2.57 3.1 0 0 .38 4 .63 9.46l-3.22.88-1.76-12.44Z"/><path fill="#FFD4C0" d="M119.94 63.47s.26-14 2.15-14.36c0 0 .89-.35 1.18 2.21.237 4.39.237 8.79 0 13.18l-3.33-1.03Z"/><path fill="#5D585D" d="M93.81 94.48s2.38 3.41 5 3.41l10.69.24V95s-10.97-.12-15.69-.52Z"/><path fill="#FFB3A2" d="M135.67 66.07s1.58-17.22-1.83-16.08c0 0-1.7-.19-1.7 4a35.1 35.1 0 0 0-.19 4.35s3.15 5.66 3.72 7.73Z"/><path fill="#FF8B79" d="M132.75 59s1.84 1.51.84 6.79h.22c1-5.43-.84-6.94-.92-7l-.14.21Z"/><path fill="#FFD4C0" d="M132.8 50.65s.66.47.57 2.55c0 0-.28 4.07-.28 5.77a6.88 6.88 0 0 0-1.32-1s.08-6.57 1.03-7.32Zm-6.06 8.13s1.89 1.32 1.42 6.24a3.44 3.44 0 0 0-1.42-.28 35 35 0 0 0 0-5.96Z"/><path fill="#79BBD9" d="M136.11 74.58s-4.92 1.51-16.84 0a106.51 106.51 0 0 0 .25 12.93s5 2.27 16.53.38c-.05 0 1.2-13.89.06-13.31Z"/><path fill="#5DA4C7" d="M135.92 73.76a1.39 1.39 0 0 1-.38.95c-.26 0-1.22.22-1.56.27a8.25 8.25 0 0 1 .18 3.13s-.38 6.66-.48 10.13l1.45-.2a1.18 1.18 0 0 0 1.55-1.28c0-2.14.5-9.59.5-9.59.38-3.79-1.26-3.41-1.26-3.41Z"/><path fill="#9FD4D9" d="M122.25 87.94h-.07a2.83 2.83 0 0 1-.76-2.12c-.25-3.91-.13-8.83-.13-8.83a6.4 6.4 0 0 1 .2-2.12h-.73c-1.51-.46-.73-1-1-1.42 0 0-1.65-.63-1.52 3.15 0 0-.13 4.92.13 8.83a2.83 2.83 0 0 0 .76 2.12h.07c.234.16.507.253.79.27a22.14 22.14 0 0 0 4.6.75c-.66-.12-1.18-.26-1.57-.37a1.56 1.56 0 0 1-.77-.26Z"/><path fill="#FF5374" d="M71.08 72.5s-11-.59-10.72 7.95c0 0-.27 7.28-.38 11.35 0 0 3-2.39 3.28-3.27 0 0 .49 3.3 1.92 4.07 0 0 .39-2.64.61-3.52 0 0 .88 3.14 1.87 3.68a30.52 30.52 0 0 1 .77-4.35 22.45 22.45 0 0 1 1 4.18 8.6 8.6 0 0 0 1-3.41 9.91 9.91 0 0 0 1.59 3.91s.72-3.24.94-4.45c0 0 .16 3.63 1.37 4.29a23.78 23.78 0 0 1 .94-4.62s.44 3.46 1.54 4.45c0 0 .22-3.46 1-4.68 0 0 1.81 3.24 1.81 4.68a30.33 30.33 0 0 0 1.84-8s2.49-11.88-10.38-12.26Z"/><path fill="#D4DCD7" d="M11.35 77a3.18 3.18 0 0 1 4.06-.09l.14 3.78a5 5 0 0 1-4.16 0 31.5 31.5 0 0 0-.04-3.69Z"/><path fill="#E6F2EB" d="m11.37 77 2.14 1.59-2.12 2.08s-.79-1.19-.02-3.67Z"/><path fill="#B6C0C0" d="m15.41 76.91-2 1.7 2.12 2.08a5.5 5.5 0 0 0-.12-3.78Z"/><path fill="#D4DCD7" d="M11.55 83s1.53-1.61 3.86 0l.14 3.78a5 5 0 0 1-4.16 0c.147-1.254.2-2.518.16-3.78Z"/><path fill="#E6F2EB" d="m11.53 82.93 2 1.7-2.12 2.08a5.5 5.5 0 0 1 .12-3.78Z"/><path fill="#B6C0C0" d="m15.41 82.93-2 1.7 2.12 2.08a5.5 5.5 0 0 0-.12-3.78Z"/><path fill="#D4DCD7" d="M8.62 86.31s-1 .95-4-.09a4.15 4.15 0 0 1-.19-3.5s1.28-1 4-.19l.19 3.78Z"/><path fill="#B6C0C0" d="m8.37 82.53-3.45 1.7 3.7 2.08s1.1-1.31-.25-3.78Z"/><path fill="#E6F2EB" d="M4.42 82.72 5 84.2l-.38 2s-1.07-1.2-.2-3.48Z"/><path fill="#D4DCD7" d="M8.62 80.31s-1 .95-4-.09a4.15 4.15 0 0 1-.19-3.5s1.28-1 4-.19l.19 3.78Z"/><path fill="#B6C0C0" d="m8.37 76.53-3.45 1.7 3.7 2.08s1.1-1.31-.25-3.78Z"/><path fill="#E6F2EB" d="M4.42 76.71 5 78.2l-.38 2s-1.07-1.2-.2-3.49Z"/><path fill="#D4DCD7" d="M18.27 86.5s.7.95 2.87-.09a5.61 5.61 0 0 0 .14-3.5s-.92-1-2.83-.19l-.18 3.78Z"/><path fill="#B6C0C0" d="m18.45 82.72 2.47 1.7-2.65 2.08s-.79-1.32.18-3.78Z"/><path fill="#E6F2EB" d="m21.28 82.91-.41 1.48.27 2a4.6 4.6 0 0 0 .14-3.48Z"/><path fill="#D4DCD7" d="M18.27 80.5s.7.95 2.87-.09a5.61 5.61 0 0 0 .14-3.5s-.92-1-2.83-.19l-.18 3.78Z"/><path fill="#B6C0C0" d="m18.45 76.71 2.47 1.7-2.65 2.09s-.79-1.33.18-3.79Z"/><path fill="#E6F2EB" d="m21.28 76.9-.41 1.48.27 2a4.6 4.6 0 0 0 .14-3.48Z"/><circle cx="69.57" cy="68.46" r="1" fill="#E3796D"/><circle cx="71.84" cy="68.46" r="1" fill="#E3796D"/><path fill="#F2F5E1" d="M71.1 68.33a1.1 1.1 0 1 1-1.46 1.07 1.16 1.16 0 0 1 .68-1.07.66.66 0 0 0-.16-.35 1.6 1.6 0 0 0-.9 1.43 1.45 1.45 0 1 0 2-1.44.73.73 0 0 0-.16.36Z"/><circle cx="63.621" cy="61.587" r="4.29" fill="#FFF" transform="rotate(-85.89 63.62 61.587)"/><circle cx="63.599" cy="61.62" r="1.26" fill="#FF5374" transform="rotate(-85.88 63.6 61.62)"/><path fill="ivory" d="M132.7 82.15a.72.72 0 0 0-.81.61c-.52-.14-1.5-.41-2.67-.8 1.3-.75 2.35-1.29 2.35-1.29l.16-.06a.7.7 0 0 0 .9.51.83.83 0 0 0 .47-1 .71.71 0 0 0-.71-.55.73.73 0 0 1-.16-.2c-.05-.7-.56-.65-.56-.65-.74.07-.48 1.09-.48 1.09a30.75 30.75 0 0 1-2.81 1.82 30 30 0 0 1-3.29-1.38s.11-1.06-.63-1c0 0-.51 0-.46.75a.77.77 0 0 1-.13.23.75.75 0 0 0-.63.67.79.79 0 0 0 .61.9.73.73 0 0 0 .81-.66h.17s1.27.39 2.78.95c-1.21.67-2.25 1.17-2.78 1.41a.69.69 0 0 0-.88-.46.83.83 0 0 0-.47 1 .7.7 0 0 0 .9.51h.05a.87.87 0 0 0 0 .44.7.7 0 0 0 .9.51.83.83 0 0 0 .47-1 .81.81 0 0 0-.12-.25 27.47 27.47 0 0 1 2.74-1.83 24.87 24.87 0 0 1 2.71 1.21.84.84 0 0 0-.08.27.79.79 0 0 0 .61.9.73.73 0 0 0 .81-.66.86.86 0 0 0-.05-.43h.05a.73.73 0 0 0 .81-.66.79.79 0 0 0-.58-.9Z"/><path fill="ivory" d="M131.66 78.52a.76.76 0 0 0-.57.31 1.11 1.11 0 0 0-.17.64 1.91 1.91 0 0 0 0 .27c-.75.54-1.61 1.1-2.56 1.66a29.8 29.8 0 0 1-3-1.26 1.29 1.29 0 0 0-.28-.88.73.73 0 0 0-.61-.21.81.81 0 0 0-.69.9V80a1 1 0 0 0-.73.86c-.003.05-.003.1 0 .15a1 1 0 0 0 .82 1 .9.9 0 0 0 .69-.17 1 1 0 0 0 .35-.49c.28.09 1.12.36 2.16.73-.86.46-1.6.82-2.08 1a1 1 0 0 0-.38-.33.89.89 0 0 0-.69 0 1.08 1.08 0 0 0-.63 1.3 1 1 0 0 0 .5.63.9.9 0 0 0 .42.1 1.1 1.1 0 0 0 0 .2 1 1 0 0 0 .5.63.89.89 0 0 0 .72 0c.41-.162.676-.56.67-1a1.1 1.1 0 0 0 0-.3 1.07 1.07 0 0 0 0-.11 27.66 27.66 0 0 1 2.45-1.62 25.29 25.29 0 0 1 2.39 1.06.89.89 0 0 0 0 .26 1 1 0 0 0 .82 1 .9.9 0 0 0 .69-.17 1 1 0 0 0 .41-.71 1.11 1.11 0 0 0 0-.14v-.07a.92.92 0 0 0 .41-.17 1 1 0 0 0 .41-.71c.003-.05.003-.1 0-.15a1 1 0 0 0-.82-1 .94.94 0 0 0-1 .56c-.44-.12-1.11-.31-1.91-.57.85-.48 1.54-.84 1.77-1a1 1 0 0 0 .41.41.89.89 0 0 0 .72 0c.41-.162.676-.56.67-1a1.1 1.1 0 0 0 0-.3 1 1 0 0 0-.84-.72 1 1 0 0 0-.3-.64.73.73 0 0 0-.72 0Zm-3.14 3.37a30.87 30.87 0 0 0 2.83-1.83.25.25 0 0 0 .09-.26 1 1 0 0 1 0-.68.27.27 0 0 1 .22-.11c.06 0 .26 0 .29.43a.24.24 0 0 0 0 .1 1 1 0 0 0 .23.28.25.25 0 0 0 .17.06.47.47 0 0 1 .46.37.59.59 0 0 1-.32.7.41.41 0 0 1-.33 0 .52.52 0 0 1-.25-.32.24.24 0 0 0-.29-.19.86.86 0 0 0-.22.08s-1.07.55-2.36 1.29a.25.25 0 0 0 0 .45c1.2.4 2.2.68 2.69.8a.25.25 0 0 0 .3-.19.48.48 0 0 1 .52-.42.55.55 0 0 1 .41.63.55.55 0 0 1-.21.37.42.42 0 0 1-.32.08.25.25 0 0 0-.24.08.25.25 0 0 0 0 .25.62.62 0 0 1 0 .31.55.55 0 0 1-.21.38.42.42 0 0 1-.32.08.55.55 0 0 1-.41-.63.6.6 0 0 1 .06-.19.25.25 0 0 0-.1-.33 24.76 24.76 0 0 0-2.74-1.23.25.25 0 0 0-.21 0 27.16 27.16 0 0 0-2.77 1.85.25.25 0 0 0 0 .34.57.57 0 0 1 .08.17.58.58 0 0 1-.32.7.41.41 0 0 1-.33 0 .52.52 0 0 1-.25-.32.63.63 0 0 1 0-.31.24.24 0 0 0-.08-.24.25.25 0 0 0-.26 0 .41.41 0 0 1-.33 0 .52.52 0 0 1-.25-.32.59.59 0 0 1 .32-.7.4.4 0 0 1 .31 0 .5.5 0 0 1 .25.29.25.25 0 0 0 .33.14c.52-.24 1.57-.74 2.79-1.42a.25.25 0 0 0 0-.45c-1.5-.55-2.78-.95-2.79-.95a.83.83 0 0 0-.23 0 .24.24 0 0 0-.25.22.55.55 0 0 1-.21.37.42.42 0 0 1-.32.08.55.55 0 0 1-.41-.63.51.51 0 0 1 .41-.46.24.24 0 0 0 .15-.08 1 1 0 0 0 .18-.31.25.25 0 0 0 0-.1c0-.42.18-.48.24-.48a.25.25 0 0 1 .22.06 1 1 0 0 1 .14.66.25.25 0 0 0 .13.24c1.078.533 2.186 1 3.32 1.4a.25.25 0 0 0 .19-.11Z"/><path fill="#FF475D" d="M132.41 79.62a.73.73 0 0 1-.16-.2c-.05-.7-.56-.65-.56-.65-.74.07-.48 1.09-.48 1.09a39.93 39.93 0 0 1-6.36 3.67.69.69 0 0 0-.88-.46.83.83 0 0 0-.47 1 .7.7 0 0 0 .9.51h.05a.87.87 0 0 0 0 .44.7.7 0 0 0 .9.51.83.83 0 0 0 .47-1 .81.81 0 0 0-.12-.25 46.76 46.76 0 0 1 5.88-3.57l.16-.06a.7.7 0 0 0 .9.51.83.83 0 0 0 .47-1 .71.71 0 0 0-.7-.54Z"/><path fill="#FF475D" d="M123.88 80.27A.77.77 0 0 0 124 80c0-.7.46-.75.46-.75.74-.07.63 1 .63 1a38.2 38.2 0 0 0 6.79 2.47.72.72 0 0 1 .81-.61.79.79 0 0 1 .61.9.73.73 0 0 1-.81.66h-.05a.86.86 0 0 1 .05.43.73.73 0 0 1-.81.66.79.79 0 0 1-.61-.9.84.84 0 0 1 .08-.27 44.65 44.65 0 0 0-6.31-2.47h-.17a.73.73 0 0 1-.81.66.79.79 0 0 1-.61-.9.75.75 0 0 1 .63-.61Z"/><path fill="#FF5374" d="M65.34 35.22a94.94 94.94 0 0 1-.57-15.89l1.7 3.41v-3.41l.95 3.6.95-3.78.38 4.35 1.14-4V25l1.32-5.3.38 3.6.95-3.78.57 4 1.14-3.6s1.32 4.92-.19 14.95a15.49 15.49 0 0 1-8.72.35Z"/><path fill="#FF3A3A" d="M63.52 79.66a3.46 3.46 0 0 1 3.69-3.92h6s4.25-.5 4.42 3.13a7.22 7.22 0 0 1-.45 2.69 3.29 3.29 0 0 1-3 1.68s-5.65 0-6.94-.11a3.44 3.44 0 0 1-3.72-3.47Z"/><path fill="#FFA7A7" d="M73.16 75h-6a4.4 4.4 0 0 0-3.41 1.36 4.55 4.55 0 0 0-1 3 3.75 3.75 0 0 0 0 .4v-.06a4.24 4.24 0 0 0 1.32 3.1 4.65 4.65 0 0 0 3.08 1.07c1.38.11 6.72.11 7 .11a4 4 0 0 0 3.67-2.07 7.35 7.35 0 0 0 .53-3 3.72 3.72 0 0 0-1.28-2.79A5.68 5.68 0 0 0 73.16 75Zm.08 1.45a4.31 4.31 0 0 1 2.85.7 2.3 2.3 0 0 1 .76 1.74 6.3 6.3 0 0 1-.32 2.26 2.58 2.58 0 0 1-2.37 1.27c-.06 0-5.63 0-6.87-.11h-.11a3.22 3.22 0 0 1-2.09-.7 2.85 2.85 0 0 1-.83-2.07 3.26 3.26 0 0 1 .66-2.25 3 3 0 0 1 2.32-.86l6 .02Z"/><path fill="#FF4E4E" d="M75.48 77.07a1.18 1.18 0 1 1-2.34 0 1.18 1.18 0 1 1-2.34 0 1.18 1.18 0 1 1-2.34 0 1.18 1.18 0 1 1-2.34 0 1.23 1.23 0 0 1-1.17 1.28 1.15 1.15 0 0 1-1-.63 3.72 3.72 0 0 0-.26 1.41c0 1-.25 2.47 1.33 3.06 1.19.45 4 .16 5.62.16s4.34.22 5.51-.2c1.66-.59 1.45-2 1.45-3a4 4 0 0 0-.17-1.15 1.11 1.11 0 0 1-.78.33 1.23 1.23 0 0 1-1.17-1.26Z"/><path fill="#FFFFE3" d="M75.48 76c-1.15-.39-3.32-.13-4.85-.13a21.35 21.35 0 0 0-4.85.25 2.63 2.63 0 0 0-1.84 1.56c.192.378.576.62 1 .63a1.23 1.23 0 0 0 1.17-1.28 1.18 1.18 0 1 0 2.34 0 1.18 1.18 0 1 0 2.34 0 1.18 1.18 0 1 0 2.34 0 1.18 1.18 0 1 0 2.34 0 1.23 1.23 0 0 0 1.17 1.28 1.11 1.11 0 0 0 .78-.33A2.87 2.87 0 0 0 75.48 76Zm0 7c-1.15.39-3.32.13-4.85.13a21.34 21.34 0 0 1-4.85-.25 2.63 2.63 0 0 1-1.84-1.56 1.15 1.15 0 0 1 1-.63 1.23 1.23 0 0 1 1.17 1.28 1.18 1.18 0 1 1 2.34 0 1.18 1.18 0 1 1 2.34 0 1.18 1.18 0 1 1 2.34 0 1.18 1.18 0 1 1 2.34 0 1.23 1.23 0 0 1 1.17-1.28c.293.003.574.121.78.33A2.88 2.88 0 0 1 75.48 83Z"/><path fill="#FFD4C0" d="M65.09 34.41S50.58 36.93 51 48.47l-1.89-7.19s3.29-6.67 15.59-6.86l.39-.01Z"/></g></svg>