<svg xmlns="http://www.w3.org/2000/svg" viewBox="0 0 181.38 272.41"><defs><style>.cls-2{fill:#3ad7d7}.cls-12,.cls-4{fill:#fff}.cls-5{fill:#00aaa6}.cls-6{fill:#f8bc16}.cls-13,.cls-8{fill:#231f20}.cls-12,.cls-8{opacity:.3}.cls-13,.cls-8{mix-blend-mode:overlay}.cls-9{fill:#00b9bf}.cls-13{opacity:.4}.cls-14{fill:#ff6b8d}</style></defs><g style="isolation:isolate"><g id="Layer_2" data-name="Layer 2"><g id="Layer_1-2" data-name="Layer 1"><path d="M166.43 191.81c5.29-3.25 2.44-7.72 2.44-7.72-4.37-6-14.73 3.72-15.22 4.18a210.59 210.59 0 0 1-43.79-4.19 10.72 10.72 0 0 0 1.52-4c53.14-10.86 56.19-54.31 56.19-54.31 3.9-24.23-2.46-44.67-15-59.43C134 44.59 101.86 35.19 69.09 44.22 32.38 54.35 7.68 86.5 14.17 125.78c0 0 4.17 43.53 54.67 54.26a9.22 9.22 0 0 0 1.42 4.34A210.43 210.43 0 0 1 28 188.27c-.49-.46-10.85-10.14-15.22-4.18 0 0-2.85 4.47 2.44 7.72 0 0-14.87-2.65-13.42 8.54 0 0 .81 12.2 13.42 12.2 0 0 10.85.27 17.84-6.82a168.56 168.56 0 0 0 40.86-7.3A93.16 93.16 0 0 0 64.21 225a3.38 3.38 0 0 0-.26 1.21c0 3.58 6 6.69 14.83 8.22v26.79c-1.47.27-6.45 1.66-6.45 8.26 0 0 1.55 2.36 6.3 2.71a14.29 14.29 0 0 0 5.42-.4l5.86-2.23v-34.07h2.63v13.38-.06 4.23l.13 16.56 5.86 2.23a13.21 13.21 0 0 0 5 .53c5-.25 6.76-2.84 6.76-2.84 0-6.6-5-8-6.46-8.26v-12.35a.59.59 0 0 1-.06.25v-14.68c8.79-1.54 14.8-4.64 14.8-8.22a3.17 3.17 0 0 0-.09-.59h.06a93.42 93.42 0 0 0-9.54-26.85 169.28 169.28 0 0 0 39.62 6.9c7 7.09 17.84 6.82 17.84 6.82 12.6 0 13.42-12.2 13.42-12.2 1.41-11.18-13.45-8.53-13.45-8.53Z" class="cls-2"/><path fill="#fff200" d="M160.19 116.05c0 31.76-31.23 57.9-69.76 57.9s-69.76-26.14-69.76-57.9c0-36 31.24-46.88 69.76-46.88s69.76 7.58 69.76 46.88Z"/><path d="M114.43 104.37c0 6.08 4.56 11 10.24 11s10.24-4.93 10.24-11-4.59-11-10.24-11-10.24 4.93-10.24 11Z" class="cls-4"/><circle cx="126.79" cy="102.4" r="5.8" class="cls-5"/><circle cx="125.11" cy="98.51" r="1.74" class="cls-4"/><path d="M47.2 104.37c0 6.08 4.56 11 10.24 11s10.24-4.93 10.24-11-4.59-11-10.24-11-10.24 4.93-10.24 11Z" class="cls-4"/><circle cx="59.55" cy="102.4" r="5.8" class="cls-5"/><circle cx="57.87" cy="98.51" r="1.74" class="cls-4"/><path d="M85.35 112.36a3.35 3.35 0 1 0 3.34-3.5 3.42 3.42 0 0 0-3.34 3.5Z" class="cls-6"/><path fill="#ff4c62" d="M119 134.19c-5.22 16-18.68 26.66-32.91 24.84s-24.39-15.25-25.61-31.81c23.75 6.28 40.34 6.93 58.52 6.97Z"/><path d="M98.45 69.4s-11 12.38-40.34 9.91l10.26-4.6S62 77.18 51 74.7c0 0 17.37-8.49 47.45-5.3Z" class="cls-6"/><path d="m141.14 31.46-12.69-9.92-16.65 26.51c-1.11 1.86 10.89 13.85 12.75 12.75l26.51-16.66Z" class="cls-2"/><path d="m128.45 21.54-1.54 2.6 21.55 21.55 2.6-1.55-1.38-1.76-19.46-19.47-1.77-1.37z" class="cls-8"/><path d="M155.64 42.11 130.49 17a2.94 2.94 0 1 0-4.15 4.15l25.14 25.14a2.94 2.94 0 1 0 4.15-4.15Z" class="cls-2"/><path d="m126.34 21.11 25.14 25.14a2.94 2.94 0 0 0 4.15 0L126.34 17a2.94 2.94 0 0 0 0 4.11Z" class="cls-9"/><path d="m155.64 42.11-9.3-9.3c.75.75.44 2.3-.71 3.44s-2.69 1.46-3.44.71l9.3 9.3a2.94 2.94 0 1 0 4.15-4.15Z" class="cls-5"/><path fill="#641803" d="M164.85 13.38a19.68 19.68 0 0 0-2.4-3.29 20 20 0 0 0-4.73-3.85Z"/><path fill="#ffc931" d="M156.21 41.41a18.88 18.88 0 1 0-25.41-24.13l15.86 15.86a1.63 1.63 0 0 1-.39 1.66l-2.92 2.92a1.73 1.73 0 0 0 2.45 2.45l1.85-1.85a1.45 1.45 0 1 1 2 2 1.54 1.54 0 0 0 0 2.18l.62.62a2.15 2.15 0 0 0 2.76.23l2.15-1.53c.38-.07.71-.25 1.03-.41Z"/><circle cx="147.41" cy="12.05" r="3.34" class="cls-12" transform="rotate(-45 147.42 12.047)"/><path d="M155.33 41.77c.33-.13.65-.26 1-.41a2.94 2.94 0 0 0-.22-.25l-24.86-24.84c-.15.33-.29.66-.42 1Z" class="cls-13"/><path d="M156.21 41.41a18.88 18.88 0 0 0 9-25.59 18.88 18.88 0 0 1-23.59 12.32l5 5a1.63 1.63 0 0 1-.39 1.66l-2.92 2.92a1.73 1.73 0 0 0 2.45 2.45l1.85-1.85a1.45 1.45 0 1 1 2 2 1.54 1.54 0 0 0 0 2.18l.62.62a2.15 2.15 0 0 0 2.76.23l2.15-1.53c.42-.07.75-.25 1.07-.41Z" class="cls-13"/><path d="M177.27 27.09a16.27 16.27 0 0 0-23.66-22.32c-.36.36-.7.74-1 1.13l3.27 6.84a4.08 4.08 0 0 1-.79 4.64L153 19.45a2 2 0 0 0-.21 2.66 2 2 0 0 0 3 .16 1.58 1.58 0 0 1 2.25 0 1.63 1.63 0 0 1 0 2.31l-3.04 3.1a2 2 0 0 0-.1 2.78 2 2 0 0 0 2.81 0l.52-.52a1.7 1.7 0 0 1 2.27-.16 1.65 1.65 0 0 1 .12 2.44l-2 2a1.82 1.82 0 0 0-.17 2.43 1.77 1.77 0 0 0 2.62.13l4.26-4.26a16.22 16.22 0 0 0 11.94-5.43Z" class="cls-14"/><circle cx="164.3" cy="5.76" r="2.88" class="cls-12" transform="rotate(-45 164.307 5.762)"/><path d="M179.68 9a16.27 16.27 0 0 1-20.56 10.54l.08.17a5 5 0 0 1-1.17 4.9l-3.11 3.11a2 2 0 1 0 2.77 2.77l.57-.57a1.65 1.65 0 0 1 2.34 2.34l-2 2a1.77 1.77 0 1 0 2.5 2.5l4.26-4.26A16.27 16.27 0 0 0 179.68 9Z" class="cls-13"/><path d="M43.32 35.85 56 25.93l16.66 26.52c1.11 1.86-10.89 13.85-12.75 12.75L33.4 48.54Z" class="cls-2"/><path d="m56.01 25.93 1.55 2.6-21.55 21.56-2.61-1.55 1.38-1.77 19.47-19.46 1.76-1.38z" class="cls-8"/><path d="M28.83 46.5 54 21.36a2.94 2.94 0 1 1 4.15 4.15L33 50.65a2.94 2.94 0 1 1-4.15-4.15Z" class="cls-2"/><path d="M58.12 25.51 33 50.65a2.94 2.94 0 0 1-4.15 0l29.3-29.3a2.94 2.94 0 0 1-.03 4.16Z" class="cls-9"/><path d="m28.83 46.5 9.3-9.3c-.75.75-.44 2.3.71 3.44s2.69 1.46 3.44.71L33 50.65a2.94 2.94 0 1 1-4.15-4.15Z" class="cls-5"/><path fill="#95dd4a" d="M28.25 45.8a18.88 18.88 0 1 1 25.41-24.13L37.79 37.53a1.63 1.63 0 0 0 .39 1.66l2.92 2.92a1.73 1.73 0 0 1-2.45 2.45l-1.85-1.85a1.45 1.45 0 1 0-2 2 1.54 1.54 0 0 1 0 2.18l-.62.62a2.15 2.15 0 0 1-2.76.23l-2.15-1.53c-.36-.06-.7-.21-1.02-.41Z"/><circle cx="37.05" cy="16.44" r="3.34" class="cls-12" transform="rotate(-45 37.047 16.434)"/><path d="M29.13 46.16c-.33-.13-.65-.26-1-.41a2.94 2.94 0 0 1 .22-.25l24.87-24.83c.15.33.29.66.42 1Z" class="cls-13"/><path d="M28.25 45.8a18.88 18.88 0 0 1-9-25.59A18.88 18.88 0 0 0 42.8 32.53l-5 5a1.63 1.63 0 0 0 .39 1.66l2.92 2.92a1.73 1.73 0 0 1-2.45 2.45l-1.85-1.85a1.45 1.45 0 1 0-2 2 1.54 1.54 0 0 1 0 2.18l-.62.62a2.15 2.15 0 0 1-2.76.23l-2.15-1.53c-.37-.06-.71-.21-1.03-.41Z" class="cls-13"/><path d="M32.51 197.85v-.41a13.87 13.87 0 1 0-27.74 0v.41a13.84 13.84 0 0 0-4.41 3.59 1.65 1.65 0 0 0 1.28 2.69h.62a.93.93 0 0 0 .93-.93 1.45 1.45 0 0 1 1.45-1.45 1.45 1.45 0 0 1 1.46 1.45v3.8a1.46 1.46 0 0 0 1.46 1.46A1.46 1.46 0 0 0 9 207v-1.26a1.43 1.43 0 0 1 1.43-1.43 1.43 1.43 0 0 1 1.43 1.43v5.58a1.88 1.88 0 0 0 1.88 1.88 1.88 1.88 0 0 0 1.88-1.88v-3.5a1.19 1.19 0 0 1 1.19-1.19 1.19 1.19 0 0 1 1.19 1.21v1.87a1.54 1.54 0 0 0 1.54 1.54 1.54 1.54 0 0 0 1.54-1.54v-6.92a1.54 1.54 0 0 1 1.54-1.54 1.54 1.54 0 0 1 1.54 1.54v2.5a1.94 1.94 0 0 0 1.95 1.95 2 2 0 0 0 1.95-1.95v-2.9a1.14 1.14 0 0 1 1.14-1.14 1.14 1.14 0 0 1 1.14 1.14v1a1.25 1.25 0 0 0 1.25 1.25h.66a1.25 1.25 0 0 0 1.25-1.25.94.94 0 0 1 .94-.94 1.46 1.46 0 0 0 1-2.54 13.75 13.75 0 0 0-2.93-2.06Z" class="cls-14"/><path fill="#231f20" d="M16.55 201.05a13.33 13.33 0 0 1 2.09-1.79 13.2 13.2 0 0 0-3.31-1.66 13.2 13.2 0 0 1 1.22 3.45Zm18.88-1.18a13.75 13.75 0 0 0-2.92-2v-.41A13.9 13.9 0 0 0 22.08 184l.77.86a13.25 13.25 0 0 1-.17 12.53 13.26 13.26 0 0 1 7.7.22 13.2 13.2 0 0 1 1.49 6.1v.89h.41a1.25 1.25 0 0 0 1.25-1.25.94.94 0 0 1 .94-.94 1.46 1.46 0 0 0 .96-2.54Z" opacity=".3" style="mix-blend-mode:overlay"/><circle cx="12.12" cy="191.85" r="2.35" class="cls-12"/></g></g></g></svg>