<svg xmlns="http://www.w3.org/2000/svg" viewBox="0 0 183 273"><g fill="none" transform="translate(.991)"><path fill="#3AD7D7" d="M166.439 191.81c5.29-3.25 2.44-7.72 2.44-7.72-4.37-6-14.73 3.72-15.22 4.18a210.6 210.6 0 0 1-43.79-4.19 10.7 10.7 0 0 0 1.52-4c53.14-10.86 56.19-54.31 56.19-54.31 3.9-24.23-2.46-44.67-15-59.43-18.57-21.75-50.71-31.15-83.48-22.12-36.71 10.13-61.41 42.28-54.92 81.56 0 0 4.17 43.53 54.67 54.26a9.2 9.2 0 0 0 1.42 4.34 210.4 210.4 0 0 1-42.26 3.89c-.49-.46-10.85-10.14-15.22-4.18 0 0-2.85 4.47 2.44 7.72 0 0-14.87-2.65-13.42 8.54 0 0 .81 12.2 13.42 12.2 0 0 10.85.27 17.84-6.82a168.6 168.6 0 0 0 40.86-7.3 93.2 93.2 0 0 0-9.71 26.57 3.4 3.4 0 0 0-.26 1.21c0 3.58 6 6.69 14.83 8.22v26.79c-1.47.27-6.45 1.66-6.45 8.26 0 0 1.55 2.36 6.3 2.71a14.3 14.3 0 0 0 5.42-.4l5.86-2.23v-34.07h2.63v13.38-.06 4.23l.13 16.56 5.86 2.23a13.2 13.2 0 0 0 5 .53c5-.25 6.76-2.84 6.76-2.84 0-6.6-5-8-6.46-8.26v-12.35a.6.6 0 0 1-.06.25v-14.68c8.79-1.54 14.8-4.64 14.8-8.22a3 3 0 0 0-.09-.59h.06a93.4 93.4 0 0 0-9.54-26.85 169.3 169.3 0 0 0 39.62 6.9c7 7.09 17.84 6.82 17.84 6.82 12.6 0 13.42-12.2 13.42-12.2 1.41-11.18-13.45-8.53-13.45-8.53"/><path fill="#FFF200" d="M160.199 116.05c0 31.76-31.23 57.9-69.76 57.9s-69.76-26.14-69.76-57.9c0-36 31.24-46.88 69.76-46.88s69.76 7.58 69.76 46.88"/><path fill="#FFF" d="M114.439 104.37c0 6.08 4.56 11 10.24 11s10.24-4.93 10.24-11-4.59-11-10.24-11-10.24 4.93-10.24 11"/><circle cx="126.799" cy="102.4" r="5.8" fill="#00AAA6"/><circle cx="125.119" cy="98.51" r="1.74" fill="#FFF"/><path fill="#FFF" d="M47.209 104.37c0 6.08 4.56 11 10.24 11s10.24-4.93 10.24-11-4.59-11-10.24-11-10.24 4.93-10.24 11"/><circle cx="59.559" cy="102.4" r="5.8" fill="#00AAA6"/><circle cx="57.879" cy="98.51" r="1.74" fill="#FFF"/><path fill="#F8BC16" d="M85.359 112.36a3.35 3.35 0 1 0 3.34-3.5 3.42 3.42 0 0 0-3.34 3.5"/><path fill="#FF4C62" d="M119.009 134.19c-5.22 16-18.68 26.66-32.91 24.84s-24.39-15.25-25.61-31.81c23.75 6.28 40.34 6.93 58.52 6.97"/><path fill="#F8BC16" d="M98.459 69.4s-11 12.38-40.34 9.91l10.26-4.6s-6.37 2.47-17.37-.01c0 0 17.37-8.49 47.45-5.3"/><path fill="#3AD7D7" d="m141.149 31.46-12.69-9.92-16.65 26.51c-1.11 1.86 10.89 13.85 12.75 12.75l26.51-16.66z"/><path fill="#231F20" d="m128.459 21.54-1.54 2.6 21.55 21.55 2.6-1.55-1.38-1.76-19.46-19.47z" opacity=".3" style="mix-blend-mode:overlay"/><path fill="#3AD7D7" d="M155.649 42.11 130.499 17a2.94 2.94 0 1 0-4.15 4.15l25.14 25.14a2.94 2.94 0 1 0 4.15-4.15z"/><path fill="#00B9BF" d="m126.349 21.11 25.14 25.14a2.94 2.94 0 0 0 4.15 0L126.349 17a2.94 2.94 0 0 0 0 4.11"/><path fill="#00AAA6" d="m155.649 42.11-9.3-9.3c.75.75.44 2.3-.71 3.44s-2.69 1.46-3.44.71l9.3 9.3a2.94 2.94 0 1 0 4.15-4.15"/><path fill="#641803" d="M164.859 13.38a19.7 19.7 0 0 0-2.4-3.29 20 20 0 0 0-4.73-3.85z"/><path fill="#FFC931" d="M156.219 41.41a18.88 18.88 0 1 0-25.41-24.13l15.86 15.86a1.63 1.63 0 0 1-.39 1.66l-2.92 2.92a1.732 1.732 0 1 0 2.45 2.45l1.85-1.85a1.45 1.45 0 1 1 2 2 1.54 1.54 0 0 0 0 2.18l.62.62a2.15 2.15 0 0 0 2.76.23l2.15-1.53c.38-.07.71-.25 1.03-.41"/><circle cx="147.424" cy="12.056" r="3.34" fill="#FFF" opacity=".3" transform="rotate(-45 147.424 12.056)"/><path fill="#231F20" d="M155.339 41.77c.33-.13.65-.26 1-.41a3 3 0 0 0-.22-.25l-24.86-24.84c-.15.33-.29.66-.42 1z" opacity=".4" style="mix-blend-mode:overlay"/><path fill="#231F20" d="M156.219 41.41a18.88 18.88 0 0 0 9-25.59c-3.14 9.893-13.677 15.396-23.59 12.32l5 5a1.63 1.63 0 0 1-.39 1.66l-2.92 2.92a1.732 1.732 0 0 0 2.45 2.45l1.85-1.85a1.45 1.45 0 1 1 2 2 1.54 1.54 0 0 0 0 2.18l.62.62a2.15 2.15 0 0 0 2.76.23l2.15-1.53c.42-.07.75-.25 1.07-.41" opacity=".4" style="mix-blend-mode:overlay"/><path fill="#FF6B8D" d="M177.279 27.09c5.855-6.575 5.418-16.614-.986-22.655s-16.451-5.893-22.674.335c-.36.36-.7.74-1 1.13l3.27 6.84a4.08 4.08 0 0 1-.79 4.64l-2.09 2.07a2 2 0 0 0-.21 2.66 2 2 0 0 0 3 .16 1.58 1.58 0 0 1 2.25 0 1.63 1.63 0 0 1 0 2.31l-3.04 3.1a2 2 0 0 0-.1 2.78 2 2 0 0 0 2.81 0l.52-.52a1.7 1.7 0 0 1 2.27-.16 1.65 1.65 0 0 1 .12 2.44l-2 2a1.82 1.82 0 0 0-.17 2.43 1.77 1.77 0 0 0 2.62.13l4.26-4.26a16.22 16.22 0 0 0 11.94-5.43"/><circle cx="164.31" cy="5.766" r="2.88" fill="#FFF" opacity=".3" transform="rotate(-45 164.31 5.766)"/><path fill="#231F20" d="M179.689 9a16.27 16.27 0 0 1-20.56 10.54l.08.17a5 5 0 0 1-1.17 4.9l-3.11 3.11a2 2 0 1 0 2.77 2.77l.57-.57a1.655 1.655 0 1 1 2.34 2.34l-2 2a1.77 1.77 0 1 0 2.5 2.5l4.26-4.26A16.27 16.27 0 0 0 179.689 9" opacity=".4" style="mix-blend-mode:overlay"/><path fill="#3AD7D7" d="m43.329 35.85 12.68-9.92 16.66 26.52c1.11 1.86-10.89 13.85-12.75 12.75l-26.51-16.66z"/><path fill="#231F20" d="m56.019 25.93 1.55 2.6-21.55 21.56-2.61-1.55 1.38-1.77 19.47-19.46z" opacity=".3" style="mix-blend-mode:overlay"/><path fill="#3AD7D7" d="m28.839 46.5 25.17-25.14a2.94 2.94 0 1 1 4.15 4.15l-25.15 25.14a2.94 2.94 0 1 1-4.15-4.15z"/><path fill="#00B9BF" d="m58.129 25.51-25.12 25.14a2.94 2.94 0 0 1-4.15 0l29.3-29.3a2.94 2.94 0 0 1-.03 4.16"/><path fill="#00AAA6" d="m28.839 46.5 9.3-9.3c-.75.75-.44 2.3.71 3.44s2.69 1.46 3.44.71l-9.28 9.3a2.94 2.94 0 1 1-4.15-4.15z"/><path fill="#95DD4A" d="M28.259 45.8a18.88 18.88 0 1 1 25.41-24.13l-15.87 15.86a1.63 1.63 0 0 0 .39 1.66l2.92 2.92a1.732 1.732 0 0 1-2.45 2.45l-1.85-1.85a1.45 1.45 0 1 0-2 2 1.54 1.54 0 0 1 0 2.18l-.62.62a2.15 2.15 0 0 1-2.76.23l-2.15-1.53c-.36-.06-.7-.21-1.02-.41"/><circle cx="37.062" cy="16.436" r="3.34" fill="#FFF" opacity=".3" transform="rotate(-45 37.062 16.436)"/><path fill="#231F20" d="M29.139 46.16c-.33-.13-.65-.26-1-.41a3 3 0 0 1 .22-.25l24.87-24.83c.15.33.29.66.42 1z" opacity=".4" style="mix-blend-mode:overlay"/><path fill="#231F20" d="M28.259 45.8a18.88 18.88 0 0 1-9-25.59c3.14 9.872 13.65 15.37 23.55 12.32l-5 5a1.63 1.63 0 0 0 .39 1.66l2.92 2.92a1.732 1.732 0 0 1-2.45 2.45l-1.85-1.85a1.45 1.45 0 1 0-2 2 1.54 1.54 0 0 1 0 2.18l-.62.62a2.15 2.15 0 0 1-2.76.23l-2.15-1.53c-.37-.06-.71-.21-1.03-.41" opacity=".4" style="mix-blend-mode:overlay"/><path fill="#FF6B8D" d="M32.519 197.85v-.41c0-7.66-6.21-13.87-13.87-13.87s-13.87 6.21-13.87 13.87v.41a13.8 13.8 0 0 0-4.41 3.59 1.65 1.65 0 0 0 1.28 2.69h.62a.93.93 0 0 0 .93-.93c0-.8.65-1.45 1.45-1.45a1.45 1.45 0 0 1 1.46 1.45v3.8c0 .806.654 1.46 1.46 1.46a1.46 1.46 0 0 0 1.44-1.46v-1.26a1.43 1.43 0 0 1 2.86 0v5.58a1.88 1.88 0 0 0 3.76 0v-3.5a1.19 1.19 0 1 1 2.38.02v1.87a1.54 1.54 0 0 0 3.08 0v-6.92a1.54 1.54 0 1 1 3.08 0v2.5a1.94 1.94 0 0 0 1.95 1.95 2 2 0 0 0 1.95-1.95v-2.9a1.14 1.14 0 1 1 2.28 0v1c0 .69.56 1.25 1.25 1.25h.66c.69 0 1.25-.56 1.25-1.25 0-.52.42-.94.94-.94a1.46 1.46 0 0 0 1-2.54 13.8 13.8 0 0 0-2.93-2.06"/><path fill="#231F20" d="M16.559 201.05a13.3 13.3 0 0 1 2.09-1.79 13.2 13.2 0 0 0-3.31-1.66 13.2 13.2 0 0 1 1.22 3.45m18.88-1.18a13.8 13.8 0 0 0-2.92-2v-.41A13.9 13.9 0 0 0 22.089 184l.77.86a13.25 13.25 0 0 1-.17 12.53 13.26 13.26 0 0 1 7.7.22 13.2 13.2 0 0 1 1.49 6.1v.89h.41c.69 0 1.25-.56 1.25-1.25 0-.52.42-.94.94-.94a1.46 1.46 0 0 0 .96-2.54" opacity=".3" style="mix-blend-mode:overlay"/><circle cx="12.129" cy="191.85" r="2.35" fill="#FFF" opacity=".3"/></g></svg>