<svg xmlns="http://www.w3.org/2000/svg" viewBox="0 0 91 79"><g fill="none"><path fill="#F0F0F0" d="M0 32.27C16.61 7.67 52.58 24.6 69.2 0l21.51 46.13C74.1 70.73 38.12 53.8 21.51 78.4z"/><path fill="#F09" d="M19.86 74.85c16.61-24.6 52.58-7.67 69.19-32.27l1.66 3.55C74.1 70.73 38.12 53.8 21.51 78.4zM0 32.27C16.61 7.67 52.58 24.6 69.2 0l1.65 3.55c-16.61 24.59-52.58 7.67-69.2 32.27zm3.31 7.09c16.61-24.59 52.58-7.67 69.2-32.26l1.65 3.55C57.55 35.24 21.58 18.32 5 42.91zm3.31 7.1c16.61-24.59 52.58-7.67 69.2-32.27l1.65 3.55C60.86 42.34 24.89 25.41 8.27 50zm3.31 7.1C26.54 29 62.51 45.89 79.13 21.29l1.65 3.55c-16.61 24.6-52.58 7.67-69.2 32.27zm3.31 7.1c16.61-24.6 52.58-7.66 69.2-32.27l1.65 3.55C67.48 56.53 31.5 39.61 14.89 64.2zm3.31 7.09c16.61-24.59 52.58-7.67 69.19-32.26.56 1.18 1.11 2.36 1.66 3.54-16.61 24.6-52.59 7.68-69.2 32.27z"/><path fill="#0540A8" d="M0 32.27C8.42 19.81 21.8 18 35.12 16.06q5.81 12.42 11.59 24.84C33.39 42.84 20 44.65 11.58 57.11z"/><path fill="#FFF" d="M28.09 33.84a.83.83 0 0 0-.88.78 4.8 4.8 0 0 1-7.44 3.75.85.85 0 0 0-1.16.24.84.84 0 0 0 .25 1.16 6.48 6.48 0 0 0 10-5.05.84.84 0 0 0-.77-.88m-17.03-1.49a3.36 3.36 0 0 0 4.59 1.47 3.41 3.41 0 1 0-4.59-1.47m10.41-5.25a3.412 3.412 0 0 0 6.08-3.1 3.403 3.403 0 0 0-6.08 3.06z"/></g></svg>