<svg xmlns="http://www.w3.org/2000/svg" viewBox="0 0 236 269"><defs><radialGradient id="b" cx="74.727%" cy="36.381%" r="48.594%" fx="74.727%" fy="36.381%" gradientTransform="scale(1 .97083) rotate(-20.037 .778 .37)"><stop offset="47%" stop-color="#E6FFFA"/><stop offset="67%" stop-color="#EDF4F1"/><stop offset="100%" stop-color="#FFD9DC"/></radialGradient><linearGradient id="a" x1="58.319%" x2="23.173%" y1="71.76%" y2="25.094%"><stop offset="56%" stop-color="ivory"/><stop offset="69%" stop-color="#FCFAED"/><stop offset="83%" stop-color="#F5EDE2"/><stop offset="98%" stop-color="#E8D7D1"/><stop offset="100%" stop-color="#E6D4CF"/></linearGradient></defs><g fill="none" fill-rule="evenodd" transform="translate(-.005)"><path fill="#FF64C0" fill-rule="nonzero" d="m35.405 77.8 34.45 6.59-19.47 11.99z"/><path fill="#E00097" fill-rule="nonzero" d="M154.905 260.53h-11.51c-2.13 0-3.86-2.25-3.86-5v-3.73a99.19 99.19 0 0 0 15.37-5.8v14.53Zm-83.29-1.75h-12.8c-2.13 0-3.86-2.25-3.86-5v-16a97.22 97.22 0 0 0 16.66 9.38v11.62Zm-41.45-140.17a39.62 39.62 0 0 1-5-5.38c-9.3-12.13-9.63-26.87-.72-32.93 8.91-6.06 23.67-1.13 33 11a93.17 93.17 0 0 0-27.28 27.31Zm177.49 40c.11 1.44.19 2.9.23 4.36a31.22 31.22 0 0 1 4.69.49 9.47 9.47 0 0 0-2.48 4.61 5.46 5.46 0 0 0 2.31 5.81 7.89 7.89 0 0 0 4.29 1.43 5.592 5.592 0 0 0 2.06-.38c3.24-1.28 4.28-5.14 4.4-5.57a2 2 0 0 0 .06-.36 8.1 8.1 0 0 0-.74-4.18c2.56.84 6.33 4.3 8.74 7.92a2.17 2.17 0 0 0 3.61-2.41c-6.14-9.19-13.49-10.64-16.63-10l-.6.14a27.33 27.33 0 0 0-9.94-1.86Zm6.71 10.27a5.78 5.78 0 0 1 2.92-3.63c.197.143.384.3.56.47a3.41 3.41 0 0 1 1 2.74 4.11 4.11 0 0 1-1.74 2.43 3 3 0 0 1-2.39-.66c-.11-.09-.54-.37-.35-1.35Z"/><path fill="#FF64C0" fill-rule="nonzero" d="M30.165 118.61a93.17 93.17 0 0 1 27.27-27.31 99.516 99.516 0 0 1 54.68-16.13c50.5 0 91.88 36.79 95.54 83.45.11 1.44.19 2.9.23 4.36v2.38a86.92 86.92 0 0 1-24.28 60v38c0 3.1-1.73 5.62-3.86 5.62h-21c-2.13 0-3.86-2.52-3.86-5.62V246a99.19 99.19 0 0 1-15.37 5.73 100.81 100.81 0 0 1-39.18 3.06v8.51c0 3.1-1.73 5.62-3.86 5.62h-21c-2.13 0-3.86-2.52-3.86-5.62v-16.21a97.22 97.22 0 0 1-16.61-9.38c-23.5-16.44-38.7-42.71-38.7-72.36a85.86 85.86 0 0 1 13.86-46.74Z"/><ellipse cx="60.895" cy="160.91" fill="#FFF" fill-rule="nonzero" rx="8.43" ry="9.46"/><ellipse cx="60.895" cy="160.91" fill="#E00097" fill-rule="nonzero" rx="4.62" ry="5.19"/><ellipse cx="27.725" cy="151.45" fill="#FFF" fill-rule="nonzero" rx="8.43" ry="9.46"/><ellipse cx="27.725" cy="151.45" fill="#E00097" fill-rule="nonzero" rx="4.62" ry="5.19"/><path fill="#FF3DB7" fill-rule="nonzero" d="M104.755 86.41s25.53.6 24.54 35.61l-30 5.56 5.46-41.17Z"/><path fill="#E00097" fill-rule="nonzero" d="M75.265 109.47a26 26 0 0 0-7.41 1.07 36.09 36.09 0 0 1 4.85-10.91c8.3-12.73 22.7-18.63 32.05-13.22 9.35 5.41 10.16 20.16 1.81 32.89a38.21 38.21 0 0 1-7.32 8.28c-2.44-10.36-12.24-18.11-23.98-18.11Zm44.32-30.78 1.89 4.46s34.94 5.31 44.39 17.86v-5.88s-14.58-13.35-46.28-16.44Z"/><path fill="#B60088" fill-rule="nonzero" d="m35.405 219.22 3.29-2.1c4.44 7 11.37 10.64 18.07 9.6 6.31-1 11.51-5.93 13.91-13.24l3.71 1.21c-2.86 8.74-9.22 14.67-17 15.88-8.28 1.29-16.7-3.06-21.98-11.35Z"/><path fill="#FF3DB7" fill-rule="nonzero" d="M1.825 200.33c4.6 16.14 19.91 26.31 34.18 22.67 14.27-3.64 22.18-19.61 17.58-35.76-4.6-16.15-19.87-26.24-34.17-22.67-14.3 3.57-22.18 19.61-17.59 35.76Z"/><path fill="#FF0097" fill-rule="nonzero" d="M1.355 199c3.95 13.88 15.33 23.07 25.44 20.53 10.11-2.54 15.09-15.86 11.14-29.75-3.95-13.89-15.33-23.07-25.44-20.52-10.11 2.55-15.09 15.86-11.14 29.74Z"/><path fill="#E00097" fill-rule="nonzero" d="M19.005 192.71c-.48 4.4 1.16 8.17 3.66 8.41 2.5.24 4.89-3.12 5.34-7.54.45-4.42-1.16-8.17-3.65-8.41-2.49-.24-4.89 3.13-5.35 7.54Zm-14.33-1.38c-.48 4.41 1.15 8.17 3.65 8.41 2.5.24 4.91-3.14 5.39-7.54.48-4.4-1.16-8.17-3.65-8.41-2.49-.24-4.91 3.14-5.39 7.54Z"/><path fill="#FF3DB7" fill-rule="nonzero" d="M157.515 30.08s-1.08-2.22.72-2.58a1.42 1.42 0 0 1 1.58 1.28 1.5 1.5 0 0 1-1 1.61l-1.3-.31Z"/><path fill="#FFF" fill-rule="nonzero" d="m112.115 66.05 31.49-52.64 43.03 26.23-31.38 52.29-43.14-25.88z"/><path fill="#B3B3B3" fill-rule="nonzero" d="m143.775 14.1 42.18 25.7-30.87 51.45-42.28-25.37 31-51.78m-.34-1.38-.52.87-31 51.78-.51.86.86.51 42.29 25.37.86.51.51-.86 30.86-51.44.51-.85-.85-.52-42.18-25.7-.86-.52.03-.01Z"/><path fill="#97A92B" fill-rule="nonzero" d="m160.065 78.93-38.6-23.59 22.76-38.3 38.93 23.56z"/><path fill="#BDB1A2" fill-rule="nonzero" d="m143.775 14.1-30.97 51.78 41.62 24.88-.15.15-41.78-25 31.1-51.83.18.02z"/><path fill="#FF3DB7" fill-rule="nonzero" d="m160.165 79 14.19-23.8 1-1.67-.57-1.06.42.25-.8-1.31.37.14-1.18-1.62.41.07-1.2-1.4.34.05-1.14-1.28.53.13-1.48-1.38.51.16-.89-1.1.54.17-1-1.25h.77c-.49-.44-1.54-1.6-1.54-1.6l.63.08c-.42-.56-1.55-1.83-1.55-1.83l.48.25a19.54 19.54 0 0 0-1.32-2l.43.22a14.23 14.23 0 0 0-1.16-1.6l.56.45a27.49 27.49 0 0 0-4.28-5.28 15.33 15.33 0 0 0-1.36-1.07 2 2 0 0 0 .74-.59c.86-1.14-.55-2.05-.55-2.05-1.45-.73-1.94.74-2.09 1.5-1.52-.75-3.3-1.24-4.78-.48a10.81 10.81 0 0 0-3 3.35 21.06 21.06 0 0 1-5.36-1.45c-.87-.07-1.07 1.2-1.18 2.47a4 4 0 0 0 .39 2.31 7.55 7.55 0 0 0 2.65 2.22 9.45 9.45 0 0 1 1.78 1.42c.26.36 1.11 1.61 1 2.27l.24-.91c.262.37.449.788.55 1.23l.1-.54s.65 1.26.49 1.77l.22-.81c.19.54.285 1.108.28 1.68l.22-.43-.08.84a26.17 26.17 0 0 0-2.88 5.13s-.8 2-2.27 5a13.14 13.14 0 0 1-2.46-1.08 8.87 8.87 0 0 1-3.65-3.62 17.42 17.42 0 0 1-1.93-5.61s-2.49.62-2.66 4.07a14.72 14.72 0 0 0 .12 3.82 8.59 8.59 0 0 0-.21 2.12l.26-.6.11 1.42.21-.43a9 9 0 0 0 .09 1.36l.23-.47a4.4 4.4 0 0 0 .28 1.63l.14-.57a5.58 5.58 0 0 0 .16 1.5l.18-.39.47 1.49.2-.33.37 1.23.13-.47.6 1.52.15-.41.61 1.42.15-.41.62 1.23.2-.33.48.93c-.65 1-1.26 1.81-2 2.78L160.165 79Z"/><path fill="#FFBD2D" fill-rule="nonzero" d="m142.815 42.81-2.32-1.34-5.43 9.53s0 .87 1.65 1.89c1.69 1 2.45.56 2.45.56l5.86-9.23-2.21-1.41Z"/><ellipse cx="137.362" cy="50.683" fill="#FF9D1E" fill-rule="nonzero" rx="1" ry="2.11" transform="rotate(-59.3 137.362 50.683)"/><path fill="#FFE881" fill-rule="nonzero" d="m141.635 42.22-5.39 9.09.85.64 5.57-9.14z"/><path fill="#FFF" fill-rule="nonzero" d="M155.235 34c.31-.52.85-.77 1.21-.56a.62.62 0 0 1 .28.45 1.13 1.13 0 0 0-.39-1.22c-.52-.31-1.33.07-1.79.85-.46.78-.43 1.67.1 2a1 1 0 0 0 1.09-.11.58.58 0 0 1-.41-.06c-.32-.2-.4-.79-.09-1.35Z"/><path fill="#1C0D0A" fill-rule="nonzero" d="M156.715 33.92a.62.62 0 0 0-.28-.45c-.35-.21-.89 0-1.21.56-.32.56-.28 1.12.07 1.33a.58.58 0 0 0 .41.06 2.23 2.23 0 0 0 .7-.74 2.31 2.31 0 0 0 .31-.76Z"/><path fill="#FFFFD4" fill-rule="nonzero" d="M146.375 37.24a3.93 3.93 0 0 1-.71 1 1.8 1.8 0 0 0-.28.36c-.12.21-.19.47 0 .57 0 0 .4.34.72-.58 0 0 .06-.18.17-.47.11-.29.2-.46.3-.69l-.2-.19Z"/><path fill="#FFFFD4" fill-rule="nonzero" d="M145.945 36.59s-.15.22.14.55l.14.15a.17.17 0 0 1 0 .12.62.62 0 0 1-.1.19l.15.33s.07-.22.22-.25a.4.4 0 0 1 .27.07l.13.1s.27.29.41.26c.14-.03-.13-.52-1.36-1.52Z"/><path fill="#FFF2AC" fill-rule="nonzero" d="m135.065 51 .58-1a6.78 6.78 0 0 0 1.6 1.52s1.7 1.12 2.52 1l-.55.92s-.88.49-2.68-.73a3.06 3.06 0 0 1-1.47-1.71Z"/><ellipse cx="142.796" cy="42.806" fill="#FFFFC2" fill-rule="nonzero" rx="1" ry="2.71" transform="rotate(-59.09 142.796 42.806)"/><path fill="#FFFFC2" fill-rule="nonzero" d="m140.463 41.4.55-.917 4.659 2.789-.55.918z"/><ellipse cx="143.348" cy="41.886" stroke="#EDE6BD" stroke-width=".63" rx="1" ry="2.71" transform="rotate(-59.09 143.348 41.886)"/><path stroke="#EDE6BD" stroke-width=".63" d="m141.005 40.49-6 10.48s0 .9 1.68 1.91c0 0 1.6 1 2.48.58l6.45-10.18-4.61-2.79Z"/><path fill="#FFFFD4" fill-rule="nonzero" d="M145.635 43.25s.21-.89-1.14-1.8a1 1 0 0 1-.26-.25.41.41 0 0 1-.06-.24.21.21 0 0 0-.29-.23 1.06 1.06 0 0 1-.33 0 2 2 0 0 1-.55-.13s-1.74-.56-1.93-.12a5.19 5.19 0 0 0 1.51 1.23 11.1 11.1 0 0 0 3.05 1.54Z"/><path fill="#FF9D1E" fill-rule="nonzero" d="M141.345 50v-2.2a1.68 1.68 0 0 0-.88 1.79s-.09.28.57.92l.31-.51Zm-2.71-4.5s1.54-.13.91-1.27a.83.83 0 0 0-.38-.42l-2.51 4.45c.42-.12 1.76-.6 1-1.62.04.01 1.35.02.98-1.14Z"/><path fill="#FF3DB7" fill-rule="nonzero" d="M139.865 43.7s-.25-.76-1.42-.5c0 0-3.26.57-3.24 5.41 0 0 .18 1 .47 1.15 0 0 .36-.64 1.17-2 0 0 2-.45 1.17-1.65 0 0 1.36 0 .94-1.15 0 .04 1.39-.32.91-1.26Z"/><circle cx="138.033" cy="51.331" r="1" fill="#FFFFA4" fill-rule="nonzero" transform="rotate(-59.15 138.033 51.331)"/><circle cx="137.769" cy="50.63" r="1" fill="#FFFFA4" fill-rule="nonzero" transform="rotate(-59.3 137.77 50.63)"/><circle cx="138.287" cy="50.911" r="1" fill="#FFFFA4" fill-rule="nonzero" transform="rotate(-59.09 138.287 50.91)"/><circle cx="138.388" cy="50.719" r="1" fill="#FFFFA4" fill-rule="nonzero" transform="rotate(-59.16 138.388 50.72)"/><circle cx="138.506" cy="50.532" r="1" fill="#FFFFA4" fill-rule="nonzero" transform="rotate(-59.15 138.506 50.532)"/><circle cx="138.675" cy="50.276" r="1" fill="#FFFFA4" fill-rule="nonzero" transform="rotate(-59.04 138.675 50.276)"/><circle cx="138.789" cy="50.071" r="1" fill="#FFFFA4" fill-rule="nonzero" transform="rotate(-59.05 138.79 50.07)"/><circle cx="138.908" cy="49.887" r="1" fill="#FFFFA4" fill-rule="nonzero" transform="rotate(-59.24 138.908 49.887)"/><circle cx="139.023" cy="49.682" r="1" fill="#FFFFA4" fill-rule="nonzero" transform="rotate(-59.05 139.023 49.682)"/><circle cx="138.674" cy="48.953" r="1" fill="#FFFFA4" fill-rule="nonzero" transform="rotate(-59.3 138.674 48.953)"/><circle cx="139.259" cy="49.291" r="1" fill="#FFFFA4" fill-rule="nonzero" transform="rotate(-59.04 139.26 49.29)"/><circle cx="139.378" cy="49.09" r="1" fill="#FFFFA4" fill-rule="nonzero" transform="rotate(-59.04 139.378 49.09)"/><circle cx="139.517" cy="48.901" r="1" fill="#FFFFA4" fill-rule="nonzero" transform="rotate(-59.09 139.517 48.9)"/><circle cx="137.174" cy="49.131" r="1" fill="#FFFFA4" fill-rule="nonzero" transform="rotate(-59.02 137.174 49.131)"/><circle cx="137.319" cy="48.888" r="1" fill="#FFFFA4" fill-rule="nonzero" transform="rotate(-59.15 137.319 48.888)"/><circle cx="137.422" cy="48.706" r="1" fill="#FFFFA4" fill-rule="nonzero" transform="rotate(-59.15 137.422 48.706)"/><circle cx="137.535" cy="48.52" r="1" fill="#FFFFA4" fill-rule="nonzero" transform="rotate(-59.15 137.535 48.52)"/><circle cx="137.65" cy="48.339" r="1" fill="#FFFFA4" fill-rule="nonzero" transform="rotate(-59.08 137.65 48.34)"/><circle cx="137.816" cy="48.068" r="1" fill="#FFFFA4" fill-rule="nonzero" transform="rotate(-59.05 137.816 48.068)"/><circle cx="137.945" cy="47.878" r="1" fill="#FFFFA4" fill-rule="nonzero" transform="rotate(-59.05 137.945 47.878)"/><circle cx="138.056" cy="47.68" r="1" fill="#FFFFA4" fill-rule="nonzero" transform="rotate(-59.04 138.056 47.68)"/><circle cx="138.167" cy="47.481" r="1" fill="#FFFFA4" fill-rule="nonzero" transform="rotate(-58.96 138.167 47.48)"/><circle cx="138.303" cy="47.285" r="1" fill="#FFFFA4" fill-rule="nonzero" transform="rotate(-59.06 138.303 47.285)"/><circle cx="138.419" cy="47.089" r="1" fill="#FFFFA4" fill-rule="nonzero" transform="rotate(-59.05 138.419 47.089)"/><circle cx="138.518" cy="46.887" r="1" fill="#FFFFA4" fill-rule="nonzero" transform="rotate(-59.15 138.518 46.887)"/><circle cx="138.651" cy="46.686" r="1" fill="#FFFFA4" fill-rule="nonzero" transform="rotate(-59.11 138.651 46.686)"/><circle cx="142.046" cy="46.472" r="1" fill="#FFFFA4" fill-rule="nonzero" transform="rotate(-59.15 142.046 46.472)"/><circle cx="142.188" cy="46.246" r="1" fill="#FFFFA4" fill-rule="nonzero" transform="rotate(-59.07 142.188 46.246)"/><circle cx="141.844" cy="45.581" r="1" fill="#FFFFA4" fill-rule="nonzero" transform="rotate(-59.3 141.844 45.58)"/><circle cx="141.957" cy="45.4" r="1" fill="#FFFFA4" fill-rule="nonzero" transform="rotate(-59.3 141.957 45.4)"/><circle cx="142.515" cy="45.683" r="1" fill="#FFFFA4" fill-rule="nonzero" transform="rotate(-59.14 142.515 45.683)"/><circle cx="142.687" cy="45.42" r="1" fill="#FFFFA4" fill-rule="nonzero" transform="rotate(-59.22 142.687 45.42)"/><circle cx="142.813" cy="45.24" r="1" fill="#FFFFA4" fill-rule="nonzero" transform="rotate(-59.13 142.813 45.24)"/><circle cx="142.92" cy="45.021" r="1" fill="#FFFFA4" fill-rule="nonzero" transform="rotate(-59.04 142.92 45.021)"/><circle cx="143.046" cy="44.842" r="1" fill="#FFFFA4" fill-rule="nonzero" transform="rotate(-59.13 143.046 44.842)"/><circle cx="143.156" cy="44.647" r="1" fill="#FFFFA4" fill-rule="nonzero" transform="rotate(-59.13 143.156 44.647)"/><circle cx="143.262" cy="44.433" r="1" fill="#FFFFA4" fill-rule="nonzero" transform="rotate(-59.15 143.262 44.433)"/><circle cx="143.404" cy="44.257" r="1" fill="#FFFFA4" fill-rule="nonzero" transform="rotate(-59.05 143.404 44.257)"/><circle cx="143.526" cy="44.049" r="1" fill="#FFFFA4" fill-rule="nonzero" transform="rotate(-59.09 143.526 44.049)"/><circle cx="142.215" cy="45.69" r="1" fill="#FFFFA4" fill-rule="nonzero" transform="rotate(-59.06 142.215 45.69)"/><circle cx="142.325" cy="45.487" r="1" fill="#FFFFA4" fill-rule="nonzero" transform="rotate(-59.15 142.325 45.487)"/><circle cx="142.438" cy="45.287" r="1" fill="#FFFFA4" fill-rule="nonzero" transform="rotate(-59.05 142.438 45.287)"/><circle cx="142.063" cy="44.573" r="1" fill="#FFFFA4" fill-rule="nonzero" transform="rotate(-59.3 142.063 44.573)"/><circle cx="142.674" cy="44.89" r="1" fill="#FFFFA4" fill-rule="nonzero" transform="rotate(-59.04 142.674 44.89)"/><circle cx="142.795" cy="44.699" r="1" fill="#FFFFA4" fill-rule="nonzero" transform="rotate(-59.07 142.795 44.7)"/><circle cx="142.926" cy="44.499" r="1" fill="#FFFFA4" fill-rule="nonzero" transform="rotate(-59.24 142.926 44.499)"/><circle cx="140.606" cy="43.602" r="1" fill="#FFFFA4" fill-rule="nonzero" transform="rotate(-59.07 140.606 43.602)"/><circle cx="140.719" cy="43.404" r="1" fill="#FFFFA4" fill-rule="nonzero" transform="rotate(-59.15 140.72 43.404)"/><circle cx="140.836" cy="43.218" r="1" fill="#FFFFA4" fill-rule="nonzero" transform="rotate(-59.05 140.836 43.218)"/><circle cx="140.966" cy="43.025" r="1" fill="#FFFFA4" fill-rule="nonzero" transform="rotate(-59.13 140.966 43.025)"/><circle cx="141.08" cy="42.829" r="1" fill="#FFFFA4" fill-rule="nonzero" transform="rotate(-59.14 141.08 42.83)"/><circle cx="141.197" cy="42.623" r="1" fill="#FFFFA4" fill-rule="nonzero" transform="rotate(-59.13 141.197 42.623)"/><circle cx="141.313" cy="42.42" r="1" fill="#FFFFA4" fill-rule="nonzero" transform="rotate(-59.11 141.313 42.42)"/><circle cx="140.082" cy="44.139" r="1" fill="#FFFFA4" fill-rule="nonzero" transform="rotate(-58.93 140.082 44.14)"/><circle cx="140.199" cy="43.94" r="1" fill="#FFFFA4" fill-rule="nonzero" transform="rotate(-59.12 140.199 43.94)"/><circle cx="140.315" cy="43.737" r="1" fill="#FFFFA4" fill-rule="nonzero" transform="rotate(-59.04 140.315 43.737)"/><circle cx="140.445" cy="43.553" r="1" fill="#FFFFA4" fill-rule="nonzero" transform="rotate(-59.13 140.445 43.553)"/><circle cx="140.553" cy="43.347" r="1" fill="#FFFFA4" fill-rule="nonzero" transform="rotate(-59.23 140.553 43.347)"/><circle cx="140.674" cy="43.162" r="1" fill="#FFFFA4" fill-rule="nonzero" transform="rotate(-59.13 140.674 43.162)"/><circle cx="140.808" cy="42.968" r="1" fill="#FFFFA4" fill-rule="nonzero" transform="rotate(-59.21 140.808 42.968)"/><circle cx="140.223" cy="43.486" r="1" fill="#FFFFA4" fill-rule="nonzero" transform="rotate(-59.13 140.223 43.486)"/><circle cx="140.332" cy="43.281" r="1" fill="#FFFFA4" fill-rule="nonzero" transform="rotate(-59.13 140.332 43.28)"/><circle cx="140.45" cy="43.089" r="1" fill="#FFFFA4" fill-rule="nonzero" transform="rotate(-59.04 140.45 43.09)"/><circle cx="140.562" cy="42.885" r="1" fill="#FFFFA4" fill-rule="nonzero" transform="rotate(-59.05 140.562 42.885)"/><circle cx="140.685" cy="42.697" r="1" fill="#FFFFA4" fill-rule="nonzero" transform="rotate(-59.13 140.685 42.697)"/><circle cx="140.31" cy="41.98" r="1" fill="#FFFFA4" fill-rule="nonzero" transform="rotate(-59.3 140.31 41.98)"/><circle cx="140.947" cy="42.301" r="1" fill="#FFFFA4" fill-rule="nonzero" transform="rotate(-58.99 140.947 42.301)"/><circle cx="143.785" cy="45.511" r="1" fill="#FFFFA4" fill-rule="nonzero" transform="rotate(-59.05 143.785 45.51)"/><circle cx="143.901" cy="45.311" r="1" fill="#FFFFA4" fill-rule="nonzero" transform="rotate(-59.23 143.9 45.311)"/><circle cx="144.029" cy="45.125" r="1" fill="#FFFFA4" fill-rule="nonzero" transform="rotate(-59.13 144.03 45.125)"/><circle cx="144.13" cy="44.917" r="1" fill="#FFFFA4" fill-rule="nonzero" transform="rotate(-59.05 144.13 44.917)"/><circle cx="144.243" cy="44.719" r="1" fill="#FFFFA4" fill-rule="nonzero" transform="rotate(-59.23 144.243 44.719)"/><circle cx="144.378" cy="44.524" r="1" fill="#FFFFA4" fill-rule="nonzero" transform="rotate(-59.13 144.378 44.524)"/><circle cx="144.51" cy="44.331" r="1" fill="#FFFFA4" fill-rule="nonzero" transform="rotate(-59.09 144.51 44.331)"/><circle cx="140.438" cy="47.677" r="1" fill="#FFFFA4" fill-rule="nonzero" transform="rotate(-58.94 140.438 47.677)"/><circle cx="140.552" cy="47.47" r="1" fill="#FFFFA4" fill-rule="nonzero" transform="rotate(-59.23 140.552 47.47)"/><circle cx="140.669" cy="47.287" r="1" fill="#FFFFA4" fill-rule="nonzero" transform="rotate(-59.05 140.669 47.287)"/><circle cx="140.793" cy="47.099" r="1" fill="#FFFFA4" fill-rule="nonzero" transform="rotate(-59.13 140.793 47.099)"/><circle cx="140.899" cy="46.884" r="1" fill="#FFFFA4" fill-rule="nonzero" transform="rotate(-59.15 140.9 46.884)"/><circle cx="141.018" cy="46.694" r="1" fill="#FFFFA4" fill-rule="nonzero" transform="rotate(-59.05 141.018 46.694)"/><circle cx="141.148" cy="46.496" r="1" fill="#FFFFA4" fill-rule="nonzero" transform="rotate(-59.11 141.148 46.496)"/><circle cx="139.282" cy="52.181" r="1" fill="#FFFFA4" fill-rule="nonzero" transform="rotate(-59.05 139.282 52.18)"/><circle cx="139.409" cy="52.006" r="1" fill="#FFFFA4" fill-rule="nonzero" transform="rotate(-59.14 139.41 52.006)"/><circle cx="139.513" cy="51.782" r="1" fill="#FFFFA4" fill-rule="nonzero" transform="rotate(-59.07 139.513 51.782)"/><circle cx="139.633" cy="51.587" r="1" fill="#FFFFA4" fill-rule="nonzero" transform="rotate(-59.04 139.633 51.587)"/><circle cx="139.761" cy="51.402" r="1" fill="#FFFFA4" fill-rule="nonzero" transform="rotate(-59.23 139.76 51.402)"/><circle cx="139.87" cy="51.209" r="1" fill="#FFFFA4" fill-rule="nonzero" transform="rotate(-59.05 139.87 51.209)"/><circle cx="139.998" cy="50.998" r="1" fill="#FFFFA4" fill-rule="nonzero" transform="rotate(-59.11 139.998 50.998)"/><circle cx="136.943" cy="49.86" r="1" fill="#FFFFA4" fill-rule="nonzero" transform="rotate(-58.841 136.943 49.86)"/><circle cx="135.852" cy="49.364" r="1" fill="#FFFFA4" fill-rule="nonzero" transform="rotate(-59.3 135.852 49.364)"/><circle cx="135.956" cy="49.158" r="1" fill="#FFFFA4" fill-rule="nonzero" transform="rotate(-59.3 135.956 49.158)"/><circle cx="136.55" cy="49.502" r="1" fill="#FFFFA4" fill-rule="nonzero" transform="rotate(-58.95 136.55 49.502)"/><circle cx="136.651" cy="49.29" r="1" fill="#FFFFA4" fill-rule="nonzero" transform="rotate(-59.05 136.651 49.29)"/><circle cx="136.771" cy="49.093" r="1" fill="#FFFFA4" fill-rule="nonzero" transform="rotate(-59.05 136.77 49.093)"/><circle cx="136.895" cy="48.89" r="1" fill="#FFFFA4" fill-rule="nonzero" transform="rotate(-58.98 136.895 48.89)"/><circle cx="139.082" cy="50.707" r="1" fill="#FFFFA4" fill-rule="nonzero" transform="rotate(-59.02 139.082 50.707)"/><circle cx="139.23" cy="50.479" r="1" fill="#FFFFA4" fill-rule="nonzero" transform="rotate(-59.08 139.23 50.479)"/><circle cx="139.328" cy="50.287" r="1" fill="#FFFFA4" fill-rule="nonzero" transform="rotate(-59.15 139.328 50.287)"/><circle cx="139.125" cy="49.753" r="1" fill="#FFFFA4" fill-rule="nonzero" transform="rotate(-59.3 139.125 49.753)"/><circle cx="139.563" cy="49.923" r="1" fill="#FFFFA4" fill-rule="nonzero" transform="rotate(-59.07 139.563 49.923)"/><circle cx="139.727" cy="49.662" r="1" fill="#FFFFA4" fill-rule="nonzero" transform="rotate(-59.13 139.727 49.662)"/><circle cx="139.375" cy="48.926" r="1" fill="#FFFFA4" fill-rule="nonzero" transform="rotate(-59.3 139.375 48.926)"/><circle cx="139.485" cy="48.72" r="1" fill="#FFFFA4" fill-rule="nonzero" transform="rotate(-59.3 139.485 48.72)"/><circle cx="140.088" cy="49.059" r="1" fill="#FFFFA4" fill-rule="nonzero" transform="rotate(-59.05 140.088 49.06)"/><circle cx="140.205" cy="48.878" r="1" fill="#FFFFA4" fill-rule="nonzero" transform="rotate(-59.06 140.205 48.878)"/><circle cx="140.308" cy="48.662" r="1" fill="#FFFFA4" fill-rule="nonzero" transform="rotate(-59.07 140.308 48.662)"/><circle cx="140.428" cy="48.466" r="1" fill="#FFFFA4" fill-rule="nonzero" transform="rotate(-59.04 140.428 48.466)"/><circle cx="140.572" cy="48.289" r="1" fill="#FFFFA4" fill-rule="nonzero" transform="rotate(-58.99 140.572 48.29)"/><circle cx="141.256" cy="48.63" r="1" fill="#FFFFA4" fill-rule="nonzero" transform="rotate(-59.07 141.256 48.63)"/><circle cx="140.954" cy="47.913" r="1" fill="#FFFFA4" fill-rule="nonzero" transform="rotate(-59.3 140.954 47.913)"/><circle cx="141.499" cy="48.211" r="1" fill="#FFFFA4" fill-rule="nonzero" transform="rotate(-59.15 141.499 48.211)"/><circle cx="141.61" cy="48.029" r="1" fill="#FFFFA4" fill-rule="nonzero" transform="rotate(-59.08 141.61 48.029)"/><circle cx="141.725" cy="47.851" r="1" fill="#FFFFA4" fill-rule="nonzero" transform="rotate(-59.09 141.725 47.85)"/><circle cx="141.889" cy="47.567" r="1" fill="#FFFFA4" fill-rule="nonzero" transform="rotate(-59.15 141.889 47.567)"/><circle cx="142.02" cy="47.381" r="1" fill="#FFFFA4" fill-rule="nonzero" transform="rotate(-59.05 142.02 47.38)"/><circle cx="142.127" cy="47.183" r="1" fill="#FFFFA4" fill-rule="nonzero" transform="rotate(-59.06 142.127 47.183)"/><circle cx="142.253" cy="46.992" r="1" fill="#FFFFA4" fill-rule="nonzero" transform="rotate(-59.05 142.253 46.992)"/><circle cx="142.363" cy="46.787" r="1" fill="#FFFFA4" fill-rule="nonzero" transform="rotate(-59.05 142.363 46.787)"/><circle cx="142.47" cy="46.579" r="1" fill="#FFFFA4" fill-rule="nonzero" transform="rotate(-58.97 142.47 46.579)"/><circle cx="142.607" cy="46.409" r="1" fill="#FFFFA4" fill-rule="nonzero" transform="rotate(-59.05 142.607 46.41)"/><circle cx="142.734" cy="46.198" r="1" fill="#FFFFA4" fill-rule="nonzero" transform="rotate(-58.98 142.734 46.198)"/><path fill="#FF3DB7" fill-rule="nonzero" d="M142.755 47.64s-.64-1.29-1.75.44a2.22 2.22 0 0 0 .56 2.47s2.28-1.19 1.19-2.91Z"/><path fill="#FFF" fill-rule="nonzero" d="m143.995 45.76 1.07.16-1.09.15-.28 1.27-.14-1.2-1.07-.4 1.12-.05.37-1.06.02 1.13Zm-6.51 3.43.48.07-.49.06-.13.56-.06-.53-.47-.17.5-.03.16-.47.01.51Zm2.8-7.45.48.08-.49.06-.12.56-.06-.53-.48-.17.5-.03.16-.47.01.5Zm4.61 3.08.47.08-.48.06-.13.56-.06-.53-.47-.17.5-.03.16-.47.01.5Z"/><path fill="#F78" d="M147.375 32.2s-1.46-1-1.6.94c0 0-.08.57-.12 1.14a2.44 2.44 0 0 0 1.72-2.08Z"/><path fill="#FFF" fill-rule="nonzero" d="M63.815 14.26 100.335.64l16.77 44.04-36.37 13.85-16.92-44.27z"/><path fill="#B3B3B3" fill-rule="nonzero" d="m100.005 1.28 16.41 43.1-35.41 13.5-16.54-43.33 35.54-13.27m.62-1.28-.93.35-35.58 13.27-.94.35.36.94 16.56 43.33.36.93.93-.36 35.43-13.49.93-.36-.36-.93-16.38-43.1-.38-.93Z"/><path fill="#65B8B8" fill-rule="nonzero" d="m111.425 35.8-32.53 12.31-12.31-32.53 32.58-12.21z"/><path fill="url(#a)" fill-rule="nonzero" d="M88.005 43.72s1.22.75 1-.86a.4.4 0 0 0 .3-.48 1.2 1.2 0 0 0-.63-.69 6.22 6.22 0 0 1 .33-4.54c.29.79 1.34 3.76 2.26 6.36l7.42-2.82-2.39-6.26c1.12.32 2.11 1.12 3.32 3.3 0 0-.22.67 0 .93a.4.4 0 0 0 .54.17c.85 1.39 1.3 0 1.3 0 1-.5.28-1.61 0-2a8.57 8.57 0 0 0-4.56-4.33 9.92 9.92 0 0 0-5.8.3c-2.87 1.05-3 1.72-3 1.72l.14.35a3.49 3.49 0 0 0-.7 1 8.57 8.57 0 0 0-.67 6.26c-.14.54.04 1.87 1.14 1.59Z"/><path fill="#FFFFED" fill-rule="nonzero" d="M99.185 22.12c-2.13-5.82-6-7.94-6-7.94l.11.69a5.89 5.89 0 0 0-2.7-2.06c.206.387.393.784.56 1.19a6.57 6.57 0 0 0-3-1.92l.39 1.07a7.76 7.76 0 0 0-2.54-1.55c.18.385.33.782.45 1.19a5.57 5.57 0 0 0-1.53-1.24v1.3c-.23-.57-.5-1.12-.81-1.65a20 20 0 0 0-.61 2.13l-.24-1.13a10.81 10.81 0 0 0-1.53 3.2l-.28-.87a13.49 13.49 0 0 0-.9 2.55l-.29-1a10.66 10.66 0 0 0-1.07 3.14l-.12-.72a15.58 15.58 0 0 0-.58 10.56c.05.19.12.39.19.58 1.71 4.66 6.76 6.82 13.27 4.43 6.26-2.3 8.69-6.76 7.5-11.17-.08-.253-.164-.5-.25-.74l-.02-.04Z"/><path fill="url(#b)" fill-rule="nonzero" d="M94.635 19.74a5.21 5.21 0 0 0-2.27-1.19 14.59 14.59 0 0 0-2-.39c-1.65-.22-4-.45-4.68-1.68.25 1.4-1.37 3.07-2.48 4.3a14.59 14.59 0 0 0-1.29 1.6 6.39 6.39 0 0 0-1 2.37c-.4 2.7 2.65 10.33 10.49 7.45 7.9-2.88 5.3-10.45 3.23-12.46Z"/><circle cx="85.682" cy="23.666" r="1" fill="#723835" fill-rule="nonzero" transform="rotate(-20.17 85.682 23.666)"/><circle cx="90.187" cy="22.025" r="1" fill="#723835" fill-rule="nonzero" transform="rotate(-20.17 90.187 22.025)"/><circle cx="88.589" cy="24.42" r="1" fill="#FF3056" fill-rule="nonzero" transform="rotate(-20.17 88.589 24.42)"/><path fill="#FFFFED" fill-rule="nonzero" d="M78.925 24a13.48 13.48 0 0 0-9.86-4.35 15.79 15.79 0 0 0 2.2 4.28l-.61-.19s3.5 8.51 10.13 7L78.925 24Z"/><path fill="#FFDCE6" fill-rule="nonzero" d="M78.095 26.45s-2.34-3.45-5.45-3.62a6.92 6.92 0 0 0 6 5.66l-2.34-1.62 2.08.47-1.87-1.34 1.58.45Z"/><path fill="#FFFFED" fill-rule="nonzero" d="M95.755 17.8a13.48 13.48 0 0 1 4.7-9.69 15.79 15.79 0 0 1 1.1 4.68l.34-.54s2.84 8.75-3.22 11.86l-2.92-6.31Z"/><path fill="#FFDCE6" fill-rule="nonzero" d="M98.005 19.15s-.26-4.46 2-6.58a7.62 7.62 0 0 1-1.09 8.43l.71-2.74-1.28 1.74.57-2.21-.91 1.36Z"/><path fill="#FF3056" fill-rule="nonzero" d="M87.405 26.65a2.33 2.33 0 0 0 3.6-1.32l-3.6 1.32Z"/></g></svg>