<svg xmlns="http://www.w3.org/2000/svg" viewBox="0 0 625 821"><g fill="none" transform="translate(.904)"><path fill="#FFFFCF" d="M27.336 191.6s-63.8-86.76 33.89-180.69c0 0 5.52-4.18 4.58 1.47-4.32 26.23-18.65 112.72 28.29 170.32zm569.15 0s63.79-86.76-33.89-180.69c0 0-5.52-4.18-4.58 1.47 4.32 26.23 18.65 112.71-28.29 170.32z"/><path fill="#000" d="M623.096 122.64s0 .07-.06.11c-.41-4-3.46-7.18-7.21-7.18a7.14 7.14 0 0 0-6.11 3.67 6.84 6.84 0 0 0-4.79-2 7.11 7.11 0 0 0-6 3.45 6.77 6.77 0 0 0-11 .12 7.12 7.12 0 0 0-6-3.47 6.9 6.9 0 0 0-4.93 2.15 7.15 7.15 0 0 0-6.17-3.79 6.9 6.9 0 0 0-5 2.21 7.09 7.09 0 0 0-5.89-3.35c-3.65 0-6.65 3-7.18 6.85-7.63 47.16-51.46 53.63-80.38 53.33-17.54-20.12-36.23-37.81-36.23-37.81-24.19-22-39.57-36.11-53.87-50.86C331.586 33.69 316.406 0 316.406 0c-3.92 7.7-14.31 29.89-60.44 79.09-14.51 15.48-37.09 37.81-58.27 57.82 0 0-16.33 16.58-33.38 37.25-26.29 1.89-84.47 2.26-93.37-52.77-.53-3.87-3.53-6.85-7.18-6.85a7.09 7.09 0 0 0-5.89 3.35 6.9 6.9 0 0 0-5-2.21 7.15 7.15 0 0 0-6.17 3.79 6.9 6.9 0 0 0-4.93-2.15 7.12 7.12 0 0 0-6 3.47 6.77 6.77 0 0 0-11-.12 7.11 7.11 0 0 0-6-3.45 6.85 6.85 0 0 0-4.79 2 7.14 7.14 0 0 0-6.11-3.67c-3.75 0-6.81 3.15-7.21 7.18 0 0 0-.07-.06-.11s-15.33 114.51 111.16 139.31c-12.91 33-19.79 70.82-13 111.74 0 0 11.1 116.08 142.18 151.19-17.94 8.37-28.2 17.14-28.2 17.14a136 136 0 0 0-15.09 15.13v-.29c-20.42 26.62-41.47 29.09-41.47 29.09a48.7 48.7 0 0 0 24.23-3l-.09.17c-12.8 12.11-23.71 14.45-23.71 14.45a51.1 51.1 0 0 0 18.29-2.85c-5.89 13.94-10.79 30.56-14.27 50.69-2 7.38-8.44 41.8 15.23 41.4s26.93-18.43 23-33.67c5.14-28.32 15-65.43 45.73-88.65 0 12.44 1.66 203.5.87 216.36a167 167 0 0 0-15.53 11.17c-15.35 13.65-2.27 27.1 25.79 28.17 46.76 1.41 55-13.77 55.79-22.39.27-15.49-.7-63.44-.82-63.41.24-10.47-.2-20.55.68-26.62.77-5.35 3.54-7.62 7-7.73h.52c3.42.11 6.19 2.38 7 7.73.88 6.07.43 16.15.68 26.62-.12 0-1.09 47.92-.83 63.41.75 8.62 9 23.79 55.8 22.39 28.06-1.07 41.15-14.52 25.79-28.17-3.6-3.2-11.83-7.41-15-9.42-.8-12.87.3-205.78.34-218.22v-3.33c2.79.57 4.37.77 4.37.77a133.6 133.6 0 0 0 30.9.31c26.47.41 39.2 11.47 39.2 11.47a49.64 49.64 0 0 0-16.46-14.83c16.95 1.49 25.68 7.75 25.68 7.75a50.6 50.6 0 0 0-15.24-12c14.37-5 30.08-12.61 47.45-23.66 6.84-3.46 34.69-19.15 20.39-39.12a34 34 0 0 0-3.55-5.37c2.1-2.68 10.48-16.33 4.62-21.5s-13.71-1-24.09 14.77a5 5 0 0 1-.48.59s-5.27-6.75-11.42-2c0 0-5.49 3.3-5.5 19.12-23.86 14.9-57 32.09-93.79 26.22 132.69-37 140.6-149.9 140.6-149.9 6.62-41.12.32-80.31-12.11-114.21 114.39-29.1 99.85-136.8 99.85-136.8"/><ellipse cx="283.036" cy="160.51" fill="#FFFFCF" rx="24.96" ry="33.33"/><ellipse cx="283.026" cy="160.52" fill="#000" rx="14.58" ry="19.47"/><ellipse cx="341.796" cy="160.51" fill="#FFFFCF" rx="24.96" ry="33.33"/><ellipse cx="341.786" cy="160.52" fill="#000" rx="14.58" ry="19.47"/><circle cx="312.406" cy="203.84" r="7.18" fill="#FF005D"/><path fill="#F09" d="M349.756 261c49.37-1.78 95.9-8.11 137.51-18.09-7.62 62.5-52.62 114-112.94 133.41-11.71-13.11-30.9-21.66-52.6-21.66s-41.08 8.64-52.78 21.85c-60.64-19.21-105.93-70.88-113.58-133.61 42.27 10.14 89.61 16.52 139.84 18.18 0 .04 28.13 1.38 54.55-.08"/><path fill="#A80058" d="M321.726 354.7c-21.81 0-41.08 8.64-52.78 21.85a174.37 174.37 0 0 0 105.38-.2c-11.71-13.1-30.9-21.65-52.6-21.65"/><rect width="70.28" height="70.28" x="282.996" y="547.64" fill="#F09" rx="3.75"/><path fill="#FFF" d="M333.306 594.29a2.38 2.38 0 0 0-3.25.87 13.75 13.75 0 0 1-23.83 0 2.382 2.382 0 0 0-4.12 2.39 18.51 18.51 0 0 0 32.08 0 2.38 2.38 0 0 0-.88-3.26m-41.56-25.73a9.74 9.74 0 1 0 19.47-.624 9.74 9.74 0 0 0-19.47.624m33.35 0a9.74 9.74 0 1 0 19.47-.624 9.74 9.74 0 0 0-19.47.624"/></g></svg>