<svg xmlns="http://www.w3.org/2000/svg" viewBox="0 0 616 256"><g fill="none"><path fill="#ED003A" d="M181.23 158.14c3.76-5.57 2-6.88 2-6.88a1.59 1.59 0 0 0-2.38-.11 11.18 11.18 0 0 0-1.84 2.44c-.86 1.42-1.84 2.95-2.67 4a38.64 38.64 0 0 1-4.66 5.17l-.42-.21c-15.16 11.83-28.86 7.38-30.19 6.91v-3.11c-12.08-9.74-24.6-7.22-24.6-7.22-17.11 0-19.12 7.22-19.12 7.22l.1 3.64-1-.57S82.1 175 66.14 162.56l-.42.21a38.62 38.62 0 0 1-4.66-5.17c-.82-1.09-1.81-2.62-2.67-4a11.18 11.18 0 0 0-1.84-2.44 1.59 1.59 0 0 0-2.38.11s-1.75 1.31 2 6.88c0 0-5.45 3.26-2.37 8.36a9.83 9.83 0 0 0 5.06 4.34s17.06 14.46 38.75 9.23c0 9.62-.05 31.32-.09 46a3.15 3.15 0 0 1-.32-.25l.23 14.44a28 28 0 0 0-4.2 3.16 5 5 0 0 0-1.84 3.64 9.35 9.35 0 0 0-.2 3.79s.31 2 3.12 3.35a18.88 18.88 0 0 0 8.05 1.53s6.37.08 10.3-1.53c2.48-.86 4.84-2.55 5.59-4.47 0 0 .74-4.35.12-6.46a2.68 2.68 0 0 0-.8-1.13c0-6-.15-15.94-.15-15.94l-.11.06c0-2.35-.1-4.59-.1-6.25 0-3 .58-3.95 2.17-3.95 2.7 0 2.53 3.89 2.53 3.89l.12 6.28s.16 10.17.22 16.22a3.06 3.06 0 0 0-.6.85c-.62 2.11.12 6.46.12 6.46.74 1.92 3.11 3.61 5.59 4.47 3.93 1.61 10.3 1.53 10.3 1.53a18.88 18.88 0 0 0 8.05-1.53c2.81-1.39 2.84-3.35 2.84-3.35a11.19 11.19 0 0 0-.5-4.15l-.11-.08a6.12 6.12 0 0 0-1.71-3.19 20.13 20.13 0 0 0-3.71-3v-.25c0-1.24-.07-7.24-.2-14.69l-.2.15c-.35-14.13-.79-34.5-1-45.21 21.09 4.39 37.48-9.51 37.48-9.51a9.83 9.83 0 0 0 5.06-4.34c3.02-5.22-2.43-8.48-2.43-8.48Z"/><path fill="#FFF" d="m118.12 171-12.09 19.27h8.51l-13.45 24.64 30.92-30.02h-8.96l9.41-13.89h-14.34z"/><path fill="#17B6E1" d="m59.92 54.48-25.3-21.62-1.82 12.32L0 20.47l36.85 51.15 1.92-12.97 18.09 16.58 3.06-20.75Zm116.47 0 25.3-21.62 1.82 12.32 32.8-24.71-36.85 51.15-1.92-12.97-18.09 16.58-3.06-20.75Z"/><ellipse cx="117.5" cy="104.42" fill="#FFF" rx="68.1" ry="62"/><path fill="#FF0042" d="M119.45 31.21s-82.19-3-78.59 73.94c4.08 63 61.29 66.76 77.51 66.76 19.88 0 73.46-4.69 76.8-66.76 3.34-62.07 6.08-71.77-75.72-73.94Z"/><path fill="#FFF" d="M119.45 33.18c69.72 1.85 75.81 54.1 76.07 69.76.21-12.11-2.62-70-76.07-72 0 0-79.83-2.87-78.94 70.53.71-71.09 78.94-68.29 78.94-68.29Z"/><path fill="#D9002B" d="M195.2 99.1c-3.35 62.27-56.86 66.9-76.8 66.9-16.28 0-73.4-3.86-77.5-67 0-.58-.023-1.153-.07-1.72-.08 2.51-.1 5.1 0 7.8 4.1 63.16 61.29 67 77.57 67 19.94 0 73.45-4.71 76.79-67a54.87 54.87 0 0 0 0-6.45c.02.37.01.47.01.47Z"/><circle cx="148.47" cy="44.32" r="1.58" fill="#FFF"/><path fill="#00DCD7" d="M118.37 56.81c-67-1.18-63.78 41.51-63.78 41.51-.16 4.82-1 62.77 63.77 62.77 64.78 0 63.93-58 63.77-62.77.02.01 3.22-42.69-63.76-41.51Z"/><path fill="#17B6E1" d="M54.58 101.33C54.92 93 60 60.71 118.37 61.74c58.36-1 63.44 31.25 63.78 39.58v-3s3.19-42.69-63.78-41.51c-67-1.18-63.78 41.51-63.78 41.51-.02.5-.04 1.54-.01 3.01Z"/><circle cx="117.88" cy="91.49" r="2.25" fill="red"/><path fill="#FFF" d="M102.09 80.62c-.225 6.41-5.563 11.445-11.974 11.297-6.411-.149-11.51-5.426-11.438-11.839.072-6.413 5.289-11.574 11.702-11.578a11.91 11.91 0 0 1 11.71 12.12Z"/><ellipse cx="90.34" cy="80.65" fill="#231F20" rx="3.72" ry="3.85"/><path fill="#FFF" d="M133.78 80.62c.225 6.41 5.563 11.445 11.974 11.297 6.411-.149 11.51-5.426 11.438-11.839-.072-6.413-5.289-11.574-11.702-11.578a11.91 11.91 0 0 0-11.71 12.12Z"/><ellipse cx="145.54" cy="80.65" fill="#231F20" rx="3.72" ry="3.85"/><path fill="#EB2D74" d="M125.11 114a159.49 159.49 0 0 0 31.26-4.11c-1.73 14.21-12 25.92-25.67 30.33-6.634-6.611-17.366-6.611-24 0-13.7-4.32-24.04-16.06-25.78-30.32a159.79 159.79 0 0 0 31.79 4.1s6.39.34 12.4 0Z"/><path fill="#C00058" d="M118.73 135.3a16 16 0 0 0-12 5 39.64 39.64 0 0 0 24 0 16 16 0 0 0-12-5Z"/><path fill="#FF0" d="M159.59 117s66.31-14 66.31-40 5.62-64 41.86-64c10.67 0 41-7.41 105.24-9C527 .19 563.83 0 563.83 0s51 10 51 48 6 116-51 116S482 169 429 169c-53 0-147.5 6.5-154 0-3.36-3.36-11.86-3.3-23.18-13-10.56-9-24.1-35-24.1-35s-12.08 8.46-32.37 7c-27.83-2-35.76-11-35.76-11Z"/><path fill="#FF0180" d="M263.62 123.39 263 109a39.67 39.67 0 0 0 18.49 4.12c4.9-.21 8.59-2.87 8.41-7-.19-4.5-4.37-6.32-7.1-6.91l-6.47-1.53c-6.07-1.44-15.4-6.75-15.93-19.34-.52-12.19 10-19.94 21.65-20.44a41.17 41.17 0 0 1 16.2 2l.61 14.39A28.15 28.15 0 0 0 284 70.67c-4.9.21-9.38 3.1-9.18 7.8.18 4.2 4.65 5.81 7.38 6.49l5.46 1.37c8.29 2.05 16.12 7.22 16.6 18.51.58 13.69-9.3 21.41-22.19 22a41.21 41.21 0 0 1-18.45-3.45Zm90.26-.52-12.29.52-.1-2.4a18.31 18.31 0 0 1-10.65 3.75c-12.19.52-22.21-9.27-22.73-21.46a22.45 22.45 0 0 1 44.86-1.9l.91 21.49Zm-23.82-30.62c-5.546.208-9.873 4.872-9.666 10.419.207 5.546 4.871 9.874 10.417 9.667 5.546-.207 9.875-4.87 9.669-10.416a10.05 10.05 0 0 0-10.42-9.67Zm35.09 25.13-13.7-37.56 13.29-.56 8.39 25.57 6.3-26.19 13.19-.56-10.37 38.58c-1.13 4.15-4.15 6.08-8.34 6.26-4.19.18-7.29-1.5-8.76-5.54Zm71.44-12.53s-4.14 15.59-20.53 16.28a22.45 22.45 0 0 1-1.9-44.86c11.69-.5 22 8.38 22.39 18.07.19 4.6-2 8.29-7.45 8.52l-22.68 1a9.57 9.57 0 0 0 16.28 1.61l13.89-.62ZM423.3 93.7a8.94 8.94 0 0 0-8.63-5.14 9.23 9.23 0 0 0-8.67 5.87l17.3-.73Zm61.45 2.1c.525 12.388-9.092 22.855-21.48 23.38-12.388.525-22.855-9.092-23.38-21.48-.52-12.29 8.64-22.89 20.83-23.4a18 18 0 0 1 10.42 2.56l-1.1-26 12.79-.54 1.92 45.48Zm-22.91-9.14c-5.546.208-9.873 4.872-9.666 10.419.207 5.546 4.871 9.874 10.417 9.667 5.546-.207 9.875-4.87 9.669-10.416a10.05 10.05 0 0 0-10.42-9.67ZM515 52a7.6 7.6 0 1 1 .646 15.186A7.6 7.6 0 0 1 515 52Zm-3.68 64.22-1.82-43.09 12.79-.54 1.83 43.06-12.8.57ZM527.16 53l12.84-.58.82 19.38 8.09-.34.5 11.89-8.09.34.53 12.49c.2 4.8 3.39 6.66 6.88 6.51l2.2-.09.5 11.89-2.2.09c-13.49.57-19.76-8.07-20.18-17.86L527.16 53Zm29.77 41-2.26-53.41L569.5 40l2.26 53.41-14.83.59Zm7.65 3.75a8.58 8.58 0 1 1 1.12 17.123 8.58 8.58 0 0 1-1.12-17.123Z"/></g></svg>