<svg xmlns="http://www.w3.org/2000/svg" viewBox="0 0 329 161"><defs><radialGradient id="b" cx="21.494%" cy="44.81%" r="48.562%" fx="21.494%" fy="44.81%" gradientTransform="scale(-1 -.96753) rotate(20.037 2.579 -1.224)"><stop offset="47%" stop-color="#E6FFFA"/><stop offset="67%" stop-color="#EDF4F1"/><stop offset="100%" stop-color="#FFD9DC"/></radialGradient><linearGradient id="a" x1="32.17%" x2="67.585%" y1="57.422%" y2="10.777%"><stop offset="56%" stop-color="ivory"/><stop offset="69%" stop-color="#FCFAED"/><stop offset="83%" stop-color="#F5EDE2"/><stop offset="98%" stop-color="#E8D7D1"/><stop offset="100%" stop-color="#E6D4CF"/></linearGradient></defs><g fill="none" fill-rule="evenodd" transform="translate(.004)"><path fill="#FF9D00" fill-rule="nonzero" d="M137.896 59.14c19.13-5.58 42.73-6.25 57-7.45 33.37-2.83 67.09-3.6 100.25 1.85 10.11 1.67 21.03 4.46 27.41 12.46 7.18 9.08 6.4 21.89 5.27 33.41-.7 7.15-1.61 14.8-6.29 20.26-5.11 6-13.43 7.83-21.15 9.28-35.87 6.74-72.11 12-108.58 13.27-15.07.55-30.43.39-44.84-4.07-14.41-4.46-27.92-13.78-34.33-27.42-14.5-30.86 2.1-44.83 25.26-51.59Z"/><path fill="#DF7B00" fill-rule="nonzero" d="m147.196 98.26 4.92-.48a6 6 0 0 0 1.8 3.64 5.45 5.45 0 0 0 3.67 1.16 5.63 5.63 0 0 0 3.68-1 3.08 3.08 0 0 0 1.24-2.42 2.28 2.28 0 0 0-.52-1.51 4.17 4.17 0 0 0-1.82-1.08c-.593-.207-1.943-.57-4.05-1.09a13.73 13.73 0 0 1-5.7-2.48 6.52 6.52 0 0 1-2.31-5 6.44 6.44 0 0 1 1.09-3.58 6.79 6.79 0 0 1 3.13-2.54 12.53 12.53 0 0 1 4.93-.87c3.147 0 5.514.69 7.1 2.07a7.3 7.3 0 0 1 2.5 5.52l-5.06.22a4.3 4.3 0 0 0-1.39-2.82 5.11 5.11 0 0 0-3.21-.85 5.78 5.78 0 0 0-3.45.91 1.82 1.82 0 0 0-.8 1.56c0 .596.278 1.157.75 1.52.667.533 2.217 1.09 4.65 1.67a24.51 24.51 0 0 1 5.46 1.8 7 7 0 0 1 2.77 2.55 7.89 7.89 0 0 1-.2 8 7.17 7.17 0 0 1-3.38 2.79 14.21 14.21 0 0 1-5.45.91c-3.166 0-5.6-.733-7.3-2.2a9.55 9.55 0 0 1-3.05-6.4Zm27.49-4.46-4.36-.8a6.79 6.79 0 0 1 2.53-3.9 9.26 9.26 0 0 1 5.33-1.26 11.5 11.5 0 0 1 4.79.76 4.77 4.77 0 0 1 2.21 1.93 9.9 9.9 0 0 1 .64 4.3l-.05 5.61a19.5 19.5 0 0 0 .22 3.56 10.3 10.3 0 0 0 .86 2.44h-4.75a16.57 16.57 0 0 1-.46-1.42c-.08-.28-.14-.47-.17-.56a8.65 8.65 0 0 1-2.63 1.79 7.55 7.55 0 0 1-3 .6 6.18 6.18 0 0 1-4.42-1.52 5.06 5.06 0 0 1-1.61-3.85 5.16 5.16 0 0 1 .73-2.74 4.8 4.8 0 0 1 2.06-1.85 16.12 16.12 0 0 1 3.82-1.12 26.16 26.16 0 0 0 4.67-1.18v-.48a2.49 2.49 0 0 0-.68-2 4.1 4.1 0 0 0-2.58-.59 3.44 3.44 0 0 0-2 .5 3.5 3.5 0 0 0-1.15 1.78Zm6.43 3.9a30 30 0 0 1-2.92.73 8.81 8.81 0 0 0-2.61.84 2 2 0 0 0-.94 1.69 2.35 2.35 0 0 0 .75 1.74 2.62 2.62 0 0 0 1.91.73 4.16 4.16 0 0 0 2.48-.85 3 3 0 0 0 1.15-1.59 9.49 9.49 0 0 0 .19-2.34l-.01-.95Zm13.73 8.72-7.31-18.15h5l3.46 9.26 1 3.09c.26-.787.427-1.307.5-1.56.16-.513.33-1.027.51-1.54l3.45-9.26h4.94l-7.21 18.15-4.34.01Zm24.29-5.78 4.79.8a7.85 7.85 0 0 1-2.91 4 8.56 8.56 0 0 1-5 1.38c-3.153 0-5.486-1.03-7-3.09a10.39 10.39 0 0 1-1.79-6.25 10 10 0 0 1 2.36-7.07 7.77 7.77 0 0 1 6-2.55 8.06 8.06 0 0 1 6.39 2.67c1.56 1.78 2.307 4.51 2.24 8.19h-12a4.85 4.85 0 0 0 1.16 3.32 3.63 3.63 0 0 0 2.77 1.19 2.94 2.94 0 0 0 1.9-.62 3.8 3.8 0 0 0 1.09-1.97Zm.27-4.85a4.62 4.62 0 0 0-1.08-3.17 3.46 3.46 0 0 0-5.09.06 4.43 4.43 0 0 0-1 3.11h7.17Zm25.33-7.52v3.83h-3.28v7.31a18.23 18.23 0 0 0 .09 2.59c.064.25.217.466.43.61.238.165.521.249.81.24a6.22 6.22 0 0 0 1.93-.46l.41 3.73a9.55 9.55 0 0 1-3.79.72 6 6 0 0 1-2.34-.44 3.42 3.42 0 0 1-1.53-1.13 4.44 4.44 0 0 1-.67-1.87 23.11 23.11 0 0 1-.15-3.38V92.1h-2.21v-3.83h2.21v-3.61l4.82-2.8v6.41h3.27Zm7.42-6.91v9.21a7.2 7.2 0 0 1 8.54-2.1 4.89 4.89 0 0 1 2 1.57 5.73 5.73 0 0 1 .92 2.12 19 19 0 0 1 .25 3.61v10.65h-4.8v-9.59a14.23 14.23 0 0 0-.27-3.62 2.38 2.38 0 0 0-1-1.22 3.11 3.11 0 0 0-1.73-.45 4 4 0 0 0-2.14.58 3.35 3.35 0 0 0-1.38 1.75 10.45 10.45 0 0 0-.44 3.46v9.09h-4.8V81.36h4.85Zm15.89 4.45v-4.45h4.8v4.44l-4.8.01Zm0 20.61V88.27h4.8v18.15h-4.8Zm7.33-5.18 4.82-.73a3.53 3.53 0 0 0 1.25 2.13 4.22 4.22 0 0 0 2.63.73 4.75 4.75 0 0 0 2.8-.68 1.53 1.53 0 0 0 .63-1.28 1.26 1.26 0 0 0-.34-.91 3.84 3.84 0 0 0-1.61-.63c-3.873-.853-6.33-1.633-7.37-2.34a4.68 4.68 0 0 1-2.15-4.08 5 5 0 0 1 1.86-4c1.24-1.073 3.167-1.61 5.78-1.61a10.08 10.08 0 0 1 5.54 1.21 6.21 6.21 0 0 1 2.5 3.59l-4.53.84a2.8 2.8 0 0 0-1.1-1.62 4 4 0 0 0-2.32-.56 5.22 5.22 0 0 0-2.72.53 1.14 1.14 0 0 0-.55 1c.006.352.186.678.48.87a18 18 0 0 0 4.5 1.3 13.36 13.36 0 0 1 5.36 2.14 4.44 4.44 0 0 1 1.5 3.57 5.48 5.48 0 0 1-2.08 4.29c-1.393 1.193-3.45 1.79-6.17 1.79a10.12 10.12 0 0 1-5.87-1.5 6.93 6.93 0 0 1-2.84-4.05Zm22.34-1.24-1.25-12.71v-5.93h5.2v5.88l-1.23 12.76h-2.72Zm-1 6.46v-4.8h4.8v4.8h-4.8Z"/><path fill="#FFF" fill-rule="nonzero" d="m146.196 97.26 4.92-.48a6 6 0 0 0 1.8 3.64 5.45 5.45 0 0 0 3.67 1.16 5.63 5.63 0 0 0 3.68-1 3.08 3.08 0 0 0 1.24-2.42 2.28 2.28 0 0 0-.52-1.51 4.17 4.17 0 0 0-1.82-1.08c-.593-.207-1.943-.57-4.05-1.09a13.73 13.73 0 0 1-5.7-2.48 6.52 6.52 0 0 1-2.31-5 6.44 6.44 0 0 1 1.09-3.58 6.79 6.79 0 0 1 3.13-2.54 12.53 12.53 0 0 1 4.93-.87c3.147 0 5.514.69 7.1 2.07a7.3 7.3 0 0 1 2.5 5.52l-5.06.22a4.3 4.3 0 0 0-1.39-2.82 5.11 5.11 0 0 0-3.21-.85 5.78 5.78 0 0 0-3.45.91 1.82 1.82 0 0 0-.8 1.56c0 .596.278 1.157.75 1.52.667.533 2.217 1.09 4.65 1.67a24.51 24.51 0 0 1 5.46 1.8 7 7 0 0 1 2.77 2.55 7.89 7.89 0 0 1-.2 8 7.17 7.17 0 0 1-3.38 2.79 14.21 14.21 0 0 1-5.45.91c-3.166 0-5.6-.733-7.3-2.2a9.55 9.55 0 0 1-3.05-6.4Zm27.49-4.46-4.36-.8a6.79 6.79 0 0 1 2.53-3.9 9.26 9.26 0 0 1 5.33-1.26 11.5 11.5 0 0 1 4.79.76 4.77 4.77 0 0 1 2.21 1.93 9.9 9.9 0 0 1 .64 4.3l-.05 5.61a19.5 19.5 0 0 0 .22 3.56 10.3 10.3 0 0 0 .86 2.44h-4.75a16.57 16.57 0 0 1-.46-1.42c-.08-.28-.14-.47-.17-.56a8.65 8.65 0 0 1-2.63 1.79 7.55 7.55 0 0 1-3 .6 6.18 6.18 0 0 1-4.42-1.52 5.06 5.06 0 0 1-1.61-3.85 5.16 5.16 0 0 1 .73-2.74 4.8 4.8 0 0 1 2.06-1.85 16.12 16.12 0 0 1 3.82-1.12 26.16 26.16 0 0 0 4.67-1.18v-.48a2.49 2.49 0 0 0-.68-2 4.1 4.1 0 0 0-2.58-.59 3.44 3.44 0 0 0-2 .5 3.5 3.5 0 0 0-1.15 1.78Zm6.43 3.9a30 30 0 0 1-2.92.73 8.81 8.81 0 0 0-2.61.84 2 2 0 0 0-.94 1.69 2.35 2.35 0 0 0 .75 1.74 2.62 2.62 0 0 0 1.91.73 4.16 4.16 0 0 0 2.48-.85 3 3 0 0 0 1.15-1.59 9.49 9.49 0 0 0 .19-2.34l-.01-.95Zm13.73 8.72-7.31-18.15h5l3.46 9.26 1 3.09c.26-.787.427-1.307.5-1.56.16-.513.33-1.027.51-1.54l3.45-9.26h4.94l-7.21 18.15-4.34.01Zm24.29-5.78 4.79.8a7.85 7.85 0 0 1-2.91 4 8.56 8.56 0 0 1-5 1.38c-3.153 0-5.486-1.03-7-3.09a10.39 10.39 0 0 1-1.79-6.25 10 10 0 0 1 2.36-7.07 7.77 7.77 0 0 1 6-2.55 8.06 8.06 0 0 1 6.39 2.67c1.56 1.78 2.307 4.51 2.24 8.19h-12a4.85 4.85 0 0 0 1.16 3.32 3.63 3.63 0 0 0 2.77 1.19 2.94 2.94 0 0 0 1.9-.62 3.8 3.8 0 0 0 1.09-1.97Zm.27-4.85a4.62 4.62 0 0 0-1.08-3.17 3.46 3.46 0 0 0-5.09.06 4.43 4.43 0 0 0-1 3.11h7.17Zm25.33-7.52v3.83h-3.28v7.31a18.23 18.23 0 0 0 .09 2.59c.064.25.217.466.43.61.238.165.521.249.81.24a6.22 6.22 0 0 0 1.93-.46l.41 3.73a9.55 9.55 0 0 1-3.79.72 6 6 0 0 1-2.34-.44 3.42 3.42 0 0 1-1.53-1.13 4.44 4.44 0 0 1-.67-1.87 23.11 23.11 0 0 1-.15-3.38v-7.93h-2.21v-3.82h2.21v-3.61l4.82-2.8v6.41h3.27Zm7.42-6.91v9.21a7.2 7.2 0 0 1 8.54-2.1 4.89 4.89 0 0 1 2 1.57 5.73 5.73 0 0 1 .92 2.12 19 19 0 0 1 .25 3.61v10.65h-4.8v-9.59a14.23 14.23 0 0 0-.27-3.62 2.38 2.38 0 0 0-1-1.22 3.11 3.11 0 0 0-1.73-.45 4 4 0 0 0-2.14.58 3.35 3.35 0 0 0-1.38 1.75 10.45 10.45 0 0 0-.44 3.46v9.09h-4.8V80.36h4.85Zm15.89 4.45v-4.45h4.8v4.44l-4.8.01Zm0 20.61V87.27h4.8v18.15h-4.8Zm7.33-5.18 4.82-.73a3.53 3.53 0 0 0 1.25 2.13 4.22 4.22 0 0 0 2.63.73 4.75 4.75 0 0 0 2.8-.68 1.53 1.53 0 0 0 .63-1.28 1.26 1.26 0 0 0-.34-.91 3.84 3.84 0 0 0-1.61-.63c-3.873-.853-6.33-1.633-7.37-2.34a4.68 4.68 0 0 1-2.19-4.1 5 5 0 0 1 1.86-4c1.24-1.073 3.167-1.61 5.78-1.61a10.08 10.08 0 0 1 5.54 1.21 6.21 6.21 0 0 1 2.5 3.59l-4.53.84a2.8 2.8 0 0 0-1.1-1.62 4 4 0 0 0-2.32-.56 5.22 5.22 0 0 0-2.72.53 1.14 1.14 0 0 0-.55 1c.006.352.186.678.48.87a18 18 0 0 0 4.54 1.32 13.36 13.36 0 0 1 5.36 2.14 4.44 4.44 0 0 1 1.5 3.57 5.48 5.48 0 0 1-2.08 4.29c-1.393 1.193-3.45 1.79-6.17 1.79a10.12 10.12 0 0 1-5.87-1.5 6.93 6.93 0 0 1-2.84-4.05Zm22.34-1.24-1.25-12.71v-5.93h5.2v5.88L299.436 99h-2.72Zm-1 6.46v-4.8h4.8v4.8h-4.8Z"/><path fill="#FF64C0" fill-rule="nonzero" d="m118.836 46.8-20.49 3.92 11.58 7.13z"/><path fill="#E00097" fill-rule="nonzero" d="M47.756 155.49h6.85c1.27 0 2.3-1.34 2.3-3v-2.22a59 59 0 0 1-9.14-3.41l-.01 8.63Zm49.54-1.04h7.61c1.27 0 2.3-1.34 2.3-3v-9.55a57.83 57.83 0 0 1-9.91 5.58v6.97Zm24.7-83.38a23.57 23.57 0 0 0 3-3.2c5.53-7.22 5.73-16 .43-19.59-5.3-3.59-14.08-.67-19.62 6.54a55.42 55.42 0 0 1 16.19 16.25ZM10.466 96l-.36-.08c-1.87-.38-6.24.48-9.89 5.95a1.291 1.291 0 0 0 2.15 1.43c1.44-2.15 3.68-4.21 5.2-4.71a4.82 4.82 0 0 0-.44 2.41 1.22 1.22 0 0 0 0 .21 5 5 0 0 0 2.61 3.32c.389.153.803.23 1.22.23a4.69 4.69 0 0 0 2.55-.85 3.24 3.24 0 0 0 1.38-3.46 5.63 5.63 0 0 0-1.48-2.74 18.57 18.57 0 0 1 2.79-.29c0-.87.07-1.73.14-2.59a16.25 16.25 0 0 0-5.87 1.17Zm1.69 5.81a1.79 1.79 0 0 1-1.42.39 2.45 2.45 0 0 1-1-1.44 2 2 0 0 1 .62-1.63 3.1 3.1 0 0 1 .33-.28 3.44 3.44 0 0 1 1.7 2.15c.11.56-.14.72-.24.78l.01.03Z"/><path fill="#FF64C0" fill-rule="nonzero" d="M121.996 71.07a55.42 55.42 0 0 0-16.22-16.24 59.194 59.194 0 0 0-32.53-9.6c-30 0-54.65 21.88-56.83 49.64-.07.86-.12 1.72-.14 2.59v1.42a51.7 51.7 0 0 0 14.44 35.68v22.61c0 1.84 1 3.34 2.29 3.34h12.45c1.27 0 2.29-1.5 2.29-3.34v-10.3a59 59 0 0 0 9.14 3.41 60 60 0 0 0 23.31 1.82v5.06c0 1.84 1 3.34 2.29 3.34h12.51c1.27 0 2.29-1.5 2.29-3.34v-9.67a57.83 57.83 0 0 0 9.91-5.58c13.95-9.78 23-25.41 23-43a51.07 51.07 0 0 0-8.2-27.84Z"/><ellipse cx="103.676" cy="96.24" fill="#FFF" fill-rule="nonzero" rx="5.02" ry="5.63"/><ellipse cx="103.676" cy="96.24" fill="#E00097" fill-rule="nonzero" rx="2.75" ry="3.08"/><ellipse cx="123.406" cy="90.61" fill="#FFF" fill-rule="nonzero" rx="5.02" ry="5.63"/><ellipse cx="123.406" cy="90.61" fill="#E00097" fill-rule="nonzero" rx="2.75" ry="3.08"/><path fill="#FF3DB7" fill-rule="nonzero" d="M77.586 51.92s-15.19.36-14.59 21.18l17.87 3.31-3.28-24.49Z"/><path fill="#E00097" fill-rule="nonzero" d="M95.126 65.63c1.493 0 2.979.215 4.41.64a21.47 21.47 0 0 0-2.88-6.49c-5-7.57-13.5-11.09-19.06-7.86-5.56 3.23-6 12-1.08 19.56a22.73 22.73 0 0 0 4.35 4.93 14.44 14.44 0 0 1 14.26-10.78Zm-26.36-18.31L67.636 50s-20.79 3.16-26.4 10.63v-3.5s8.67-7.96 27.53-9.81Z"/><path fill="#B60088" fill-rule="nonzero" d="m118.836 130.92-2-1.25c-2.64 4.14-6.76 6.33-10.75 5.71-3.76-.58-6.85-3.53-8.27-7.88l-2.21.72c1.7 5.2 5.49 8.73 10.12 9.45 4.96.77 9.97-1.82 13.11-6.75Z"/><path fill="#FF3DB7" fill-rule="nonzero" d="M138.806 119.68c-2.73 9.6-11.84 15.65-20.35 13.51-8.51-2.14-13.19-11.67-10.46-21.27 2.73-9.6 11.84-15.65 20.35-13.51 8.51 2.14 13.19 11.67 10.46 21.27Z"/><path fill="#FF0097" fill-rule="nonzero" d="M139.086 118.89c-2.35 8.26-9.12 13.72-15.13 12.21-6.01-1.51-9-9.43-6.63-17.69 2.37-8.26 9.12-13.73 15.13-12.21 6.01 1.52 8.98 9.44 6.63 17.69Z"/><path fill="#E00097" fill-rule="nonzero" d="M128.596 115.15c.28 2.62-.69 4.86-2.17 5-1.48.14-2.92-1.86-3.2-4.49-.28-2.63.69-4.86 2.17-5 1.48-.14 2.92 1.87 3.2 4.49Zm8.52-.82c.29 2.62-.69 4.86-2.17 5-1.48.14-2.92-1.87-3.2-4.49-.28-2.62.69-4.86 2.17-5 1.48-.14 2.92 1.87 3.2 4.49Z"/><path fill="#2B1412" fill-rule="nonzero" d="M46.206 18.41s.64-1.32-.43-1.54a.85.85 0 0 0-.94.76.89.89 0 0 0 .58 1l.79-.22Z"/><path fill="#FFF" fill-rule="nonzero" d="m28.596 24.03 25.95-15.81 18.94 31.66-26.01 15.6z"/><path fill="#B3B3B3" fill-rule="nonzero" d="m54.376 8.91 18.42 30.8-25.15 15.09-18.36-30.6 25.09-15.29m.34-1.38-.86.52-25.09 15.3-.85.52.51.85 18.36 30.6.51.86.86-.51 25.16-15.11.86-.51-.51-.86L55.236 8.4l-.52-.87Z"/><path fill="#97A92B" fill-rule="nonzero" d="m44.686 47.47 22.96-14.03-13.54-22.78-23.16 14.01z"/><path fill="#BDB1A2" fill-rule="nonzero" d="m54.376 8.91 18.42 30.8-24.76 14.8.09.08 24.85-14.86-18.49-30.84z"/><path fill="#2B1412" fill-rule="nonzero" d="m44.626 47.49-8.44-14.13-.59-1 .34-.63-.25.15.48-.78-.22.09.7-1-.28.06.71-.83h-.2l.67-.79-.31.08.88-.82-.3.09.53-.65-.32.1.61-.75h-.46c.29-.26.91-1 .91-1h-.38c.25-.33.92-1.09.92-1.09l-.27.14c.236-.405.497-.796.78-1.17l-.26.13a8.47 8.47 0 0 1 .69-1l-.33.27a16.35 16.35 0 0 1 2.54-3.14 9.12 9.12 0 0 1 .81-.64 1.17 1.17 0 0 1-.44-.35c-.51-.68.33-1.22.33-1.22.86-.43 1.15.44 1.24.89a3.22 3.22 0 0 1 2.84-.29 6.43 6.43 0 0 1 1.78 2 12.52 12.52 0 0 0 3.21-.91c.52 0 .64.71.7 1.47.109.55.02 1.12-.25 1.61a4.49 4.49 0 0 1-1.57 1.35 5.62 5.62 0 0 0-1.06.85c-.16.22-.66 1-.59 1.35l-.14-.54a2.06 2.06 0 0 0-.32.73l-.06-.32s-.38.75-.29 1.05l-.13-.48a2.92 2.92 0 0 0-.17 1l-.13-.26v.5a15.56 15.56 0 0 1 1.71 3.05s.48 1.2 1.35 3a7.82 7.82 0 0 0 1.52-.66 5.28 5.28 0 0 0 2.17-2.15 10.36 10.36 0 0 0 1.15-3.34 2.41 2.41 0 0 1 1.56 2.39 8.76 8.76 0 0 1-.07 2.27c.092.413.133.837.12 1.26l-.15-.36-.06.85-.12-.26a5.34 5.34 0 0 1-.05.81l-.14-.28a2.62 2.62 0 0 1-.17 1l-.08-.34c.01.3-.02.599-.09.89l-.11-.23-.28.89-.12-.2-.22.73-.08-.28-.36.9-.09-.25-.36.85-.09-.25-.37.73-.12-.2-.29.55c.39.59.75 1.08 1.18 1.65l-11.25 6.86Z"/><path fill="#FFBD2D" fill-rule="nonzero" d="m54.996 26 1.38-.79 3.2 5.67s0 .52-1 1.13c-1 .59-1.46.33-1.46.33l-3.52-5.51 1.4-.83Z"/><ellipse cx="57.94" cy="30.937" fill="#FF9D1E" fill-rule="nonzero" rx="1.26" ry="1" transform="rotate(-30.91 57.94 30.937)"/><path fill="#FFE881" fill-rule="nonzero" d="m55.646 25.63 3.2 5.41-.5.38-3.32-5.44.62-.35z"/><path fill="#FFF" fill-rule="nonzero" d="M47.556 20.77c-.19-.31-.51-.46-.72-.33a.37.37 0 0 0-.16.27.67.67 0 0 1 .23-.73c.31-.19.79 0 1.07.51s.25 1-.06 1.18a.62.62 0 0 1-.65-.07.34.34 0 0 0 .25 0c.21-.17.23-.52.04-.83Z"/><path fill="#1C0D0A" fill-rule="nonzero" d="M46.676 20.7a.37.37 0 0 1 .16-.27c.21-.13.53 0 .72.33.19.33.17.66 0 .79a.34.34 0 0 1-.25 0 1.33 1.33 0 0 1-.42-.44 1.37 1.37 0 0 1-.21-.41Z"/><path fill="#FFFFD4" fill-rule="nonzero" d="M52.826 22.67c.11.21.252.402.42.57.066.063.123.133.17.21.07.13.11.28 0 .34s-.24.2-.43-.35c0 0 0-.11-.1-.28l-.18-.41.12-.08Z"/><path fill="#FFFFD4" fill-rule="nonzero" d="M53.076 22.28s.09.13-.08.32l-.08.09a.1.1 0 0 0 0 .07.37.37 0 0 0 .06.11l-.09.19s0-.13-.13-.15a.24.24 0 0 0-.16 0l-.1.09s-.16.17-.24.16c-.08-.01.09-.28.82-.88Z"/><path fill="#FFF2AC" fill-rule="nonzero" d="m59.556 30.84-.34-.57a4 4 0 0 1-1 .9s-1 .67-1.5.6l.33.55s.52.29 1.6-.43a1.82 1.82 0 0 0 .91-1.05Z"/><ellipse cx="54.956" cy="25.978" fill="#FFFFC2" fill-rule="nonzero" rx="1.61" ry="1" transform="rotate(-30.91 54.956 25.978)"/><path fill="#FFFFC2" fill-rule="nonzero" d="m53.246 26.266 2.771-1.66.324.541-2.772 1.66z"/><ellipse cx="54.626" cy="25.444" stroke="#EDE6BD" stroke-width=".63" rx="1.61" ry="1" transform="rotate(-30.91 54.626 25.444)"/><path stroke="#EDE6BD" stroke-width=".63" d="m55.996 24.61 3.54 6.23s0 .54-1 1.14c0 0-1 .58-1.47.34l-3.84-6.05 2.77-1.66Z"/><path fill="#FFFFD4" fill-rule="nonzero" d="M53.266 26.25s-.13-.53.68-1.07a.58.58 0 0 0 .16-.15.24.24 0 0 0 0-.14.12.12 0 0 1 .17-.14 1.17 1.17 0 0 0 .52-.08s1-.34 1.15-.07a3.09 3.09 0 0 1-.9.73 6.6 6.6 0 0 1-1.78.92Z"/><path fill="#FF9D1E" fill-rule="nonzero" d="M55.816 30.27V29a1 1 0 0 1 .52 1s.05.17-.34.54l-.18-.27Zm1.61-2.69s-.92-.08-.54-.75a.49.49 0 0 1 .23-.25l1.5 2.65c-.25-.07-1-.35-.62-1 0 .04-.81.04-.57-.65Z"/><path fill="#2B1412" fill-rule="nonzero" d="M56.696 26.52s.15-.45.84-.29c0 0 1.94.34 1.93 3.22 0 0-.11.61-.28.68 0 0-.21-.38-.69-1.19 0 0-1.19-.27-.7-1 0 0-.81 0-.56-.68.01.01-.82-.19-.54-.74Z"/><circle cx="57.791" cy="31.27" r="1" fill="#FFFFA4" fill-rule="nonzero" transform="rotate(-30.7 57.791 31.27)"/><circle cx="57.721" cy="31.191" r="1" fill="#FFFFA4" fill-rule="nonzero" transform="rotate(-30.7 57.72 31.191)"/><circle cx="57.641" cy="30.806" r="1" fill="#FFFFA4" fill-rule="nonzero" transform="rotate(-30.91 57.641 30.806)"/><circle cx="57.587" cy="30.702" r="1" fill="#FFFFA4" fill-rule="nonzero" transform="rotate(-30.84 57.587 30.702)"/><circle cx="57.51" cy="30.593" r="1" fill="#FFFFA4" fill-rule="nonzero" transform="rotate(-30.85 57.51 30.593)"/><circle cx="57.435" cy="30.437" r="1" fill="#FFFFA4" fill-rule="nonzero" transform="rotate(-30.96 57.435 30.437)"/><circle cx="57.363" cy="30.321" r="1" fill="#FFFFA4" fill-rule="nonzero" transform="rotate(-30.95 57.363 30.32)"/><circle cx="57.298" cy="30.207" r="1" fill="#FFFFA4" fill-rule="nonzero" transform="rotate(-30.76 57.298 30.207)"/><circle cx="57.225" cy="30.096" r="1" fill="#FFFFA4" fill-rule="nonzero" transform="rotate(-30.95 57.225 30.096)"/><circle cx="57.153" cy="29.969" r="1" fill="#FFFFA4" fill-rule="nonzero" transform="rotate(-30.95 57.153 29.97)"/><circle cx="57.086" cy="29.86" r="1" fill="#FFFFA4" fill-rule="nonzero" transform="rotate(-30.96 57.086 29.86)"/><circle cx="57.014" cy="29.743" r="1" fill="#FFFFA4" fill-rule="nonzero" transform="rotate(-30.96 57.014 29.743)"/><circle cx="56.942" cy="29.618" r="1" fill="#FFFFA4" fill-rule="nonzero" transform="rotate(-30.91 56.942 29.618)"/><circle cx="58.322" cy="30.104" r="1" fill="#FFFFA4" fill-rule="nonzero" transform="rotate(-30.7 58.322 30.104)"/><circle cx="58.231" cy="29.814" r="1" fill="#FFFFA4" fill-rule="nonzero" transform="rotate(-30.7 58.231 29.814)"/><circle cx="58.161" cy="29.499" r="1" fill="#FFFFA4" fill-rule="nonzero" transform="rotate(-30.85 58.161 29.499)"/><circle cx="58.093" cy="29.385" r="1" fill="#FFFFA4" fill-rule="nonzero" transform="rotate(-30.85 58.093 29.385)"/><circle cx="58.021" cy="29.277" r="1" fill="#FFFFA4" fill-rule="nonzero" transform="rotate(-30.92 58.021 29.277)"/><circle cx="57.941" cy="29.138" r="1" fill="#FFFFA4" fill-rule="nonzero" transform="rotate(-30.95 57.94 29.138)"/><circle cx="57.869" cy="29.01" r="1" fill="#FFFFA4" fill-rule="nonzero" transform="rotate(-30.95 57.869 29.01)"/><circle cx="57.801" cy="28.901" r="1" fill="#FFFFA4" fill-rule="nonzero" transform="rotate(-30.96 57.8 28.9)"/><circle cx="58.042" cy="28.624" r="1" fill="#FFFFA4" fill-rule="nonzero" transform="rotate(-31.159 58.042 28.624)"/><circle cx="57.659" cy="28.66" r="1" fill="#FFFFA4" fill-rule="nonzero" transform="rotate(-30.94 57.66 28.66)"/><circle cx="57.587" cy="28.542" r="1" fill="#FFFFA4" fill-rule="nonzero" transform="rotate(-30.95 57.587 28.542)"/><circle cx="57.519" cy="28.435" r="1" fill="#FFFFA4" fill-rule="nonzero" transform="rotate(-30.85 57.52 28.435)"/><circle cx="57.469" cy="28.562" r="1" fill="#FFFFA4" fill-rule="nonzero" transform="rotate(-30.7 57.469 28.562)"/><circle cx="55.422" cy="28.181" r="1" fill="#FFFFA4" fill-rule="nonzero" transform="rotate(-30.85 55.422 28.18)"/><circle cx="55.326" cy="28.04" r="1" fill="#FFFFA4" fill-rule="nonzero" transform="rotate(-30.93 55.326 28.04)"/><circle cx="55.269" cy="27.927" r="1" fill="#FFFFA4" fill-rule="nonzero" transform="rotate(-30.92 55.27 27.927)"/><circle cx="55.203" cy="27.819" r="1" fill="#FFFFA4" fill-rule="nonzero" transform="rotate(-30.92 55.203 27.819)"/><circle cx="55.139" cy="27.71" r="1" fill="#FFFFA4" fill-rule="nonzero" transform="rotate(-30.86 55.14 27.71)"/><circle cx="55.043" cy="27.551" r="1" fill="#FFFFA4" fill-rule="nonzero" transform="rotate(-30.78 55.043 27.55)"/><circle cx="54.979" cy="27.436" r="1" fill="#FFFFA4" fill-rule="nonzero" transform="rotate(-30.87 54.979 27.436)"/><circle cx="54.91" cy="27.323" r="1" fill="#FFFFA4" fill-rule="nonzero" transform="rotate(-30.96 54.91 27.323)"/><circle cx="54.836" cy="27.202" r="1" fill="#FFFFA4" fill-rule="nonzero" transform="rotate(-30.87 54.836 27.202)"/><circle cx="54.77" cy="27.083" r="1" fill="#FFFFA4" fill-rule="nonzero" transform="rotate(-30.87 54.77 27.083)"/><circle cx="54.699" cy="26.977" r="1" fill="#FFFFA4" fill-rule="nonzero" transform="rotate(-30.85 54.7 26.977)"/><circle cx="54.629" cy="26.844" r="1" fill="#FFFFA4" fill-rule="nonzero" transform="rotate(-30.95 54.629 26.844)"/><circle cx="54.571" cy="26.74" r="1" fill="#FFFFA4" fill-rule="nonzero" transform="rotate(-30.91 54.571 26.74)"/><circle cx="55.323" cy="27.713" r="1" fill="#FFFFA4" fill-rule="nonzero" transform="rotate(-30.94 55.323 27.713)"/><circle cx="55.258" cy="27.593" r="1" fill="#FFFFA4" fill-rule="nonzero" transform="rotate(-30.85 55.258 27.593)"/><circle cx="55.194" cy="27.487" r="1" fill="#FFFFA4" fill-rule="nonzero" transform="rotate(-30.95 55.194 27.487)"/><circle cx="55.122" cy="27.36" r="1" fill="#FFFFA4" fill-rule="nonzero" transform="rotate(-30.95 55.122 27.36)"/><circle cx="55.049" cy="27.242" r="1" fill="#FFFFA4" fill-rule="nonzero" transform="rotate(-30.96 55.049 27.242)"/><circle cx="54.975" cy="27.136" r="1" fill="#FFFFA4" fill-rule="nonzero" transform="rotate(-30.93 54.975 27.136)"/><circle cx="54.913" cy="27.011" r="1" fill="#FFFFA4" fill-rule="nonzero" transform="rotate(-30.76 54.913 27.011)"/><circle cx="56.29" cy="26.476" r="1" fill="#FFFFA4" fill-rule="nonzero" transform="rotate(-30.93 56.29 26.476)"/><circle cx="56.222" cy="26.364" r="1" fill="#FFFFA4" fill-rule="nonzero" transform="rotate(-30.85 56.222 26.364)"/><circle cx="56.149" cy="26.239" r="1" fill="#FFFFA4" fill-rule="nonzero" transform="rotate(-30.95 56.149 26.24)"/><circle cx="56.076" cy="26.118" r="1" fill="#FFFFA4" fill-rule="nonzero" transform="rotate(-30.87 56.076 26.118)"/><circle cx="56.006" cy="25.992" r="1" fill="#FFFFA4" fill-rule="nonzero" transform="rotate(-30.86 56.006 25.992)"/><circle cx="55.938" cy="25.883" r="1" fill="#FFFFA4" fill-rule="nonzero" transform="rotate(-30.87 55.938 25.883)"/><circle cx="55.879" cy="25.776" r="1" fill="#FFFFA4" fill-rule="nonzero" transform="rotate(-30.89 55.879 25.776)"/><circle cx="56.595" cy="26.789" r="1" fill="#FFFFA4" fill-rule="nonzero" transform="rotate(-31.07 56.595 26.79)"/><circle cx="56.524" cy="26.669" r="1" fill="#FFFFA4" fill-rule="nonzero" transform="rotate(-30.88 56.524 26.669)"/><circle cx="56.453" cy="26.555" r="1" fill="#FFFFA4" fill-rule="nonzero" transform="rotate(-30.96 56.453 26.555)"/><circle cx="56.386" cy="26.434" r="1" fill="#FFFFA4" fill-rule="nonzero" transform="rotate(-30.87 56.386 26.434)"/><circle cx="56.315" cy="26.325" r="1" fill="#FFFFA4" fill-rule="nonzero" transform="rotate(-30.77 56.315 26.325)"/><circle cx="56.243" cy="26.2" r="1" fill="#FFFFA4" fill-rule="nonzero" transform="rotate(-30.87 56.243 26.2)"/><circle cx="56.172" cy="26.084" r="1" fill="#FFFFA4" fill-rule="nonzero" transform="rotate(-30.79 56.172 26.084)"/><circle cx="56.517" cy="26.403" r="1" fill="#FFFFA4" fill-rule="nonzero" transform="rotate(-30.87 56.517 26.403)"/><circle cx="56.446" cy="26.276" r="1" fill="#FFFFA4" fill-rule="nonzero" transform="rotate(-30.87 56.446 26.276)"/><circle cx="56.374" cy="26.162" r="1" fill="#FFFFA4" fill-rule="nonzero" transform="rotate(-30.96 56.374 26.162)"/><circle cx="56.309" cy="26.054" r="1" fill="#FFFFA4" fill-rule="nonzero" transform="rotate(-30.95 56.309 26.054)"/><circle cx="56.236" cy="25.923" r="1" fill="#FFFFA4" fill-rule="nonzero" transform="rotate(-30.87 56.236 25.923)"/><circle cx="56.165" cy="25.81" r="1" fill="#FFFFA4" fill-rule="nonzero" transform="rotate(-30.95 56.165 25.81)"/><circle cx="56.106" cy="25.699" r="1" fill="#FFFFA4" fill-rule="nonzero" transform="rotate(-31.01 56.106 25.7)"/><circle cx="54.397" cy="27.596" r="1" fill="#FFFFA4" fill-rule="nonzero" transform="rotate(-30.95 54.397 27.596)"/><circle cx="54.324" cy="27.488" r="1" fill="#FFFFA4" fill-rule="nonzero" transform="rotate(-30.77 54.324 27.488)"/><circle cx="54.255" cy="27.365" r="1" fill="#FFFFA4" fill-rule="nonzero" transform="rotate(-30.87 54.255 27.365)"/><circle cx="54.187" cy="27.254" r="1" fill="#FFFFA4" fill-rule="nonzero" transform="rotate(-30.95 54.187 27.254)"/><circle cx="54.115" cy="27.145" r="1" fill="#FFFFA4" fill-rule="nonzero" transform="rotate(-30.77 54.115 27.145)"/><circle cx="54.045" cy="27.022" r="1" fill="#FFFFA4" fill-rule="nonzero" transform="rotate(-30.87 54.045 27.022)"/><circle cx="53.982" cy="26.908" r="1" fill="#FFFFA4" fill-rule="nonzero" transform="rotate(-30.91 53.982 26.908)"/><circle cx="56.389" cy="28.887" r="1" fill="#FFFFA4" fill-rule="nonzero" transform="rotate(-31.06 56.39 28.887)"/><circle cx="56.314" cy="28.779" r="1" fill="#FFFFA4" fill-rule="nonzero" transform="rotate(-30.77 56.314 28.779)"/><circle cx="56.249" cy="28.664" r="1" fill="#FFFFA4" fill-rule="nonzero" transform="rotate(-30.95 56.25 28.664)"/><circle cx="56.174" cy="28.535" r="1" fill="#FFFFA4" fill-rule="nonzero" transform="rotate(-30.87 56.174 28.535)"/><circle cx="56.108" cy="28.428" r="1" fill="#FFFFA4" fill-rule="nonzero" transform="rotate(-30.85 56.108 28.428)"/><circle cx="56.039" cy="28.311" r="1" fill="#FFFFA4" fill-rule="nonzero" transform="rotate(-30.95 56.04 28.311)"/><circle cx="55.977" cy="28.192" r="1" fill="#FFFFA4" fill-rule="nonzero" transform="rotate(-30.89 55.977 28.192)"/><circle cx="57.077" cy="31.562" r="1" fill="#FFFFA4" fill-rule="nonzero" transform="rotate(-30.95 57.077 31.562)"/><circle cx="57.005" cy="31.456" r="1" fill="#FFFFA4" fill-rule="nonzero" transform="rotate(-30.86 57.005 31.456)"/><circle cx="56.94" cy="31.34" r="1" fill="#FFFFA4" fill-rule="nonzero" transform="rotate(-30.93 56.94 31.34)"/><circle cx="56.867" cy="31.219" r="1" fill="#FFFFA4" fill-rule="nonzero" transform="rotate(-30.96 56.867 31.22)"/><circle cx="56.799" cy="31.105" r="1" fill="#FFFFA4" fill-rule="nonzero" transform="rotate(-30.77 56.799 31.105)"/><circle cx="56.729" cy="30.985" r="1" fill="#FFFFA4" fill-rule="nonzero" transform="rotate(-30.95 56.73 30.985)"/><circle cx="56.662" cy="30.881" r="1" fill="#FFFFA4" fill-rule="nonzero" transform="rotate(-30.89 56.662 30.88)"/><circle cx="58.916" cy="30.32" r="1" fill="#FFFFA4" fill-rule="nonzero" transform="rotate(-31.04 58.916 30.32)"/><circle cx="58.842" cy="30.198" r="1" fill="#FFFFA4" fill-rule="nonzero" transform="rotate(-30.94 58.842 30.198)"/><circle cx="58.774" cy="30.089" r="1" fill="#FFFFA4" fill-rule="nonzero" transform="rotate(-30.95 58.774 30.089)"/><circle cx="59.023" cy="29.818" r="1" fill="#FFFFA4" fill-rule="nonzero" transform="rotate(-31.159 59.023 29.818)"/><circle cx="58.631" cy="29.855" r="1" fill="#FFFFA4" fill-rule="nonzero" transform="rotate(-30.95 58.63 29.855)"/><circle cx="58.564" cy="29.737" r="1" fill="#FFFFA4" fill-rule="nonzero" transform="rotate(-30.95 58.564 29.737)"/><circle cx="58.502" cy="29.621" r="1" fill="#FFFFA4" fill-rule="nonzero" transform="rotate(-31.02 58.502 29.621)"/><circle cx="57.179" cy="31.038" r="1" fill="#FFFFA4" fill-rule="nonzero" transform="rotate(-30.7 57.18 31.038)"/><circle cx="57.087" cy="30.55" r="1" fill="#FFFFA4" fill-rule="nonzero" transform="rotate(-30.92 57.087 30.55)"/><circle cx="57.023" cy="30.435" r="1" fill="#FFFFA4" fill-rule="nonzero" transform="rotate(-30.85 57.023 30.435)"/><circle cx="56.956" cy="30.337" r="1" fill="#FFFFA4" fill-rule="nonzero" transform="rotate(-30.85 56.956 30.337)"/><circle cx="56.894" cy="30.213" r="1" fill="#FFFFA4" fill-rule="nonzero" transform="rotate(-30.93 56.894 30.213)"/><circle cx="56.81" cy="30.065" r="1" fill="#FFFFA4" fill-rule="nonzero" transform="rotate(-30.87 56.81 30.065)"/><circle cx="56.733" cy="29.948" r="1" fill="#FFFFA4" fill-rule="nonzero" transform="rotate(-30.95 56.733 29.948)"/><circle cx="56.666" cy="29.84" r="1" fill="#FFFFA4" fill-rule="nonzero" transform="rotate(-30.95 56.666 29.84)"/><circle cx="56.595" cy="29.723" r="1" fill="#FFFFA4" fill-rule="nonzero" transform="rotate(-30.95 56.595 29.723)"/><circle cx="56.531" cy="29.899" r="1" fill="#FFFFA4" fill-rule="nonzero" transform="rotate(-30.7 56.53 29.899)"/><circle cx="56.458" cy="29.49" r="1" fill="#FFFFA4" fill-rule="nonzero" transform="rotate(-30.93 56.458 29.49)"/><circle cx="56.384" cy="29.37" r="1" fill="#FFFFA4" fill-rule="nonzero" transform="rotate(-30.96 56.384 29.37)"/><circle cx="56.324" cy="29.249" r="1" fill="#FFFFA4" fill-rule="nonzero" transform="rotate(-31.01 56.324 29.249)"/><circle cx="55.882" cy="29.451" r="1" fill="#FFFFA4" fill-rule="nonzero" transform="rotate(-30.93 55.882 29.451)"/><circle cx="55.807" cy="29.58" r="1" fill="#FFFFA4" fill-rule="nonzero" transform="rotate(-30.7 55.807 29.58)"/><circle cx="55.735" cy="29.21" r="1" fill="#FFFFA4" fill-rule="nonzero" transform="rotate(-30.85 55.735 29.21)"/><circle cx="55.678" cy="29.366" r="1" fill="#FFFFA4" fill-rule="nonzero" transform="rotate(-30.7 55.678 29.366)"/><circle cx="55.606" cy="28.983" r="1" fill="#FFFFA4" fill-rule="nonzero" transform="rotate(-30.91 55.606 28.983)"/><circle cx="55.517" cy="28.834" r="1" fill="#FFFFA4" fill-rule="nonzero" transform="rotate(-30.85 55.517 28.834)"/><circle cx="55.444" cy="28.717" r="1" fill="#FFFFA4" fill-rule="nonzero" transform="rotate(-30.95 55.444 28.717)"/><circle cx="55.373" cy="28.601" r="1" fill="#FFFFA4" fill-rule="nonzero" transform="rotate(-30.94 55.373 28.6)"/><circle cx="55.3" cy="28.483" r="1" fill="#FFFFA4" fill-rule="nonzero" transform="rotate(-30.95 55.3 28.483)"/><circle cx="55.234" cy="28.374" r="1" fill="#FFFFA4" fill-rule="nonzero" transform="rotate(-30.95 55.234 28.374)"/><circle cx="55.166" cy="28.261" r="1" fill="#FFFFA4" fill-rule="nonzero" transform="rotate(-31.03 55.166 28.261)"/><circle cx="55.101" cy="28.434" r="1" fill="#FFFFA4" fill-rule="nonzero" transform="rotate(-30.7 55.101 28.434)"/><circle cx="55.034" cy="28.019" r="1" fill="#FFFFA4" fill-rule="nonzero" transform="rotate(-31.02 55.034 28.019)"/><path fill="#2B1412" fill-rule="nonzero" d="M54.996 28.86s.38-.77 1 .26c.206.513.07 1.1-.34 1.47 0 0-1.32-.71-.66-1.73Z"/><path fill="#FFF" fill-rule="nonzero" d="m54.246 27.74-.64.1.65.08.17.76.08-.72.64-.23-.67-.03-.22-.63-.01.67Zm3.87 2.04-.28.04.29.04.07.33.04-.31.28-.11-.3-.01-.09-.28-.01.3Zm-1.67-4.43-.28.04.29.04.07.34.04-.32.28-.1-.3-.02-.09-.28-.01.3Zm-2.74 1.83-.28.05.29.03.07.34.04-.32.28-.1-.3-.02-.09-.27-.01.29Z"/><path fill="#F78" d="M52.226 19.67s.87-.59 1 .56c0 0 0 .34.07.68a1.45 1.45 0 0 1-1.07-1.24Z"/><path fill="#FFF" fill-rule="nonzero" d="M69.976 27.21 80.096.64l22.1 8.24-10.21 26.71-22.01-8.38z"/><path fill="#B3B3B3" fill-rule="nonzero" d="m80.386 1.28 21.17 7.89-9.86 25.78-21.08-8 9.77-25.67M79.806 0l-.35.93-9.77 25.64-.36.93.93.36 21.08 8 .93.36.36-.93 9.85-25.77.36-.94-.94-.35L80.736.35l-.93-.35Z"/><path fill="#65B8B8" fill-rule="nonzero" d="m73.616 21.82 19.35 7.32 7.32-19.35-19.38-7.26-7.29 19.29z"/><path fill="url(#a)" fill-rule="nonzero" d="M87.566 26.53s-.73.47-.57-.53a.24.24 0 0 1-.18-.29.71.71 0 0 1 .38-.41 3.7 3.7 0 0 0-.2-2.7l-1.34 3.78-4.41-1.67 1.42-3.71c-.67.19-1.26.67-2 2 0 0 .13.4 0 .55a.24.24 0 0 1-.32.1c-.51.83-.77 0-.77 0-.59-.3-.17-1 0-1.2a5.1 5.1 0 0 1 2.71-2.58 5.9 5.9 0 0 1 3.45.18c1.71.63 1.79 1 1.79 1l-.08.21c.177.18.32.39.42.62a5.1 5.1 0 0 1 .4 3.72c.04.3-.06 1.08-.7.93Z"/><path fill="#FFFFED" fill-rule="nonzero" d="M80.896 13.68A9 9 0 0 1 84.456 9l-.07.41a3.51 3.51 0 0 1 1.61-1.27 7.93 7.93 0 0 0-.33.73 3.91 3.91 0 0 1 1.78-1.14l-.23.64a4.62 4.62 0 0 1 1.54-.94 5 5 0 0 0-.27.71 3.31 3.31 0 0 1 .91-.74v.77a7.39 7.39 0 0 1 .48-1c.144.416.264.84.36 1.27l.14-.67a6.43 6.43 0 0 1 .91 1.9l.17-.52a8 8 0 0 1 .54 1.54l.17-.58a6.34 6.34 0 0 1 .62 1.89l.07-.43a9.27 9.27 0 0 1 .35 6.28c0 .12-.07.23-.11.34-1 2.77-4 4.06-7.89 2.63-3.89-1.43-5.17-4-4.46-6.65l.15-.44v-.05Z"/><path fill="url(#b)" fill-rule="nonzero" d="M83.606 12.26a3.1 3.1 0 0 1 1.39-.71 8.68 8.68 0 0 1 1.2-.23c1-.13 2.36-.26 2.78-1-.15.83.81 1.83 1.48 2.56.277.315.531.649.76 1a3.8 3.8 0 0 1 .57 1.41c.24 1.6-1.57 6.15-6.24 4.43-4.72-1.72-3.17-6.26-1.94-7.46Z"/><circle cx="88.925" cy="14.608" r="1" fill="#723835" fill-rule="nonzero" transform="rotate(-69.83 88.925 14.608)"/><circle cx="86.251" cy="13.617" r="1" fill="#723835" fill-rule="nonzero" transform="rotate(-69.83 86.25 13.617)"/><circle cx="87.205" cy="15.034" r="1" fill="#FF3056" fill-rule="nonzero" transform="rotate(-69.83 87.205 15.034)"/><path fill="#FFFFED" fill-rule="nonzero" d="M92.996 14.79a8 8 0 0 1 5.86-2.59 9.39 9.39 0 0 1-1.31 2.55l.36-.11s-2.08 5.06-6 4.14l1.09-3.99Z"/><path fill="#FFDCE6" fill-rule="nonzero" d="M93.436 16.25s1.4-2.06 3.24-2.15a4.12 4.12 0 0 1-3.55 3.37l1.37-1-1.24.28 1.12-.75-.94.25Z"/><path fill="#FFFFED" fill-rule="nonzero" d="M82.936 11.11a8 8 0 0 0-2.79-5.77 9.39 9.39 0 0 0-.65 2.79l-.2-.32s-1.7 5.19 1.91 7.06l1.73-3.76Z"/><path fill="#FFDCE6" fill-rule="nonzero" d="M81.616 11.91s.15-2.65-1.2-3.91a4.53 4.53 0 0 0 .64 5l-.42-1.63.76 1-.34-1.31.56.85Z"/><path fill="#FF3056" fill-rule="nonzero" d="M87.906 16.37a1.39 1.39 0 0 1-2.14-.79l2.14.79Z"/></g></svg>