<svg xmlns="http://www.w3.org/2000/svg" viewBox="0 0 542 257"><g fill="none" transform="translate(-.003 .989)"><path fill="#9ABD00" d="M68.513.091a164.45 164.45 0 0 0-21.64 2.43l13.3 2.09 8.34-4.52Z"/><path fill="#EBCF60" d="M92.823 203.091c-6-19.49-6.64-45.6-6.64-45.6l-11.07-3.42-.08-.78-.87.49-.95-.3.08.78-10.12 5.65s4.84 25.66 3 46c0 0-2.12 24.9 15.84 22.53 18.06-1.43 10.81-25.35 10.81-25.35Z"/><path fill="#FFE77C" d="M89.273 203.471c-6-19.49-6.63-45.6-6.63-45.6l-11.07-3.42-.08-.78-.86.49-1-.29.08.78-10.12 5.65s4.84 25.66 3 46c0 0-2.12 24.9 15.84 22.53 18.1-1.45 10.84-25.36 10.84-25.36Z"/><path fill="#9ABD00" d="M85.053 2.501c1.06.39-6.24 4.31-6.25 6.47-.06 8.57 2.39 25.44 6.12 28.43 9.72 7.8 12.78 6.71 31.17 13.5 1.32.49 10.45-1 11 .63a94 94 0 0 1 5.54 24.22c4.74 45-4.85 82.87-48.14 87.43-42.39 4.46-60.49-30.51-65.25-75.49-4.76-44.98 16.76-84.14 48.13-87.44a37 37 0 0 1 17.68 2.25Z"/><path fill="#9ABD00" d="M85.663 163.011a165.47 165.47 0 0 1-21.66 2.1l12.57-4.82 9.09 2.72Z"/><path fill="#B3D700" d="M114.083 77.701c4.74 45-4.85 82.87-48.14 87.43-42.43 4.47-60.55-30.5-65.29-75.49-4.74-44.99 16.82-84.13 48.14-87.43 31.32-3.3 60.55 30.5 65.29 75.49Z"/><path fill="#DEED8D" d="M68.003 5.081s-3.93 10.48 4.67 15.61c0 0-3.13 11.73 6 15.81 0 0-.59 13.48 13.34 12 0 0 3.21 11.41 16.19 4 0 0 3.84-1.75 12-.59l3.91-1.08h3s-15.1-.09-17.39-5.88c0 0-8.54-1.45-7.85-13.94 0 0-9.38-3-8.92-11.47 0 0-15.3-5.1-7.83-17l-7.37.1-9.75 2.44Z"/><path fill="#B3D700" d="m91.383 242.251 11.12-4 7.12 4.89-6.67 1.78-5.34-.88-8.45 2.22 2.22-4.01Zm33.81-1.77 4-.45 5.34 3.11-4.89.45-4.45-3.11Zm-17.35 12.01 8.01-3.12 1.33 5.79-4.89.44-4.45-3.11Z"/><path fill="#FDEFA2" d="M90.673 53.061s-6.35 20.28 2.62 19.86c0 0 9.49-.46-2.62-19.86Z"/><path fill="#FFE77C" d="M46.603 74.291s1.67 10.85-15.27 14.47c0 0-17.1 2.06-15.23 12.36 0 0-4.9-9.19 10.08-13.92 0 0 4.1-1 7.7-1.6 0 .01 11.34-1.97 12.72-11.31Zm17.13-1.8s.63 11 18 11c0 0 17.16-1.54 17.47 8.92 0 0 2.88-10-12.76-11.52 0 0-4.21-.08-7.87 0-.04.02-11.57.44-14.84-8.4Z"/><ellipse cx="37.194" cy="108.132" fill="#FFF" rx="10.67" ry="10.97" transform="rotate(-8.11 37.194 108.132)"/><ellipse cx="37.864" cy="106.336" fill="#000" rx="5.14" ry="5.29" transform="rotate(-8.11 37.864 106.336)"/><ellipse cx="64.204" cy="130.129" fill="#E6231E" rx="6.5" ry="7.65" transform="rotate(-11.19 64.204 130.129)"/><ellipse cx="82.063" cy="101.736" fill="#FFF" rx="10.67" ry="10.97" transform="rotate(-8.11 82.063 101.736)"/><ellipse cx="82.732" cy="99.941" fill="#000" rx="5.14" ry="5.29" transform="rotate(-8.11 82.732 99.941)"/><ellipse cx="38.801" cy="103.196" fill="#FFF" rx="1.32" ry="1" transform="rotate(-8.11 38.801 103.196)"/><ellipse cx="83.932" cy="96.754" fill="#FFF" rx="1.32" ry="1" transform="rotate(-8.11 83.932 96.754)"/><path fill="#FF0" d="M76.003 129.931s66.31-14 66.31-40 5.62-64 41.86-64c10.67 0 41-7.41 105.24-9 154-3.81 200.83-4 200.83-4s51 10 51 48 6 116-51 116-91.83 5-144.83 5c-53 0-147.5 6.5-154 0-3.36-3.36-11.86-3.3-23.18-13-10.56-9-24.1-35-24.1-35s-12.08 8.46-32.37 7c-27.87-2-35.76-11-35.76-11Z"/><path fill="#FF0180" d="m193.293 118.581-2-46.6 15.83-.67 2 46.6c.41 9.56 6.7 12.71 12.31 12.47 5.61-.24 11.5-3.9 11.1-13.46l-2-46.6 15.83-.67 2 46.6c.72 17-9.91 28.5-26.29 29.19-16.38.69-28.07-9.83-28.78-26.86Zm61.33-49.28 14.07-.6 1.16 27.25a17.33 17.33 0 0 1 8.15-2.32c11.87-.5 20.12 7.18 20.71 21.14l1.12 26.38-14.18.6-1.12-26.38c-.22-5.17-2.36-8.82-7.3-8.61-4.94.21-6.76 4.25-6.55 9.2l1.12 26.38-14.07.6-3.11-73.64Zm50.55 36.83 24-1 .52 12.2-24 1-.52-12.2Zm67.22-42.82a37.84 37.84 0 1 1-36.2 39.41c-.886-20.878 15.321-38.523 36.2-39.41Zm2.53 59.79c12.133-.517 21.552-10.768 21.043-22.902-.509-12.133-10.753-21.559-22.887-21.059-12.133.5-21.567 10.737-21.076 22.871.541 12.137 10.78 21.559 22.92 21.09Zm42.46-60.7 14.07-.6 1.15 27.21a17.32 17.32 0 0 1 8.16-2.33c11.87-.5 20.12 7.18 20.71 21.14l1.12 26.38-14.18.6-1.12-26.38c-.22-5.17-2.36-8.82-7.3-8.61-4.94.21-6.76 4.25-6.55 9.2l1.12 26.38-14.07.6-3.11-73.59Zm53.69 49.39-2.47-58.27 16.18-.69 2.47 58.27-16.18.69Zm8.34 4.09a9.36 9.36 0 0 1 .79 18.7 9.36 9.36 0 0 1-.79-18.7Z"/></g></svg>