<svg xmlns="http://www.w3.org/2000/svg" xmlns:xlink="http://www.w3.org/1999/xlink" fill="none" viewBox="0 0 190 190"><linearGradient id="bb9be5f7-b993-4973-84ac-c1e4d752f61dd" x1="28.3" x2="80.8" y1="75" y2="44.4" gradientUnits="userSpaceOnUse"><stop offset="0" stop-color="#a52714" stop-opacity=".6"/><stop offset=".7" stop-color="#a52714" stop-opacity="0"/></linearGradient><linearGradient id="03ff9ad4-d8ad-4fab-9bd5-6b13d79a26c5f" x1="109.9" x2="51.5" y1="164.5" y2="130.3" gradientUnits="userSpaceOnUse"><stop offset="0" stop-color="#055524" stop-opacity=".4"/><stop offset=".3" stop-color="#055524" stop-opacity="0"/></linearGradient><linearGradient id="489acd8e-85a8-4003-81e4-29aae05bea1ah" x1="121.9" x2="136.6" y1="49.8" y2="114.1" gradientUnits="userSpaceOnUse"><stop offset="0" stop-color="#ea6100" stop-opacity=".3"/><stop offset=".7" stop-color="#ea6100" stop-opacity="0"/></linearGradient><radialGradient id="675ec2ec-a4a6-4640-8b5a-3f34c1fbe6b6a" cx="91.2" cy="55" r="84.1" gradientUnits="userSpaceOnUse"><stop offset="0" stop-color="#3e2723" stop-opacity=".2"/><stop offset="1" stop-color="#3e2723" stop-opacity="0"/></radialGradient><radialGradient xlink:href="#675ec2ec-a4a6-4640-8b5a-3f34c1fbe6b6a" id="64937939-2deb-42e6-9afd-88224a9b1540i" cx="20.9" cy="47.5" r="78"/><radialGradient id="104d3b52-78a2-4ce4-8be1-c74db332baedj" cx="94.8" cy="95.1" r="87.9" gradientUnits="userSpaceOnUse"><stop offset="0" stop-color="#263238" stop-opacity=".2"/><stop offset="1" stop-color="#263238" stop-opacity="0"/></radialGradient><radialGradient id="6e40c8b6-af54-45ac-bbfe-b3e6a311497ck" cx="33.3" cy="31" r="176.8" gradientUnits="userSpaceOnUse"><stop offset="0" stop-color="#fff" stop-opacity=".1"/><stop offset="1" stop-color="#fff" stop-opacity="0"/></radialGradient><clipPath id="6cff281d-85e1-4466-8f32-506176af62dfb"><circle cx="95" cy="95" r="88"/></clipPath><g clip-path="url(#6cff281d-85e1-4466-8f32-506176af62dfb)"><use xlink:href="#e822cb6a-ff56-44e7-bbcb-0f1c9c5ffcedc" fill="#db4437"/><use xlink:href="#e822cb6a-ff56-44e7-bbcb-0f1c9c5ffcedc" fill="url(#bb9be5f7-b993-4973-84ac-c1e4d752f61dd)"/><use xlink:href="#c06b882d-962a-4ba7-9636-f9daa96f777de" fill="#0f9d58"/><use xlink:href="#c06b882d-962a-4ba7-9636-f9daa96f777de" fill="url(#03ff9ad4-d8ad-4fab-9bd5-6b13d79a26c5f)"/><use xlink:href="#7f41daa4-5301-4a5f-a665-d881baba58c0g" fill="#ffcd40"/><use xlink:href="#7f41daa4-5301-4a5f-a665-d881baba58c0g" fill="url(#489acd8e-85a8-4003-81e4-29aae05bea1ah)"/><g fill-opacity=".1"><path fill="#3e2723" d="M61.3 114.7 21 47.4l39 67.8z"/><path fill="#263238" d="m128.8 116.3-.8-.4-37.3 67 38.3-67z"/></g><path id="c06b882d-962a-4ba7-9636-f9daa96f777de" d="M7 183h83.8l39-39v-29H60.2L7 23.5z"/><path id="7f41daa4-5301-4a5f-a665-d881baba58c0g" d="m95 55 34.6 60L91 183h92V55z"/><path id="e822cb6a-ff56-44e7-bbcb-0f1c9c5ffcedc" d="M21 7v108h39.4L95 55h88V7z"/><path fill="url(#675ec2ec-a4a6-4640-8b5a-3f34c1fbe6b6a)" d="M95 55v21l78.4-21z"/><path fill="url(#64937939-2deb-42e6-9afd-88224a9b1540i)" d="m21 47.5 57.2 57.2L60.4 115z"/><path fill="url(#104d3b52-78a2-4ce4-8be1-c74db332baedj)" d="m90.8 183 21-78.3 17.8 10.3z"/><circle cx="95" cy="95" r="40" fill="#f1f1f1"/><circle cx="95" cy="95" r="32" fill="#4285f4"/><circle cx="95" cy="95" r="88" fill="url(#6e40c8b6-af54-45ac-bbfe-b3e6a311497ck)"/><g fill="#3e2723" fill-opacity=".1"><path fill="#fff" d="M129.6 115a40 40 0 0 1-69.2 0L7 24.5 60.4 116a40 40 0 0 0 69.2 0z"/><path d="M96 55h-.5a40 40 0 1 1 0 80h.5c22 0 40-18 40-40s-18-40-40-40m-1 127a88 88 0 0 0 88-87.5v.5A88 88 0 0 1 7 95v-.5A88 88 0 0 0 95 182"/><g fill-opacity=".2"><path fill="#fff" d="M130 116.3a39.3 39.3 0 0 0 3.4-32 38 38 0 0 1-3.8 30.7L92 183l38.2-66.5zM95 8a88 88 0 0 1 88 87.5V95A88 88 0 0 0 7 95v.5A88 88 0 0 1 95 8"/><path d="M95 54c-22 0-40 18-40 40v1c0-22 18-40 40-40h88v-1z"/></g></g></g></svg>