<svg xmlns="http://www.w3.org/2000/svg" id="Layer_1" data-name="Layer 1" viewBox="0 0 165.24 86"><defs><style>.cls-1{fill:#f09}</style></defs><path d="M11.13 60.48v12.18H-.02V59.81c0-7.2 4.48-12.29 12.4-12.29a13.48 13.48 0 0 1 9.36 3.32 13.49 13.49 0 0 1 9.36-3.32c8 0 12.46 5.09 12.46 12.29v12.85H32.39V60.48c0-1.38-.66-2.93-2.49-2.93s-2.55 1.55-2.55 2.93v12.18H16.22V60.48a2.66 2.66 0 0 0-2.55-2.93c-1.82-.01-2.54 1.54-2.54 2.93zm54.31-22.15h11.13v10.19h5.15v9h-5.15v1.83c0 2.49.39 4.32 3.71 4.32h1.44v9h-4.54c-9.58 0-11.74-5.48-11.74-13.07zm18.45 25.86s4.32 2.16 7.81 2.16c1 0 2.21-.17 2.21-1.38s-1.72-1.11-4.82-1.83c-4.21-.94-5.92-3.88-5.92-6.92 0-6.09 6.09-8.69 11.29-8.69a23.53 23.53 0 0 1 9.19 1.55v7.25a23.5 23.5 0 0 0-7.59-1.61c-1 0-2.1.22-2.1 1.11s1.22 1.16 2.93 1.49l1.38.22c4.54.78 6.59 3.21 6.59 7 0 6.26-4.87 9.08-11.57 9.08a21.91 21.91 0 0 1-9.41-1.88zm22.65-28.63h11.13V49.4a9.76 9.76 0 0 1 6-1.88c7.09 0 10.74 4.15 10.74 13v12.14h-11.15V60.48a2.78 2.78 0 0 0-2.82-2.93 2.71 2.71 0 0 0-2.77 2.93v12.18h-11.13zm29.96 25.03c0-7.2 6-13.07 14.4-13.07s14.34 5.87 14.34 13.07c0 6.75-4.43 13.07-12.4 13.07a11 11 0 0 1-5.2-1.22V86H136.5zm11.13 0a3.24 3.24 0 0 0 6.48 0 3.24 3.24 0 1 0-6.48 0zM45.98 12.1l.07.14-.15.32.18.3.41 3.61h.6a5.63 5.63 0 0 1 1.64-2l-.2-1.79.16-.2-.18-.19.18-.19-.16-.21.2-.17-.14-.22.21-.15-.18-.35.23-.13c0-.08-.07-.16-.1-.24l.24-.11c0-.07 0-.14-.07-.21l.25-.09c0-.08 0-.17-.05-.25l.25-.06v-.26h.26v-.26h.26v-.26h.26v-.26h.26v-.25L60.22 2l-.18-.25-1.2-1.63-.09-.12-9.28 6.29-.16.11-.1.07h-.35l-.16.31-.35.07c0 .11-.09.21-.13.32l-.34.1-.1.33-.33.14c0 .11-.05.23-.07.34l-.31.17v.34l-.3.2v.35l-.28.22v.35l-.25.25c0 .12 0 .23.06.34l-.23.27c0 .11.06.23.09.33l-.2.29.12.32-.17.31zm14.15 1.4a3.28 3.28 0 0 0-1-.39c-.18-1.1-.71-1.8-1.06-1.65-.69.29.4 1.27.4 1.27.82 1.34.14 3.06-.23 3.79a.83.83 0 0 1-.33-.23 1.64 1.64 0 0 0-1.73-.05 2.21 2.21 0 0 0-.77 2.49 2.72 2.72 0 0 0 3.69 1.41 2.21 2.21 0 0 0 1.08-2.37 1.64 1.64 0 0 0-1.32-1.11.79.79 0 0 1-.36 0 5.62 5.62 0 0 0 .65-3.31 2.36 2.36 0 0 1 .77.36c-.51 2.21 2.21 3.1 2.21 3.1.85-3.27-2-3.31-2-3.31z" class="cls-1"/><path d="M61.15 21.79h-.27v-.27a4.12 4.12 0 0 0-.19-.77 3.19 3.19 0 0 1-.88.67 3.89 3.89 0 0 1-1.77.45 4.18 4.18 0 0 1-1.52-.31 3.74 3.74 0 0 1-1.73-5.91 4.19 4.19 0 0 0-6.67 2.08l-.14.27h-.28a4.17 4.17 0 0 0-4.94 3.61v.24h-.24A4.23 4.23 0 0 0 39.05 26a4.08 4.08 0 0 0 .93 2.57h24.25a4.05 4.05 0 0 0 .94-2.57 4.22 4.22 0 0 0-4.02-4.21z" class="cls-1"/><path fill="none" d="M52.15 71c1.7 0 3.07.24 3.07-.45s-1.37-1.24-3.07-1.24-3.07.55-3.07 1.24 1.37.45 3.07.45z"/><path d="M40.76 31v13.3c0 3 8.4 19.37 8.4 22.07s-7 4-8.4 4.8c-.74.42-.42 1.49 1 1.49h20.5c1.5 0 2.08-.85 1.32-1.49-1.1-.92-8.4-2.11-8.4-4.8s8.4-19.06 8.4-22.07V31c0-.4 0-.87-.28-.87H41.04c-.32 0-.28.54-.28.87zm11.39 38.31c1.7 0 3.07.55 3.07 1.24s-1.37.45-3.07.45-3.07.24-3.07-.45 1.37-1.24 3.07-1.24z" class="cls-1"/><path fill="#fff" d="M55.66 49.95a.55.55 0 0 0-.75.2 3.19 3.19 0 0 1-5.52 0 .57.57 0 1 0-1 .55 4.29 4.29 0 0 0 7.43 0 .55.55 0 0 0-.16-.75zM46.03 44a2.26 2.26 0 0 0 4.51 0 2.26 2.26 0 1 0-4.51 0zm7.72 0a2.26 2.26 0 0 0 4.51 0 2.26 2.26 0 1 0-4.51 0z"/></svg>